G75*
%MOIN*%
%OFA0B0*%
%FSLAX25Y25*%
%IPPOS*%
%LPD*%
%AMOC8*
5,1,8,0,0,1.08239X$1,22.5*
%
%ADD10R,0.03543X0.05118*%
%ADD11R,0.05118X0.03543*%
%ADD12R,0.03937X0.02362*%
%ADD13R,0.02559X0.05906*%
%ADD14R,0.02165X0.05906*%
%ADD15R,0.04331X0.02756*%
%ADD16R,0.18110X0.02756*%
%ADD17R,0.10827X0.07874*%
%ADD18R,0.25000X0.10000*%
%ADD19R,0.25000X0.17500*%
%ADD20R,0.06299X0.07480*%
%ADD21R,0.04331X0.05512*%
%ADD22R,0.07480X0.06299*%
%ADD23R,0.07480X0.07087*%
%ADD24R,0.07480X0.07480*%
%ADD25R,0.06299X0.08268*%
%ADD26R,0.05315X0.01575*%
%ADD27R,0.05512X0.03937*%
D10*
X0092860Y0019833D03*
X0100340Y0019833D03*
X0100340Y0049833D03*
X0092860Y0049833D03*
X0165360Y0119833D03*
X0172840Y0119833D03*
X0209110Y0143583D03*
X0216590Y0143583D03*
X0216590Y0152333D03*
X0209110Y0152333D03*
X0144090Y0152333D03*
X0136610Y0152333D03*
X0126590Y0127333D03*
X0119110Y0127333D03*
X0210360Y0073583D03*
X0217840Y0073583D03*
X0217840Y0064833D03*
X0210360Y0064833D03*
D11*
X0156600Y0054823D03*
X0156600Y0047343D03*
X0096600Y0101093D03*
X0096600Y0108573D03*
D12*
X0135626Y0136093D03*
X0135626Y0139833D03*
X0135626Y0143573D03*
X0145074Y0143573D03*
X0145074Y0136093D03*
X0208126Y0136073D03*
X0208126Y0132333D03*
X0208126Y0128593D03*
X0217574Y0128593D03*
X0217574Y0136073D03*
X0218824Y0057323D03*
X0209376Y0057323D03*
X0209376Y0053583D03*
X0209376Y0049843D03*
X0218824Y0049843D03*
D13*
X0194100Y0040060D03*
X0189100Y0040060D03*
X0184100Y0040060D03*
X0179100Y0040060D03*
X0174100Y0040060D03*
X0169100Y0040060D03*
X0164100Y0040060D03*
X0164100Y0062107D03*
X0169100Y0062107D03*
X0174100Y0062107D03*
X0179100Y0062107D03*
X0184100Y0062107D03*
X0189100Y0062107D03*
X0194100Y0062107D03*
D14*
X0182850Y0129203D03*
X0177850Y0129203D03*
X0172850Y0129203D03*
X0167850Y0129203D03*
X0167850Y0150463D03*
X0172850Y0150463D03*
X0177850Y0150463D03*
X0182850Y0150463D03*
D15*
X0092850Y0040739D03*
X0092850Y0034833D03*
X0092850Y0028928D03*
D16*
X0099740Y0034833D03*
D17*
X0103283Y0034833D03*
D18*
X0076600Y0108583D03*
X0239100Y0128583D03*
X0239100Y0042333D03*
D19*
X0239100Y0022333D03*
X0239100Y0062333D03*
X0239100Y0108583D03*
X0239100Y0148583D03*
X0076600Y0128583D03*
X0076600Y0088583D03*
D20*
X0096748Y0127333D03*
X0108952Y0127333D03*
D21*
X0135655Y0127333D03*
X0142545Y0127333D03*
X0126295Y0152333D03*
X0119405Y0152333D03*
D22*
X0212850Y0114686D03*
X0212850Y0102481D03*
X0214100Y0037186D03*
X0214100Y0024981D03*
D23*
X0072309Y0021123D03*
X0072309Y0051044D03*
D24*
X0072309Y0040808D03*
X0072309Y0031359D03*
D25*
X0083135Y0023878D03*
X0083135Y0048288D03*
D26*
X0083628Y0041201D03*
X0083628Y0038642D03*
X0083628Y0036083D03*
X0083628Y0033524D03*
X0083628Y0030965D03*
D27*
X0127181Y0136093D03*
X0118519Y0139833D03*
X0127181Y0143573D03*
M02*
