%
M48
M72
T01C0.0217
T02C0.0315
T03C0.0394
T04C0.1260
%
T01
X7160Y1358
X8285Y1608
X8910Y1233
X10535Y1983
X10910Y1233
X12910Y1233
X14910Y1233
X16910Y1233
X18910Y1233
X20910Y1233
X23160Y1608
X23910Y1608
X24660Y1608
X24660Y2858
X23910Y2858
X23160Y2858
X20410Y4983
X19410Y4608
X17910Y5608
X17410Y4608
X15910Y4233
X15410Y4233
X11160Y3733
X11160Y3233
X10535Y4983
X8285Y5608
X7285Y5858
X6910Y6608
X6910Y8233
X7660Y8233
X8410Y8233
X8410Y9483
X7660Y9483
X6910Y9483
X6910Y12233
X7660Y12233
X8410Y12233
X8410Y13483
X7660Y13483
X6910Y13483
X6910Y14608
X6910Y16108
X8910Y16108
X10910Y16108
X12910Y16108
X15285Y15358
X16285Y15233
X16910Y14483
X18285Y14358
X20410Y14233
X20410Y15233
X23160Y15483
X23910Y15483
X24660Y15483
X24660Y14233
X23910Y14233
X23160Y14233
X20410Y12483
X18035Y12358
X17660Y11358
X16035Y11733
X16035Y12233
X14035Y13358
X15285Y10233
X17035Y8108
X20535Y7358
X20535Y6358
X23160Y6858
X23910Y6858
X24660Y6858
X24660Y5608
X23910Y5608
X23160Y5608
X24535Y8483
X24660Y10233
X23910Y10233
X23160Y10233
X23160Y11483
X23910Y11483
X24660Y11483
T02
X14035Y7358
X14035Y5983
X12660Y5983
X10535Y10108
X10535Y11483
X11910Y11483
T03
X12285Y4483
X12285Y3483
X12285Y2483
T04
X10285Y8733
X14285Y8733
M30
