G75*
%MOIN*%
%OFA0B0*%
%FSLAX25Y25*%
%IPPOS*%
%LPD*%
%AMOC8*
5,1,8,0,0,1.08239X$1,22.5*
%
%ADD10OC8,0.06600*%
%ADD11OC8,0.07600*%
%ADD12C,0.00300*%
%ADD13C,0.03565*%
%ADD14C,0.01600*%
D10*
X0126600Y0059833D03*
X0140350Y0059833D03*
X0140350Y0073583D03*
X0105350Y0101083D03*
X0105350Y0114833D03*
X0119100Y0114833D03*
D11*
X0122850Y0044833D03*
X0122850Y0034833D03*
X0122850Y0024833D03*
D12*
X0065750Y0008983D02*
X0065750Y0164384D01*
X0249871Y0164384D01*
X0249871Y0008983D01*
X0065750Y0008983D01*
X0065750Y0009124D02*
X0249871Y0009124D01*
X0249871Y0009423D02*
X0065750Y0009423D01*
X0065750Y0009721D02*
X0249871Y0009721D01*
X0249871Y0010020D02*
X0065750Y0010020D01*
X0065750Y0010318D02*
X0249871Y0010318D01*
X0249871Y0010617D02*
X0065750Y0010617D01*
X0065750Y0010915D02*
X0249871Y0010915D01*
X0249871Y0011214D02*
X0065750Y0011214D01*
X0065750Y0011512D02*
X0249871Y0011512D01*
X0249871Y0011811D02*
X0065750Y0011811D01*
X0065750Y0012109D02*
X0249871Y0012109D01*
X0249871Y0012408D02*
X0065750Y0012408D01*
X0065750Y0012706D02*
X0249871Y0012706D01*
X0249871Y0013005D02*
X0065750Y0013005D01*
X0065750Y0013303D02*
X0249871Y0013303D01*
X0249871Y0013602D02*
X0065750Y0013602D01*
X0065750Y0013900D02*
X0249871Y0013900D01*
X0249871Y0014199D02*
X0065750Y0014199D01*
X0065750Y0014497D02*
X0249871Y0014497D01*
X0249871Y0014796D02*
X0065750Y0014796D01*
X0065750Y0015094D02*
X0249871Y0015094D01*
X0249871Y0015393D02*
X0065750Y0015393D01*
X0065750Y0015692D02*
X0249871Y0015692D01*
X0249871Y0015990D02*
X0065750Y0015990D01*
X0065750Y0016289D02*
X0249871Y0016289D01*
X0249871Y0016587D02*
X0065750Y0016587D01*
X0065750Y0016886D02*
X0249871Y0016886D01*
X0249871Y0017184D02*
X0065750Y0017184D01*
X0065750Y0017483D02*
X0249871Y0017483D01*
X0249871Y0017781D02*
X0065750Y0017781D01*
X0065750Y0018080D02*
X0249871Y0018080D01*
X0249871Y0018378D02*
X0065750Y0018378D01*
X0065750Y0018677D02*
X0249871Y0018677D01*
X0249871Y0018975D02*
X0065750Y0018975D01*
X0065750Y0019274D02*
X0249871Y0019274D01*
X0249871Y0019572D02*
X0065750Y0019572D01*
X0065750Y0019871D02*
X0249871Y0019871D01*
X0249871Y0020169D02*
X0065750Y0020169D01*
X0065750Y0020468D02*
X0249871Y0020468D01*
X0249871Y0020766D02*
X0065750Y0020766D01*
X0065750Y0021065D02*
X0249871Y0021065D01*
X0249871Y0021363D02*
X0065750Y0021363D01*
X0065750Y0021662D02*
X0249871Y0021662D01*
X0249871Y0021960D02*
X0065750Y0021960D01*
X0065750Y0022259D02*
X0249871Y0022259D01*
X0249871Y0022557D02*
X0065750Y0022557D01*
X0065750Y0022856D02*
X0249871Y0022856D01*
X0249871Y0023154D02*
X0065750Y0023154D01*
X0065750Y0023453D02*
X0249871Y0023453D01*
X0249871Y0023751D02*
X0065750Y0023751D01*
X0065750Y0024050D02*
X0249871Y0024050D01*
X0249871Y0024348D02*
X0065750Y0024348D01*
X0065750Y0024647D02*
X0249871Y0024647D01*
X0249871Y0024945D02*
X0065750Y0024945D01*
X0065750Y0025244D02*
X0249871Y0025244D01*
X0249871Y0025542D02*
X0065750Y0025542D01*
X0065750Y0025841D02*
X0249871Y0025841D01*
X0249871Y0026139D02*
X0065750Y0026139D01*
X0065750Y0026438D02*
X0249871Y0026438D01*
X0249871Y0026736D02*
X0065750Y0026736D01*
X0065750Y0027035D02*
X0249871Y0027035D01*
X0249871Y0027333D02*
X0065750Y0027333D01*
X0065750Y0027632D02*
X0249871Y0027632D01*
X0249871Y0027930D02*
X0065750Y0027930D01*
X0065750Y0028229D02*
X0249871Y0028229D01*
X0249871Y0028527D02*
X0065750Y0028527D01*
X0065750Y0028826D02*
X0249871Y0028826D01*
X0249871Y0029125D02*
X0065750Y0029125D01*
X0065750Y0029423D02*
X0249871Y0029423D01*
X0249871Y0029722D02*
X0065750Y0029722D01*
X0065750Y0030020D02*
X0249871Y0030020D01*
X0249871Y0030319D02*
X0124770Y0030319D01*
X0124735Y0030283D02*
X0127400Y0032949D01*
X0127400Y0036718D01*
X0124735Y0039383D01*
X0120965Y0039383D01*
X0118300Y0036718D01*
X0118300Y0032949D01*
X0120965Y0030283D01*
X0124735Y0030283D01*
X0125069Y0030617D02*
X0249871Y0030617D01*
X0249871Y0030916D02*
X0125367Y0030916D01*
X0125666Y0031214D02*
X0249871Y0031214D01*
X0249871Y0031513D02*
X0125964Y0031513D01*
X0126263Y0031811D02*
X0249871Y0031811D01*
X0249871Y0032110D02*
X0126561Y0032110D01*
X0126860Y0032408D02*
X0249871Y0032408D01*
X0249871Y0032707D02*
X0127158Y0032707D01*
X0127400Y0033005D02*
X0249871Y0033005D01*
X0249871Y0033304D02*
X0127400Y0033304D01*
X0127400Y0033602D02*
X0249871Y0033602D01*
X0249871Y0033901D02*
X0127400Y0033901D01*
X0127400Y0034199D02*
X0249871Y0034199D01*
X0249871Y0034498D02*
X0127400Y0034498D01*
X0127400Y0034796D02*
X0249871Y0034796D01*
X0249871Y0035095D02*
X0127400Y0035095D01*
X0127400Y0035393D02*
X0249871Y0035393D01*
X0249871Y0035692D02*
X0127400Y0035692D01*
X0127400Y0035990D02*
X0249871Y0035990D01*
X0249871Y0036289D02*
X0127400Y0036289D01*
X0127400Y0036587D02*
X0249871Y0036587D01*
X0249871Y0036886D02*
X0127232Y0036886D01*
X0126934Y0037184D02*
X0249871Y0037184D01*
X0249871Y0037483D02*
X0126635Y0037483D01*
X0126336Y0037781D02*
X0249871Y0037781D01*
X0249871Y0038080D02*
X0126038Y0038080D01*
X0125739Y0038378D02*
X0249871Y0038378D01*
X0249871Y0038677D02*
X0125441Y0038677D01*
X0125142Y0038975D02*
X0249871Y0038975D01*
X0249871Y0039274D02*
X0124844Y0039274D01*
X0124735Y0040283D02*
X0127400Y0042949D01*
X0127400Y0046718D01*
X0124735Y0049383D01*
X0120965Y0049383D01*
X0118300Y0046718D01*
X0118300Y0042949D01*
X0120965Y0040283D01*
X0124735Y0040283D01*
X0124919Y0040468D02*
X0249871Y0040468D01*
X0249871Y0040766D02*
X0125218Y0040766D01*
X0125516Y0041065D02*
X0249871Y0041065D01*
X0249871Y0041363D02*
X0125815Y0041363D01*
X0126113Y0041662D02*
X0249871Y0041662D01*
X0249871Y0041961D02*
X0126412Y0041961D01*
X0126710Y0042259D02*
X0249871Y0042259D01*
X0249871Y0042558D02*
X0127009Y0042558D01*
X0127308Y0042856D02*
X0249871Y0042856D01*
X0249871Y0043155D02*
X0127400Y0043155D01*
X0127400Y0043453D02*
X0249871Y0043453D01*
X0249871Y0043752D02*
X0175089Y0043752D01*
X0175535Y0043936D02*
X0176247Y0044649D01*
X0176633Y0045579D01*
X0176633Y0046587D01*
X0176247Y0047518D01*
X0175650Y0048115D01*
X0175650Y0050441D01*
X0178759Y0053551D01*
X0179604Y0053551D01*
X0180535Y0053936D01*
X0181247Y0054649D01*
X0181633Y0055579D01*
X0181633Y0056587D01*
X0181247Y0057518D01*
X0180650Y0058115D01*
X0180650Y0072975D01*
X0179742Y0073883D01*
X0172883Y0080743D01*
X0172883Y0081587D01*
X0172497Y0082518D01*
X0171785Y0083230D01*
X0170854Y0083616D01*
X0169846Y0083616D01*
X0168915Y0083230D01*
X0168203Y0082518D01*
X0167817Y0081587D01*
X0167817Y0080579D01*
X0168203Y0079649D01*
X0168915Y0078936D01*
X0169846Y0078551D01*
X0170691Y0078551D01*
X0177550Y0071691D01*
X0177550Y0058115D01*
X0176953Y0057518D01*
X0176567Y0056587D01*
X0176567Y0055743D01*
X0172550Y0051725D01*
X0172550Y0048115D01*
X0171953Y0047518D01*
X0171567Y0046587D01*
X0171567Y0045579D01*
X0171953Y0044649D01*
X0172665Y0043936D01*
X0173596Y0043551D01*
X0174604Y0043551D01*
X0175535Y0043936D01*
X0175649Y0044050D02*
X0249871Y0044050D01*
X0249871Y0044349D02*
X0175947Y0044349D01*
X0176246Y0044647D02*
X0249871Y0044647D01*
X0249871Y0044946D02*
X0176370Y0044946D01*
X0176494Y0045244D02*
X0249871Y0045244D01*
X0249871Y0045543D02*
X0176617Y0045543D01*
X0176633Y0045841D02*
X0249871Y0045841D01*
X0249871Y0046140D02*
X0176633Y0046140D01*
X0176633Y0046438D02*
X0249871Y0046438D01*
X0249871Y0046737D02*
X0176571Y0046737D01*
X0176447Y0047035D02*
X0249871Y0047035D01*
X0249871Y0047334D02*
X0176323Y0047334D01*
X0176133Y0047632D02*
X0249871Y0047632D01*
X0249871Y0047931D02*
X0175834Y0047931D01*
X0175650Y0048229D02*
X0249871Y0048229D01*
X0249871Y0048528D02*
X0175650Y0048528D01*
X0175650Y0048826D02*
X0249871Y0048826D01*
X0249871Y0049125D02*
X0175650Y0049125D01*
X0175650Y0049423D02*
X0249871Y0049423D01*
X0249871Y0049722D02*
X0175650Y0049722D01*
X0175650Y0050020D02*
X0249871Y0050020D01*
X0249871Y0050319D02*
X0175650Y0050319D01*
X0175826Y0050617D02*
X0249871Y0050617D01*
X0249871Y0050916D02*
X0176125Y0050916D01*
X0176423Y0051214D02*
X0249871Y0051214D01*
X0249871Y0051513D02*
X0176722Y0051513D01*
X0177020Y0051811D02*
X0249871Y0051811D01*
X0249871Y0052110D02*
X0177319Y0052110D01*
X0177617Y0052408D02*
X0249871Y0052408D01*
X0249871Y0052707D02*
X0177916Y0052707D01*
X0178214Y0053005D02*
X0249871Y0053005D01*
X0249871Y0053304D02*
X0178513Y0053304D01*
X0179729Y0053602D02*
X0249871Y0053602D01*
X0249871Y0053901D02*
X0180450Y0053901D01*
X0180798Y0054199D02*
X0249871Y0054199D01*
X0249871Y0054498D02*
X0181097Y0054498D01*
X0181308Y0054796D02*
X0249871Y0054796D01*
X0249871Y0055095D02*
X0181432Y0055095D01*
X0181556Y0055394D02*
X0249871Y0055394D01*
X0249871Y0055692D02*
X0181633Y0055692D01*
X0181633Y0055991D02*
X0249871Y0055991D01*
X0249871Y0056289D02*
X0181633Y0056289D01*
X0181632Y0056588D02*
X0249871Y0056588D01*
X0249871Y0056886D02*
X0181509Y0056886D01*
X0181385Y0057185D02*
X0249871Y0057185D01*
X0249871Y0057483D02*
X0181261Y0057483D01*
X0180983Y0057782D02*
X0249871Y0057782D01*
X0249871Y0058080D02*
X0180685Y0058080D01*
X0180650Y0058379D02*
X0249871Y0058379D01*
X0249871Y0058677D02*
X0180650Y0058677D01*
X0180650Y0058976D02*
X0249871Y0058976D01*
X0249871Y0059274D02*
X0180650Y0059274D01*
X0180650Y0059573D02*
X0249871Y0059573D01*
X0249871Y0059871D02*
X0180650Y0059871D01*
X0180650Y0060170D02*
X0249871Y0060170D01*
X0249871Y0060468D02*
X0180650Y0060468D01*
X0180650Y0060767D02*
X0249871Y0060767D01*
X0249871Y0061065D02*
X0180650Y0061065D01*
X0180650Y0061364D02*
X0249871Y0061364D01*
X0249871Y0061662D02*
X0180650Y0061662D01*
X0180650Y0061961D02*
X0249871Y0061961D01*
X0249871Y0062259D02*
X0180650Y0062259D01*
X0180650Y0062558D02*
X0249871Y0062558D01*
X0249871Y0062856D02*
X0180650Y0062856D01*
X0180650Y0063155D02*
X0249871Y0063155D01*
X0249871Y0063453D02*
X0180650Y0063453D01*
X0180650Y0063752D02*
X0249871Y0063752D01*
X0249871Y0064050D02*
X0180650Y0064050D01*
X0180650Y0064349D02*
X0249871Y0064349D01*
X0249871Y0064647D02*
X0180650Y0064647D01*
X0180650Y0064946D02*
X0249871Y0064946D01*
X0249871Y0065244D02*
X0180650Y0065244D01*
X0180650Y0065543D02*
X0249871Y0065543D01*
X0249871Y0065841D02*
X0180650Y0065841D01*
X0180650Y0066140D02*
X0249871Y0066140D01*
X0249871Y0066438D02*
X0180650Y0066438D01*
X0180650Y0066737D02*
X0249871Y0066737D01*
X0249871Y0067035D02*
X0180650Y0067035D01*
X0180650Y0067334D02*
X0249871Y0067334D01*
X0249871Y0067632D02*
X0180650Y0067632D01*
X0180650Y0067931D02*
X0249871Y0067931D01*
X0249871Y0068230D02*
X0180650Y0068230D01*
X0180650Y0068528D02*
X0249871Y0068528D01*
X0249871Y0068827D02*
X0180650Y0068827D01*
X0180650Y0069125D02*
X0249871Y0069125D01*
X0249871Y0069424D02*
X0180650Y0069424D01*
X0180650Y0069722D02*
X0249871Y0069722D01*
X0249871Y0070021D02*
X0180650Y0070021D01*
X0180650Y0070319D02*
X0249871Y0070319D01*
X0249871Y0070618D02*
X0180650Y0070618D01*
X0180650Y0070916D02*
X0249871Y0070916D01*
X0249871Y0071215D02*
X0180650Y0071215D01*
X0180650Y0071513D02*
X0249871Y0071513D01*
X0249871Y0071812D02*
X0180650Y0071812D01*
X0180650Y0072110D02*
X0249871Y0072110D01*
X0249871Y0072409D02*
X0180650Y0072409D01*
X0180650Y0072707D02*
X0249871Y0072707D01*
X0249871Y0073006D02*
X0180620Y0073006D01*
X0180321Y0073304D02*
X0249871Y0073304D01*
X0249871Y0073603D02*
X0180023Y0073603D01*
X0179724Y0073901D02*
X0249871Y0073901D01*
X0249871Y0074200D02*
X0179425Y0074200D01*
X0179127Y0074498D02*
X0249871Y0074498D01*
X0249871Y0074797D02*
X0178828Y0074797D01*
X0178530Y0075095D02*
X0249871Y0075095D01*
X0249871Y0075394D02*
X0178231Y0075394D01*
X0177933Y0075692D02*
X0249871Y0075692D01*
X0249871Y0075991D02*
X0177634Y0075991D01*
X0177336Y0076289D02*
X0249871Y0076289D01*
X0249871Y0076588D02*
X0177037Y0076588D01*
X0176739Y0076886D02*
X0249871Y0076886D01*
X0249871Y0077185D02*
X0176440Y0077185D01*
X0176142Y0077483D02*
X0249871Y0077483D01*
X0249871Y0077782D02*
X0175843Y0077782D01*
X0175545Y0078080D02*
X0249871Y0078080D01*
X0249871Y0078379D02*
X0175246Y0078379D01*
X0174948Y0078677D02*
X0249871Y0078677D01*
X0249871Y0078976D02*
X0174649Y0078976D01*
X0174351Y0079274D02*
X0249871Y0079274D01*
X0249871Y0079573D02*
X0174052Y0079573D01*
X0173754Y0079871D02*
X0249871Y0079871D01*
X0249871Y0080170D02*
X0173455Y0080170D01*
X0173157Y0080468D02*
X0249871Y0080468D01*
X0249871Y0080767D02*
X0172883Y0080767D01*
X0172883Y0081065D02*
X0249871Y0081065D01*
X0249871Y0081364D02*
X0172883Y0081364D01*
X0172851Y0081663D02*
X0249871Y0081663D01*
X0249871Y0081961D02*
X0172728Y0081961D01*
X0172604Y0082260D02*
X0249871Y0082260D01*
X0249871Y0082558D02*
X0172457Y0082558D01*
X0172158Y0082857D02*
X0249871Y0082857D01*
X0249871Y0083155D02*
X0171860Y0083155D01*
X0171246Y0083454D02*
X0249871Y0083454D01*
X0249871Y0083752D02*
X0149971Y0083752D01*
X0149847Y0083454D02*
X0169454Y0083454D01*
X0168840Y0083155D02*
X0149724Y0083155D01*
X0149600Y0082857D02*
X0168542Y0082857D01*
X0168243Y0082558D02*
X0149317Y0082558D01*
X0149589Y0082830D02*
X0150799Y0085752D01*
X0150799Y0088914D01*
X0149589Y0091836D01*
X0147353Y0094072D01*
X0144431Y0095282D01*
X0141269Y0095282D01*
X0138347Y0094072D01*
X0136111Y0091836D01*
X0134901Y0088914D01*
X0134901Y0085752D01*
X0136111Y0082830D01*
X0138347Y0080594D01*
X0141269Y0079384D01*
X0144431Y0079384D01*
X0147353Y0080594D01*
X0149589Y0082830D01*
X0149018Y0082260D02*
X0168096Y0082260D01*
X0167972Y0081961D02*
X0148720Y0081961D01*
X0148421Y0081663D02*
X0167849Y0081663D01*
X0167817Y0081364D02*
X0148123Y0081364D01*
X0147824Y0081065D02*
X0167817Y0081065D01*
X0167817Y0080767D02*
X0147526Y0080767D01*
X0147049Y0080468D02*
X0167863Y0080468D01*
X0167987Y0080170D02*
X0146329Y0080170D01*
X0145608Y0079871D02*
X0168111Y0079871D01*
X0168279Y0079573D02*
X0144887Y0079573D01*
X0142177Y0077483D02*
X0171758Y0077483D01*
X0172056Y0077185D02*
X0142476Y0077185D01*
X0142774Y0076886D02*
X0172355Y0076886D01*
X0172653Y0076588D02*
X0143073Y0076588D01*
X0143371Y0076289D02*
X0172952Y0076289D01*
X0173250Y0075991D02*
X0143670Y0075991D01*
X0143968Y0075692D02*
X0173549Y0075692D01*
X0173847Y0075394D02*
X0144267Y0075394D01*
X0144400Y0075261D02*
X0142028Y0077633D01*
X0138672Y0077633D01*
X0136300Y0075261D01*
X0136300Y0071906D01*
X0138672Y0069533D01*
X0142028Y0069533D01*
X0144400Y0071906D01*
X0144400Y0075261D01*
X0144400Y0075095D02*
X0174146Y0075095D01*
X0174444Y0074797D02*
X0144400Y0074797D01*
X0144400Y0074498D02*
X0174743Y0074498D01*
X0175041Y0074200D02*
X0144400Y0074200D01*
X0144400Y0073901D02*
X0175340Y0073901D01*
X0175638Y0073603D02*
X0144400Y0073603D01*
X0144400Y0073304D02*
X0175937Y0073304D01*
X0176235Y0073006D02*
X0144400Y0073006D01*
X0144400Y0072707D02*
X0176534Y0072707D01*
X0176832Y0072409D02*
X0144400Y0072409D01*
X0144400Y0072110D02*
X0177131Y0072110D01*
X0177430Y0071812D02*
X0144306Y0071812D01*
X0144007Y0071513D02*
X0177550Y0071513D01*
X0177550Y0071215D02*
X0143709Y0071215D01*
X0143410Y0070916D02*
X0177550Y0070916D01*
X0177550Y0070618D02*
X0143112Y0070618D01*
X0142813Y0070319D02*
X0177550Y0070319D01*
X0177550Y0070021D02*
X0142515Y0070021D01*
X0142216Y0069722D02*
X0177550Y0069722D01*
X0177550Y0069424D02*
X0065750Y0069424D01*
X0065750Y0069722D02*
X0138484Y0069722D01*
X0138185Y0070021D02*
X0065750Y0070021D01*
X0065750Y0070319D02*
X0137887Y0070319D01*
X0137588Y0070618D02*
X0065750Y0070618D01*
X0065750Y0070916D02*
X0137290Y0070916D01*
X0136991Y0071215D02*
X0065750Y0071215D01*
X0065750Y0071513D02*
X0136692Y0071513D01*
X0136394Y0071812D02*
X0065750Y0071812D01*
X0065750Y0072110D02*
X0136300Y0072110D01*
X0136300Y0072409D02*
X0065750Y0072409D01*
X0065750Y0072707D02*
X0136300Y0072707D01*
X0136300Y0073006D02*
X0065750Y0073006D01*
X0065750Y0073304D02*
X0136300Y0073304D01*
X0136300Y0073603D02*
X0065750Y0073603D01*
X0065750Y0073901D02*
X0136300Y0073901D01*
X0136300Y0074200D02*
X0065750Y0074200D01*
X0065750Y0074498D02*
X0136300Y0074498D01*
X0136300Y0074797D02*
X0065750Y0074797D01*
X0065750Y0075095D02*
X0136300Y0075095D01*
X0136433Y0075394D02*
X0065750Y0075394D01*
X0065750Y0075692D02*
X0136732Y0075692D01*
X0137030Y0075991D02*
X0065750Y0075991D01*
X0065750Y0076289D02*
X0137329Y0076289D01*
X0137627Y0076588D02*
X0065750Y0076588D01*
X0065750Y0076886D02*
X0137926Y0076886D01*
X0138224Y0077185D02*
X0065750Y0077185D01*
X0065750Y0077483D02*
X0138523Y0077483D01*
X0139371Y0080170D02*
X0106329Y0080170D01*
X0107049Y0080468D02*
X0138651Y0080468D01*
X0138174Y0080767D02*
X0107526Y0080767D01*
X0107353Y0080594D02*
X0109589Y0082830D01*
X0110799Y0085752D01*
X0110799Y0088914D01*
X0109589Y0091836D01*
X0107353Y0094072D01*
X0104431Y0095282D01*
X0101269Y0095282D01*
X0098347Y0094072D01*
X0096111Y0091836D01*
X0094901Y0088914D01*
X0094901Y0085752D01*
X0096111Y0082830D01*
X0098347Y0080594D01*
X0101269Y0079384D01*
X0104431Y0079384D01*
X0107353Y0080594D01*
X0107824Y0081065D02*
X0137876Y0081065D01*
X0137577Y0081364D02*
X0108123Y0081364D01*
X0108421Y0081663D02*
X0137279Y0081663D01*
X0136980Y0081961D02*
X0108720Y0081961D01*
X0109018Y0082260D02*
X0136682Y0082260D01*
X0136383Y0082558D02*
X0109317Y0082558D01*
X0109600Y0082857D02*
X0136100Y0082857D01*
X0135976Y0083155D02*
X0109724Y0083155D01*
X0109847Y0083454D02*
X0135853Y0083454D01*
X0135729Y0083752D02*
X0109971Y0083752D01*
X0110094Y0084051D02*
X0135606Y0084051D01*
X0135482Y0084349D02*
X0110218Y0084349D01*
X0110342Y0084648D02*
X0135358Y0084648D01*
X0135235Y0084946D02*
X0110465Y0084946D01*
X0110589Y0085245D02*
X0135111Y0085245D01*
X0134987Y0085543D02*
X0110713Y0085543D01*
X0110799Y0085842D02*
X0134901Y0085842D01*
X0134901Y0086140D02*
X0110799Y0086140D01*
X0110799Y0086439D02*
X0134901Y0086439D01*
X0134901Y0086737D02*
X0110799Y0086737D01*
X0110799Y0087036D02*
X0134901Y0087036D01*
X0134901Y0087334D02*
X0110799Y0087334D01*
X0110799Y0087633D02*
X0134901Y0087633D01*
X0134901Y0087931D02*
X0110799Y0087931D01*
X0110799Y0088230D02*
X0134901Y0088230D01*
X0134901Y0088528D02*
X0110799Y0088528D01*
X0110799Y0088827D02*
X0134901Y0088827D01*
X0134988Y0089125D02*
X0110712Y0089125D01*
X0110588Y0089424D02*
X0135112Y0089424D01*
X0135235Y0089722D02*
X0110465Y0089722D01*
X0110341Y0090021D02*
X0135359Y0090021D01*
X0135483Y0090319D02*
X0110217Y0090319D01*
X0110094Y0090618D02*
X0135606Y0090618D01*
X0135730Y0090916D02*
X0109970Y0090916D01*
X0109846Y0091215D02*
X0135854Y0091215D01*
X0135977Y0091513D02*
X0109723Y0091513D01*
X0109599Y0091812D02*
X0136101Y0091812D01*
X0136385Y0092110D02*
X0109315Y0092110D01*
X0109016Y0092409D02*
X0136684Y0092409D01*
X0136982Y0092707D02*
X0108718Y0092707D01*
X0108419Y0093006D02*
X0137281Y0093006D01*
X0137579Y0093304D02*
X0108121Y0093304D01*
X0107822Y0093603D02*
X0137878Y0093603D01*
X0138176Y0093901D02*
X0107524Y0093901D01*
X0107044Y0094200D02*
X0138656Y0094200D01*
X0139376Y0094498D02*
X0106324Y0094498D01*
X0105603Y0094797D02*
X0140097Y0094797D01*
X0140818Y0095096D02*
X0104882Y0095096D01*
X0103672Y0097033D02*
X0107028Y0097033D01*
X0109400Y0099406D01*
X0109400Y0102761D01*
X0107028Y0105133D01*
X0103672Y0105133D01*
X0101300Y0102761D01*
X0101300Y0099406D01*
X0103672Y0097033D01*
X0103521Y0097185D02*
X0065750Y0097185D01*
X0065750Y0096887D02*
X0249871Y0096887D01*
X0249871Y0097185D02*
X0107179Y0097185D01*
X0107478Y0097484D02*
X0249871Y0097484D01*
X0249871Y0097782D02*
X0107776Y0097782D01*
X0108075Y0098081D02*
X0249871Y0098081D01*
X0249871Y0098379D02*
X0108374Y0098379D01*
X0108672Y0098678D02*
X0249871Y0098678D01*
X0249871Y0098976D02*
X0108971Y0098976D01*
X0109269Y0099275D02*
X0249871Y0099275D01*
X0249871Y0099573D02*
X0109400Y0099573D01*
X0109400Y0099872D02*
X0152174Y0099872D01*
X0152346Y0099801D02*
X0153354Y0099801D01*
X0154285Y0100186D01*
X0154997Y0100899D01*
X0155383Y0101829D01*
X0155383Y0102674D01*
X0183492Y0130783D01*
X0184400Y0131691D01*
X0184400Y0141551D01*
X0184997Y0142149D01*
X0185383Y0143079D01*
X0185383Y0144087D01*
X0184997Y0145018D01*
X0184285Y0145730D01*
X0183354Y0146116D01*
X0182346Y0146116D01*
X0181415Y0145730D01*
X0180703Y0145018D01*
X0180317Y0144087D01*
X0180317Y0143079D01*
X0180703Y0142149D01*
X0181300Y0141551D01*
X0181300Y0132975D01*
X0153191Y0104866D01*
X0152346Y0104866D01*
X0151415Y0104480D01*
X0150703Y0103768D01*
X0150317Y0102837D01*
X0150317Y0101829D01*
X0150703Y0100899D01*
X0151415Y0100186D01*
X0152346Y0099801D01*
X0151454Y0100170D02*
X0109400Y0100170D01*
X0109400Y0100469D02*
X0151133Y0100469D01*
X0150834Y0100767D02*
X0109400Y0100767D01*
X0109400Y0101066D02*
X0150634Y0101066D01*
X0150510Y0101364D02*
X0109400Y0101364D01*
X0109400Y0101663D02*
X0150386Y0101663D01*
X0150317Y0101961D02*
X0109400Y0101961D01*
X0109400Y0102260D02*
X0150317Y0102260D01*
X0150317Y0102558D02*
X0109400Y0102558D01*
X0109304Y0102857D02*
X0150326Y0102857D01*
X0150449Y0103155D02*
X0109005Y0103155D01*
X0108707Y0103454D02*
X0150573Y0103454D01*
X0150696Y0103752D02*
X0108408Y0103752D01*
X0108110Y0104051D02*
X0150986Y0104051D01*
X0151284Y0104349D02*
X0107811Y0104349D01*
X0107513Y0104648D02*
X0151820Y0104648D01*
X0153271Y0104946D02*
X0107214Y0104946D01*
X0103486Y0104946D02*
X0065750Y0104946D01*
X0065750Y0104648D02*
X0103187Y0104648D01*
X0102889Y0104349D02*
X0065750Y0104349D01*
X0065750Y0104051D02*
X0102590Y0104051D01*
X0102292Y0103752D02*
X0065750Y0103752D01*
X0065750Y0103454D02*
X0101993Y0103454D01*
X0101695Y0103155D02*
X0065750Y0103155D01*
X0065750Y0102857D02*
X0101396Y0102857D01*
X0101300Y0102558D02*
X0065750Y0102558D01*
X0065750Y0102260D02*
X0101300Y0102260D01*
X0101300Y0101961D02*
X0065750Y0101961D01*
X0065750Y0101663D02*
X0101300Y0101663D01*
X0101300Y0101364D02*
X0065750Y0101364D01*
X0065750Y0101066D02*
X0101300Y0101066D01*
X0101300Y0100767D02*
X0065750Y0100767D01*
X0065750Y0100469D02*
X0101300Y0100469D01*
X0101300Y0100170D02*
X0065750Y0100170D01*
X0065750Y0099872D02*
X0101300Y0099872D01*
X0101300Y0099573D02*
X0065750Y0099573D01*
X0065750Y0099275D02*
X0101431Y0099275D01*
X0101729Y0098976D02*
X0065750Y0098976D01*
X0065750Y0098678D02*
X0102028Y0098678D01*
X0102326Y0098379D02*
X0065750Y0098379D01*
X0065750Y0098081D02*
X0102625Y0098081D01*
X0102923Y0097782D02*
X0065750Y0097782D01*
X0065750Y0097484D02*
X0103222Y0097484D01*
X0100818Y0095096D02*
X0065750Y0095096D01*
X0065750Y0095394D02*
X0249871Y0095394D01*
X0249871Y0095096D02*
X0144882Y0095096D01*
X0145603Y0094797D02*
X0249871Y0094797D01*
X0249871Y0094498D02*
X0146324Y0094498D01*
X0147044Y0094200D02*
X0249871Y0094200D01*
X0249871Y0093901D02*
X0147524Y0093901D01*
X0147822Y0093603D02*
X0249871Y0093603D01*
X0249871Y0093304D02*
X0148121Y0093304D01*
X0148419Y0093006D02*
X0249871Y0093006D01*
X0249871Y0092707D02*
X0148718Y0092707D01*
X0149016Y0092409D02*
X0249871Y0092409D01*
X0249871Y0092110D02*
X0149315Y0092110D01*
X0149599Y0091812D02*
X0249871Y0091812D01*
X0249871Y0091513D02*
X0149723Y0091513D01*
X0149846Y0091215D02*
X0249871Y0091215D01*
X0249871Y0090916D02*
X0149970Y0090916D01*
X0150094Y0090618D02*
X0249871Y0090618D01*
X0249871Y0090319D02*
X0150217Y0090319D01*
X0150341Y0090021D02*
X0249871Y0090021D01*
X0249871Y0089722D02*
X0150465Y0089722D01*
X0150588Y0089424D02*
X0249871Y0089424D01*
X0249871Y0089125D02*
X0150712Y0089125D01*
X0150799Y0088827D02*
X0249871Y0088827D01*
X0249871Y0088528D02*
X0150799Y0088528D01*
X0150799Y0088230D02*
X0249871Y0088230D01*
X0249871Y0087931D02*
X0150799Y0087931D01*
X0150799Y0087633D02*
X0249871Y0087633D01*
X0249871Y0087334D02*
X0150799Y0087334D01*
X0150799Y0087036D02*
X0249871Y0087036D01*
X0249871Y0086737D02*
X0150799Y0086737D01*
X0150799Y0086439D02*
X0249871Y0086439D01*
X0249871Y0086140D02*
X0150799Y0086140D01*
X0150799Y0085842D02*
X0249871Y0085842D01*
X0249871Y0085543D02*
X0150713Y0085543D01*
X0150589Y0085245D02*
X0249871Y0085245D01*
X0249871Y0084946D02*
X0150465Y0084946D01*
X0150342Y0084648D02*
X0249871Y0084648D01*
X0249871Y0084349D02*
X0150218Y0084349D01*
X0150094Y0084051D02*
X0249871Y0084051D01*
X0249871Y0095693D02*
X0065750Y0095693D01*
X0065750Y0095991D02*
X0249871Y0095991D01*
X0249871Y0096290D02*
X0065750Y0096290D01*
X0065750Y0096588D02*
X0249871Y0096588D01*
X0249871Y0099872D02*
X0153526Y0099872D01*
X0154246Y0100170D02*
X0249871Y0100170D01*
X0249871Y0100469D02*
X0154567Y0100469D01*
X0154866Y0100767D02*
X0249871Y0100767D01*
X0249871Y0101066D02*
X0155066Y0101066D01*
X0155190Y0101364D02*
X0249871Y0101364D01*
X0249871Y0101663D02*
X0155314Y0101663D01*
X0155383Y0101961D02*
X0249871Y0101961D01*
X0249871Y0102260D02*
X0155383Y0102260D01*
X0155383Y0102558D02*
X0249871Y0102558D01*
X0249871Y0102857D02*
X0155566Y0102857D01*
X0155864Y0103155D02*
X0249871Y0103155D01*
X0249871Y0103454D02*
X0156163Y0103454D01*
X0156461Y0103752D02*
X0249871Y0103752D01*
X0249871Y0104051D02*
X0156760Y0104051D01*
X0157058Y0104349D02*
X0249871Y0104349D01*
X0249871Y0104648D02*
X0157357Y0104648D01*
X0157655Y0104946D02*
X0249871Y0104946D01*
X0249871Y0105245D02*
X0157954Y0105245D01*
X0158252Y0105543D02*
X0249871Y0105543D01*
X0249871Y0105842D02*
X0158551Y0105842D01*
X0158849Y0106140D02*
X0249871Y0106140D01*
X0249871Y0106439D02*
X0159148Y0106439D01*
X0159446Y0106737D02*
X0249871Y0106737D01*
X0249871Y0107036D02*
X0159745Y0107036D01*
X0160043Y0107334D02*
X0249871Y0107334D01*
X0249871Y0107633D02*
X0160342Y0107633D01*
X0160640Y0107932D02*
X0249871Y0107932D01*
X0249871Y0108230D02*
X0160939Y0108230D01*
X0161237Y0108529D02*
X0249871Y0108529D01*
X0249871Y0108827D02*
X0161536Y0108827D01*
X0161834Y0109126D02*
X0249871Y0109126D01*
X0249871Y0109424D02*
X0162133Y0109424D01*
X0162431Y0109723D02*
X0249871Y0109723D01*
X0249871Y0110021D02*
X0162730Y0110021D01*
X0163028Y0110320D02*
X0249871Y0110320D01*
X0249871Y0110618D02*
X0163327Y0110618D01*
X0163625Y0110917D02*
X0249871Y0110917D01*
X0249871Y0111215D02*
X0163924Y0111215D01*
X0164222Y0111514D02*
X0249871Y0111514D01*
X0249871Y0111812D02*
X0164521Y0111812D01*
X0164820Y0112111D02*
X0249871Y0112111D01*
X0249871Y0112409D02*
X0165118Y0112409D01*
X0165417Y0112708D02*
X0249871Y0112708D01*
X0249871Y0113006D02*
X0165715Y0113006D01*
X0166014Y0113305D02*
X0249871Y0113305D01*
X0249871Y0113603D02*
X0166312Y0113603D01*
X0166611Y0113902D02*
X0249871Y0113902D01*
X0249871Y0114200D02*
X0166909Y0114200D01*
X0167208Y0114499D02*
X0249871Y0114499D01*
X0249871Y0114797D02*
X0167506Y0114797D01*
X0167805Y0115096D02*
X0249871Y0115096D01*
X0249871Y0115394D02*
X0168103Y0115394D01*
X0168402Y0115693D02*
X0249871Y0115693D01*
X0249871Y0115991D02*
X0168700Y0115991D01*
X0168999Y0116290D02*
X0249871Y0116290D01*
X0249871Y0116588D02*
X0169297Y0116588D01*
X0169596Y0116887D02*
X0249871Y0116887D01*
X0249871Y0117185D02*
X0169894Y0117185D01*
X0170193Y0117484D02*
X0249871Y0117484D01*
X0249871Y0117782D02*
X0170491Y0117782D01*
X0170790Y0118081D02*
X0249871Y0118081D01*
X0249871Y0118379D02*
X0171088Y0118379D01*
X0171387Y0118678D02*
X0249871Y0118678D01*
X0249871Y0118976D02*
X0171685Y0118976D01*
X0171984Y0119275D02*
X0249871Y0119275D01*
X0249871Y0119573D02*
X0172282Y0119573D01*
X0172581Y0119872D02*
X0249871Y0119872D01*
X0249871Y0120170D02*
X0172879Y0120170D01*
X0173178Y0120469D02*
X0249871Y0120469D01*
X0249871Y0120767D02*
X0173476Y0120767D01*
X0173775Y0121066D02*
X0249871Y0121066D01*
X0249871Y0121365D02*
X0174073Y0121365D01*
X0174372Y0121663D02*
X0249871Y0121663D01*
X0249871Y0121962D02*
X0174670Y0121962D01*
X0174969Y0122260D02*
X0249871Y0122260D01*
X0249871Y0122559D02*
X0175267Y0122559D01*
X0175566Y0122857D02*
X0249871Y0122857D01*
X0249871Y0123156D02*
X0175864Y0123156D01*
X0176163Y0123454D02*
X0249871Y0123454D01*
X0249871Y0123753D02*
X0176461Y0123753D01*
X0176760Y0124051D02*
X0249871Y0124051D01*
X0249871Y0124350D02*
X0177058Y0124350D01*
X0177357Y0124648D02*
X0249871Y0124648D01*
X0249871Y0124947D02*
X0177655Y0124947D01*
X0177954Y0125245D02*
X0249871Y0125245D01*
X0249871Y0125544D02*
X0178253Y0125544D01*
X0178551Y0125842D02*
X0249871Y0125842D01*
X0249871Y0126141D02*
X0178850Y0126141D01*
X0179148Y0126439D02*
X0249871Y0126439D01*
X0249871Y0126738D02*
X0179447Y0126738D01*
X0179745Y0127036D02*
X0249871Y0127036D01*
X0249871Y0127335D02*
X0180044Y0127335D01*
X0180342Y0127633D02*
X0249871Y0127633D01*
X0249871Y0127932D02*
X0180641Y0127932D01*
X0180939Y0128230D02*
X0249871Y0128230D01*
X0249871Y0128529D02*
X0181238Y0128529D01*
X0181536Y0128827D02*
X0249871Y0128827D01*
X0249871Y0129126D02*
X0181835Y0129126D01*
X0182133Y0129424D02*
X0249871Y0129424D01*
X0249871Y0129723D02*
X0182432Y0129723D01*
X0182730Y0130021D02*
X0249871Y0130021D01*
X0249871Y0130320D02*
X0183029Y0130320D01*
X0183327Y0130618D02*
X0249871Y0130618D01*
X0249871Y0130917D02*
X0183626Y0130917D01*
X0183924Y0131215D02*
X0249871Y0131215D01*
X0249871Y0131514D02*
X0184223Y0131514D01*
X0184400Y0131812D02*
X0249871Y0131812D01*
X0249871Y0132111D02*
X0184400Y0132111D01*
X0184400Y0132409D02*
X0249871Y0132409D01*
X0249871Y0132708D02*
X0184400Y0132708D01*
X0184400Y0133006D02*
X0249871Y0133006D01*
X0249871Y0133305D02*
X0184400Y0133305D01*
X0184400Y0133603D02*
X0249871Y0133603D01*
X0249871Y0133902D02*
X0184400Y0133902D01*
X0184400Y0134201D02*
X0249871Y0134201D01*
X0249871Y0134499D02*
X0184400Y0134499D01*
X0184400Y0134798D02*
X0249871Y0134798D01*
X0249871Y0135096D02*
X0184400Y0135096D01*
X0184400Y0135395D02*
X0249871Y0135395D01*
X0249871Y0135693D02*
X0184400Y0135693D01*
X0184400Y0135992D02*
X0249871Y0135992D01*
X0249871Y0136290D02*
X0184400Y0136290D01*
X0184400Y0136589D02*
X0249871Y0136589D01*
X0249871Y0136887D02*
X0184400Y0136887D01*
X0184400Y0137186D02*
X0249871Y0137186D01*
X0249871Y0137484D02*
X0184400Y0137484D01*
X0184400Y0137783D02*
X0249871Y0137783D01*
X0249871Y0138081D02*
X0184400Y0138081D01*
X0184400Y0138380D02*
X0249871Y0138380D01*
X0249871Y0138678D02*
X0184400Y0138678D01*
X0184400Y0138977D02*
X0249871Y0138977D01*
X0249871Y0139275D02*
X0184400Y0139275D01*
X0184400Y0139574D02*
X0249871Y0139574D01*
X0249871Y0139872D02*
X0184400Y0139872D01*
X0184400Y0140171D02*
X0249871Y0140171D01*
X0249871Y0140469D02*
X0184400Y0140469D01*
X0184400Y0140768D02*
X0249871Y0140768D01*
X0249871Y0141066D02*
X0184400Y0141066D01*
X0184400Y0141365D02*
X0249871Y0141365D01*
X0249871Y0141663D02*
X0184512Y0141663D01*
X0184810Y0141962D02*
X0249871Y0141962D01*
X0249871Y0142260D02*
X0185043Y0142260D01*
X0185167Y0142559D02*
X0249871Y0142559D01*
X0249871Y0142857D02*
X0185291Y0142857D01*
X0185383Y0143156D02*
X0249871Y0143156D01*
X0249871Y0143454D02*
X0185383Y0143454D01*
X0185383Y0143753D02*
X0249871Y0143753D01*
X0249871Y0144051D02*
X0185383Y0144051D01*
X0185274Y0144350D02*
X0249871Y0144350D01*
X0249871Y0144648D02*
X0185150Y0144648D01*
X0185026Y0144947D02*
X0249871Y0144947D01*
X0249871Y0145245D02*
X0184769Y0145245D01*
X0184471Y0145544D02*
X0249871Y0145544D01*
X0249871Y0145842D02*
X0184014Y0145842D01*
X0181686Y0145842D02*
X0065750Y0145842D01*
X0065750Y0145544D02*
X0181229Y0145544D01*
X0180930Y0145245D02*
X0065750Y0145245D01*
X0065750Y0144947D02*
X0180674Y0144947D01*
X0180550Y0144648D02*
X0065750Y0144648D01*
X0065750Y0144350D02*
X0180426Y0144350D01*
X0180317Y0144051D02*
X0065750Y0144051D01*
X0065750Y0143753D02*
X0180317Y0143753D01*
X0180317Y0143454D02*
X0065750Y0143454D01*
X0065750Y0143156D02*
X0180317Y0143156D01*
X0180409Y0142857D02*
X0065750Y0142857D01*
X0065750Y0142559D02*
X0180533Y0142559D01*
X0180657Y0142260D02*
X0065750Y0142260D01*
X0065750Y0141962D02*
X0180890Y0141962D01*
X0181188Y0141663D02*
X0065750Y0141663D01*
X0065750Y0141365D02*
X0181300Y0141365D01*
X0181300Y0141066D02*
X0065750Y0141066D01*
X0065750Y0140768D02*
X0181300Y0140768D01*
X0181300Y0140469D02*
X0065750Y0140469D01*
X0065750Y0140171D02*
X0181300Y0140171D01*
X0181300Y0139872D02*
X0065750Y0139872D01*
X0065750Y0139574D02*
X0181300Y0139574D01*
X0181300Y0139275D02*
X0065750Y0139275D01*
X0065750Y0138977D02*
X0181300Y0138977D01*
X0181300Y0138678D02*
X0065750Y0138678D01*
X0065750Y0138380D02*
X0181300Y0138380D01*
X0181300Y0138081D02*
X0065750Y0138081D01*
X0065750Y0137783D02*
X0181300Y0137783D01*
X0181300Y0137484D02*
X0065750Y0137484D01*
X0065750Y0137186D02*
X0181300Y0137186D01*
X0181300Y0136887D02*
X0065750Y0136887D01*
X0065750Y0136589D02*
X0181300Y0136589D01*
X0181300Y0136290D02*
X0065750Y0136290D01*
X0065750Y0135992D02*
X0181300Y0135992D01*
X0181300Y0135693D02*
X0065750Y0135693D01*
X0065750Y0135395D02*
X0181300Y0135395D01*
X0181300Y0135096D02*
X0065750Y0135096D01*
X0065750Y0134798D02*
X0181300Y0134798D01*
X0181300Y0134499D02*
X0065750Y0134499D01*
X0065750Y0134201D02*
X0181300Y0134201D01*
X0181300Y0133902D02*
X0065750Y0133902D01*
X0065750Y0133603D02*
X0181300Y0133603D01*
X0181300Y0133305D02*
X0065750Y0133305D01*
X0065750Y0133006D02*
X0181300Y0133006D01*
X0181033Y0132708D02*
X0065750Y0132708D01*
X0065750Y0132409D02*
X0180734Y0132409D01*
X0180436Y0132111D02*
X0065750Y0132111D01*
X0065750Y0131812D02*
X0180137Y0131812D01*
X0179839Y0131514D02*
X0065750Y0131514D01*
X0065750Y0131215D02*
X0179540Y0131215D01*
X0179242Y0130917D02*
X0065750Y0130917D01*
X0065750Y0130618D02*
X0178943Y0130618D01*
X0178645Y0130320D02*
X0065750Y0130320D01*
X0065750Y0130021D02*
X0178346Y0130021D01*
X0178048Y0129723D02*
X0065750Y0129723D01*
X0065750Y0129424D02*
X0177749Y0129424D01*
X0177451Y0129126D02*
X0065750Y0129126D01*
X0065750Y0128827D02*
X0177152Y0128827D01*
X0176854Y0128529D02*
X0065750Y0128529D01*
X0065750Y0128230D02*
X0176555Y0128230D01*
X0176257Y0127932D02*
X0065750Y0127932D01*
X0065750Y0127633D02*
X0175958Y0127633D01*
X0175660Y0127335D02*
X0065750Y0127335D01*
X0065750Y0127036D02*
X0175361Y0127036D01*
X0175062Y0126738D02*
X0065750Y0126738D01*
X0065750Y0126439D02*
X0174764Y0126439D01*
X0174465Y0126141D02*
X0065750Y0126141D01*
X0065750Y0125842D02*
X0174167Y0125842D01*
X0173868Y0125544D02*
X0065750Y0125544D01*
X0065750Y0125245D02*
X0173570Y0125245D01*
X0173271Y0124947D02*
X0065750Y0124947D01*
X0065750Y0124648D02*
X0172973Y0124648D01*
X0172674Y0124350D02*
X0065750Y0124350D01*
X0065750Y0124051D02*
X0172376Y0124051D01*
X0172077Y0123753D02*
X0065750Y0123753D01*
X0065750Y0123454D02*
X0171779Y0123454D01*
X0171480Y0123156D02*
X0065750Y0123156D01*
X0065750Y0122857D02*
X0171182Y0122857D01*
X0170883Y0122559D02*
X0065750Y0122559D01*
X0065750Y0122260D02*
X0170585Y0122260D01*
X0170286Y0121962D02*
X0065750Y0121962D01*
X0065750Y0121663D02*
X0169988Y0121663D01*
X0169689Y0121365D02*
X0065750Y0121365D01*
X0065750Y0121066D02*
X0169391Y0121066D01*
X0169092Y0120767D02*
X0065750Y0120767D01*
X0065750Y0120469D02*
X0168794Y0120469D01*
X0168495Y0120170D02*
X0065750Y0120170D01*
X0065750Y0119872D02*
X0168197Y0119872D01*
X0167898Y0119573D02*
X0065750Y0119573D01*
X0065750Y0119275D02*
X0167600Y0119275D01*
X0167301Y0118976D02*
X0065750Y0118976D01*
X0065750Y0118678D02*
X0103467Y0118678D01*
X0103672Y0118883D02*
X0101300Y0116511D01*
X0101300Y0113156D01*
X0103672Y0110783D01*
X0107028Y0110783D01*
X0109400Y0113156D01*
X0109400Y0116511D01*
X0107028Y0118883D01*
X0103672Y0118883D01*
X0103169Y0118379D02*
X0065750Y0118379D01*
X0065750Y0118081D02*
X0102870Y0118081D01*
X0102572Y0117782D02*
X0065750Y0117782D01*
X0065750Y0117484D02*
X0102273Y0117484D01*
X0101975Y0117185D02*
X0065750Y0117185D01*
X0065750Y0116887D02*
X0101676Y0116887D01*
X0101378Y0116588D02*
X0065750Y0116588D01*
X0065750Y0116290D02*
X0101300Y0116290D01*
X0101300Y0115991D02*
X0065750Y0115991D01*
X0065750Y0115693D02*
X0101300Y0115693D01*
X0101300Y0115394D02*
X0065750Y0115394D01*
X0065750Y0115096D02*
X0101300Y0115096D01*
X0101300Y0114797D02*
X0065750Y0114797D01*
X0065750Y0114499D02*
X0101300Y0114499D01*
X0101300Y0114200D02*
X0065750Y0114200D01*
X0065750Y0113902D02*
X0101300Y0113902D01*
X0101300Y0113603D02*
X0065750Y0113603D01*
X0065750Y0113305D02*
X0101300Y0113305D01*
X0101449Y0113006D02*
X0065750Y0113006D01*
X0065750Y0112708D02*
X0101748Y0112708D01*
X0102046Y0112409D02*
X0065750Y0112409D01*
X0065750Y0112111D02*
X0102345Y0112111D01*
X0102643Y0111812D02*
X0065750Y0111812D01*
X0065750Y0111514D02*
X0102942Y0111514D01*
X0103240Y0111215D02*
X0065750Y0111215D01*
X0065750Y0110917D02*
X0103539Y0110917D01*
X0107161Y0110917D02*
X0117289Y0110917D01*
X0117422Y0110783D02*
X0120778Y0110783D01*
X0123150Y0113156D01*
X0123150Y0116511D01*
X0120778Y0118883D01*
X0117422Y0118883D01*
X0115050Y0116511D01*
X0115050Y0113156D01*
X0117422Y0110783D01*
X0116990Y0111215D02*
X0107459Y0111215D01*
X0107758Y0111514D02*
X0116692Y0111514D01*
X0116393Y0111812D02*
X0108057Y0111812D01*
X0108355Y0112111D02*
X0116095Y0112111D01*
X0115796Y0112409D02*
X0108654Y0112409D01*
X0108952Y0112708D02*
X0115498Y0112708D01*
X0115199Y0113006D02*
X0109251Y0113006D01*
X0109400Y0113305D02*
X0115050Y0113305D01*
X0115050Y0113603D02*
X0109400Y0113603D01*
X0109400Y0113902D02*
X0115050Y0113902D01*
X0115050Y0114200D02*
X0109400Y0114200D01*
X0109400Y0114499D02*
X0115050Y0114499D01*
X0115050Y0114797D02*
X0109400Y0114797D01*
X0109400Y0115096D02*
X0115050Y0115096D01*
X0115050Y0115394D02*
X0109400Y0115394D01*
X0109400Y0115693D02*
X0115050Y0115693D01*
X0115050Y0115991D02*
X0109400Y0115991D01*
X0109400Y0116290D02*
X0115050Y0116290D01*
X0115128Y0116588D02*
X0109322Y0116588D01*
X0109024Y0116887D02*
X0115426Y0116887D01*
X0115725Y0117185D02*
X0108725Y0117185D01*
X0108427Y0117484D02*
X0116023Y0117484D01*
X0116322Y0117782D02*
X0108128Y0117782D01*
X0107830Y0118081D02*
X0116620Y0118081D01*
X0116919Y0118379D02*
X0107531Y0118379D01*
X0107233Y0118678D02*
X0117217Y0118678D01*
X0120983Y0118678D02*
X0167003Y0118678D01*
X0166704Y0118379D02*
X0121281Y0118379D01*
X0121580Y0118081D02*
X0166406Y0118081D01*
X0166107Y0117782D02*
X0121878Y0117782D01*
X0122177Y0117484D02*
X0165809Y0117484D01*
X0165510Y0117185D02*
X0122475Y0117185D01*
X0122774Y0116887D02*
X0165212Y0116887D01*
X0164913Y0116588D02*
X0123072Y0116588D01*
X0123150Y0116290D02*
X0164615Y0116290D01*
X0164316Y0115991D02*
X0123150Y0115991D01*
X0123150Y0115693D02*
X0164018Y0115693D01*
X0163719Y0115394D02*
X0123150Y0115394D01*
X0123150Y0115096D02*
X0163421Y0115096D01*
X0163122Y0114797D02*
X0123150Y0114797D01*
X0123150Y0114499D02*
X0162824Y0114499D01*
X0162525Y0114200D02*
X0123150Y0114200D01*
X0123150Y0113902D02*
X0162227Y0113902D01*
X0161928Y0113603D02*
X0123150Y0113603D01*
X0123150Y0113305D02*
X0161629Y0113305D01*
X0161331Y0113006D02*
X0123001Y0113006D01*
X0122702Y0112708D02*
X0161032Y0112708D01*
X0160734Y0112409D02*
X0122404Y0112409D01*
X0122105Y0112111D02*
X0160435Y0112111D01*
X0160137Y0111812D02*
X0121807Y0111812D01*
X0121508Y0111514D02*
X0159838Y0111514D01*
X0159540Y0111215D02*
X0121209Y0111215D01*
X0120911Y0110917D02*
X0159241Y0110917D01*
X0158943Y0110618D02*
X0065750Y0110618D01*
X0065750Y0110320D02*
X0158644Y0110320D01*
X0158346Y0110021D02*
X0065750Y0110021D01*
X0065750Y0109723D02*
X0158047Y0109723D01*
X0157749Y0109424D02*
X0065750Y0109424D01*
X0065750Y0109126D02*
X0157450Y0109126D01*
X0157152Y0108827D02*
X0065750Y0108827D01*
X0065750Y0108529D02*
X0156853Y0108529D01*
X0156555Y0108230D02*
X0065750Y0108230D01*
X0065750Y0107932D02*
X0156256Y0107932D01*
X0155958Y0107633D02*
X0065750Y0107633D01*
X0065750Y0107334D02*
X0155659Y0107334D01*
X0155361Y0107036D02*
X0065750Y0107036D01*
X0065750Y0106737D02*
X0155062Y0106737D01*
X0154764Y0106439D02*
X0065750Y0106439D01*
X0065750Y0106140D02*
X0154465Y0106140D01*
X0154167Y0105842D02*
X0065750Y0105842D01*
X0065750Y0105543D02*
X0153868Y0105543D01*
X0153570Y0105245D02*
X0065750Y0105245D01*
X0065750Y0094797D02*
X0100097Y0094797D01*
X0099376Y0094498D02*
X0065750Y0094498D01*
X0065750Y0094200D02*
X0098656Y0094200D01*
X0098176Y0093901D02*
X0065750Y0093901D01*
X0065750Y0093603D02*
X0097878Y0093603D01*
X0097579Y0093304D02*
X0065750Y0093304D01*
X0065750Y0093006D02*
X0097281Y0093006D01*
X0096982Y0092707D02*
X0065750Y0092707D01*
X0065750Y0092409D02*
X0096684Y0092409D01*
X0096385Y0092110D02*
X0065750Y0092110D01*
X0065750Y0091812D02*
X0096101Y0091812D01*
X0095977Y0091513D02*
X0065750Y0091513D01*
X0065750Y0091215D02*
X0095854Y0091215D01*
X0095730Y0090916D02*
X0065750Y0090916D01*
X0065750Y0090618D02*
X0095606Y0090618D01*
X0095483Y0090319D02*
X0065750Y0090319D01*
X0065750Y0090021D02*
X0095359Y0090021D01*
X0095235Y0089722D02*
X0065750Y0089722D01*
X0065750Y0089424D02*
X0095112Y0089424D01*
X0094988Y0089125D02*
X0065750Y0089125D01*
X0065750Y0088827D02*
X0094901Y0088827D01*
X0094901Y0088528D02*
X0065750Y0088528D01*
X0065750Y0088230D02*
X0094901Y0088230D01*
X0094901Y0087931D02*
X0065750Y0087931D01*
X0065750Y0087633D02*
X0094901Y0087633D01*
X0094901Y0087334D02*
X0065750Y0087334D01*
X0065750Y0087036D02*
X0094901Y0087036D01*
X0094901Y0086737D02*
X0065750Y0086737D01*
X0065750Y0086439D02*
X0094901Y0086439D01*
X0094901Y0086140D02*
X0065750Y0086140D01*
X0065750Y0085842D02*
X0094901Y0085842D01*
X0094987Y0085543D02*
X0065750Y0085543D01*
X0065750Y0085245D02*
X0095111Y0085245D01*
X0095235Y0084946D02*
X0065750Y0084946D01*
X0065750Y0084648D02*
X0095358Y0084648D01*
X0095482Y0084349D02*
X0065750Y0084349D01*
X0065750Y0084051D02*
X0095606Y0084051D01*
X0095729Y0083752D02*
X0065750Y0083752D01*
X0065750Y0083454D02*
X0095853Y0083454D01*
X0095976Y0083155D02*
X0065750Y0083155D01*
X0065750Y0082857D02*
X0096100Y0082857D01*
X0096383Y0082558D02*
X0065750Y0082558D01*
X0065750Y0082260D02*
X0096682Y0082260D01*
X0096980Y0081961D02*
X0065750Y0081961D01*
X0065750Y0081663D02*
X0097279Y0081663D01*
X0097577Y0081364D02*
X0065750Y0081364D01*
X0065750Y0081065D02*
X0097876Y0081065D01*
X0098174Y0080767D02*
X0065750Y0080767D01*
X0065750Y0080468D02*
X0098651Y0080468D01*
X0099371Y0080170D02*
X0065750Y0080170D01*
X0065750Y0079871D02*
X0100092Y0079871D01*
X0100813Y0079573D02*
X0065750Y0079573D01*
X0065750Y0079274D02*
X0168577Y0079274D01*
X0168876Y0078976D02*
X0065750Y0078976D01*
X0065750Y0078677D02*
X0169540Y0078677D01*
X0170862Y0078379D02*
X0065750Y0078379D01*
X0065750Y0078080D02*
X0171161Y0078080D01*
X0171459Y0077782D02*
X0065750Y0077782D01*
X0065750Y0069125D02*
X0177550Y0069125D01*
X0177550Y0068827D02*
X0065750Y0068827D01*
X0065750Y0068528D02*
X0177550Y0068528D01*
X0177550Y0068230D02*
X0065750Y0068230D01*
X0065750Y0067931D02*
X0177550Y0067931D01*
X0177550Y0067632D02*
X0065750Y0067632D01*
X0065750Y0067334D02*
X0177550Y0067334D01*
X0177550Y0067035D02*
X0065750Y0067035D01*
X0065750Y0066737D02*
X0177550Y0066737D01*
X0177550Y0066438D02*
X0065750Y0066438D01*
X0065750Y0066140D02*
X0177550Y0066140D01*
X0177550Y0065841D02*
X0065750Y0065841D01*
X0065750Y0065543D02*
X0177550Y0065543D01*
X0177550Y0065244D02*
X0065750Y0065244D01*
X0065750Y0064946D02*
X0177550Y0064946D01*
X0177550Y0064647D02*
X0065750Y0064647D01*
X0065750Y0064349D02*
X0177550Y0064349D01*
X0177550Y0064050D02*
X0065750Y0064050D01*
X0065750Y0063752D02*
X0138541Y0063752D01*
X0138672Y0063883D02*
X0136300Y0061511D01*
X0136300Y0058156D01*
X0138672Y0055783D01*
X0142028Y0055783D01*
X0144400Y0058156D01*
X0144400Y0061511D01*
X0142028Y0063883D01*
X0138672Y0063883D01*
X0138243Y0063453D02*
X0065750Y0063453D01*
X0065750Y0063155D02*
X0137944Y0063155D01*
X0137646Y0062856D02*
X0065750Y0062856D01*
X0065750Y0062558D02*
X0137347Y0062558D01*
X0137049Y0062259D02*
X0065750Y0062259D01*
X0065750Y0061961D02*
X0136750Y0061961D01*
X0136452Y0061662D02*
X0065750Y0061662D01*
X0065750Y0061364D02*
X0136300Y0061364D01*
X0136300Y0061065D02*
X0065750Y0061065D01*
X0065750Y0060767D02*
X0136300Y0060767D01*
X0136300Y0060468D02*
X0065750Y0060468D01*
X0065750Y0060170D02*
X0136300Y0060170D01*
X0136300Y0059871D02*
X0065750Y0059871D01*
X0065750Y0059573D02*
X0136300Y0059573D01*
X0136300Y0059274D02*
X0065750Y0059274D01*
X0065750Y0058976D02*
X0136300Y0058976D01*
X0136300Y0058677D02*
X0065750Y0058677D01*
X0065750Y0058379D02*
X0136300Y0058379D01*
X0136376Y0058080D02*
X0065750Y0058080D01*
X0065750Y0057782D02*
X0136674Y0057782D01*
X0136973Y0057483D02*
X0065750Y0057483D01*
X0065750Y0057185D02*
X0137271Y0057185D01*
X0137570Y0056886D02*
X0065750Y0056886D01*
X0065750Y0056588D02*
X0137868Y0056588D01*
X0138167Y0056289D02*
X0065750Y0056289D01*
X0065750Y0055991D02*
X0138465Y0055991D01*
X0142235Y0055991D02*
X0176567Y0055991D01*
X0176567Y0056289D02*
X0142533Y0056289D01*
X0142832Y0056588D02*
X0176568Y0056588D01*
X0176691Y0056886D02*
X0143130Y0056886D01*
X0143429Y0057185D02*
X0176815Y0057185D01*
X0176939Y0057483D02*
X0143727Y0057483D01*
X0144026Y0057782D02*
X0177217Y0057782D01*
X0177515Y0058080D02*
X0144324Y0058080D01*
X0144400Y0058379D02*
X0177550Y0058379D01*
X0177550Y0058677D02*
X0144400Y0058677D01*
X0144400Y0058976D02*
X0177550Y0058976D01*
X0177550Y0059274D02*
X0144400Y0059274D01*
X0144400Y0059573D02*
X0177550Y0059573D01*
X0177550Y0059871D02*
X0144400Y0059871D01*
X0144400Y0060170D02*
X0177550Y0060170D01*
X0177550Y0060468D02*
X0144400Y0060468D01*
X0144400Y0060767D02*
X0177550Y0060767D01*
X0177550Y0061065D02*
X0144400Y0061065D01*
X0144400Y0061364D02*
X0177550Y0061364D01*
X0177550Y0061662D02*
X0144248Y0061662D01*
X0143950Y0061961D02*
X0177550Y0061961D01*
X0177550Y0062259D02*
X0143651Y0062259D01*
X0143353Y0062558D02*
X0177550Y0062558D01*
X0177550Y0062856D02*
X0143054Y0062856D01*
X0142756Y0063155D02*
X0177550Y0063155D01*
X0177550Y0063453D02*
X0142457Y0063453D01*
X0142159Y0063752D02*
X0177550Y0063752D01*
X0176517Y0055692D02*
X0065750Y0055692D01*
X0065750Y0055394D02*
X0176218Y0055394D01*
X0175920Y0055095D02*
X0065750Y0055095D01*
X0065750Y0054796D02*
X0175621Y0054796D01*
X0175323Y0054498D02*
X0065750Y0054498D01*
X0065750Y0054199D02*
X0175024Y0054199D01*
X0174726Y0053901D02*
X0065750Y0053901D01*
X0065750Y0053602D02*
X0174427Y0053602D01*
X0174129Y0053304D02*
X0065750Y0053304D01*
X0065750Y0053005D02*
X0173830Y0053005D01*
X0173532Y0052707D02*
X0065750Y0052707D01*
X0065750Y0052408D02*
X0173233Y0052408D01*
X0172935Y0052110D02*
X0065750Y0052110D01*
X0065750Y0051811D02*
X0172636Y0051811D01*
X0172550Y0051513D02*
X0065750Y0051513D01*
X0065750Y0051214D02*
X0172550Y0051214D01*
X0172550Y0050916D02*
X0065750Y0050916D01*
X0065750Y0050617D02*
X0172550Y0050617D01*
X0172550Y0050319D02*
X0065750Y0050319D01*
X0065750Y0050020D02*
X0172550Y0050020D01*
X0172550Y0049722D02*
X0065750Y0049722D01*
X0065750Y0049423D02*
X0172550Y0049423D01*
X0172550Y0049125D02*
X0124993Y0049125D01*
X0125292Y0048826D02*
X0172550Y0048826D01*
X0172550Y0048528D02*
X0125590Y0048528D01*
X0125889Y0048229D02*
X0172550Y0048229D01*
X0172366Y0047931D02*
X0126187Y0047931D01*
X0126486Y0047632D02*
X0172067Y0047632D01*
X0171877Y0047334D02*
X0126784Y0047334D01*
X0127083Y0047035D02*
X0171753Y0047035D01*
X0171629Y0046737D02*
X0127381Y0046737D01*
X0127400Y0046438D02*
X0171567Y0046438D01*
X0171567Y0046140D02*
X0127400Y0046140D01*
X0127400Y0045841D02*
X0171567Y0045841D01*
X0171583Y0045543D02*
X0127400Y0045543D01*
X0127400Y0045244D02*
X0171706Y0045244D01*
X0171830Y0044946D02*
X0127400Y0044946D01*
X0127400Y0044647D02*
X0171954Y0044647D01*
X0172253Y0044349D02*
X0127400Y0044349D01*
X0127400Y0044050D02*
X0172551Y0044050D01*
X0173111Y0043752D02*
X0127400Y0043752D01*
X0120781Y0040468D02*
X0065750Y0040468D01*
X0065750Y0040766D02*
X0120482Y0040766D01*
X0120184Y0041065D02*
X0065750Y0041065D01*
X0065750Y0041363D02*
X0119885Y0041363D01*
X0119587Y0041662D02*
X0065750Y0041662D01*
X0065750Y0041961D02*
X0119288Y0041961D01*
X0118990Y0042259D02*
X0065750Y0042259D01*
X0065750Y0042558D02*
X0118691Y0042558D01*
X0118392Y0042856D02*
X0065750Y0042856D01*
X0065750Y0043155D02*
X0118300Y0043155D01*
X0118300Y0043453D02*
X0065750Y0043453D01*
X0065750Y0043752D02*
X0118300Y0043752D01*
X0118300Y0044050D02*
X0065750Y0044050D01*
X0065750Y0044349D02*
X0118300Y0044349D01*
X0118300Y0044647D02*
X0065750Y0044647D01*
X0065750Y0044946D02*
X0118300Y0044946D01*
X0118300Y0045244D02*
X0065750Y0045244D01*
X0065750Y0045543D02*
X0118300Y0045543D01*
X0118300Y0045841D02*
X0065750Y0045841D01*
X0065750Y0046140D02*
X0118300Y0046140D01*
X0118300Y0046438D02*
X0065750Y0046438D01*
X0065750Y0046737D02*
X0118319Y0046737D01*
X0118617Y0047035D02*
X0065750Y0047035D01*
X0065750Y0047334D02*
X0118916Y0047334D01*
X0119214Y0047632D02*
X0065750Y0047632D01*
X0065750Y0047931D02*
X0119513Y0047931D01*
X0119811Y0048229D02*
X0065750Y0048229D01*
X0065750Y0048528D02*
X0120110Y0048528D01*
X0120408Y0048826D02*
X0065750Y0048826D01*
X0065750Y0049125D02*
X0120707Y0049125D01*
X0120856Y0039274D02*
X0065750Y0039274D01*
X0065750Y0039572D02*
X0249871Y0039572D01*
X0249871Y0039871D02*
X0065750Y0039871D01*
X0065750Y0040169D02*
X0249871Y0040169D01*
X0140813Y0079573D02*
X0104887Y0079573D01*
X0105608Y0079871D02*
X0140092Y0079871D01*
X0120558Y0038975D02*
X0065750Y0038975D01*
X0065750Y0038677D02*
X0120259Y0038677D01*
X0119961Y0038378D02*
X0065750Y0038378D01*
X0065750Y0038080D02*
X0119662Y0038080D01*
X0119363Y0037781D02*
X0065750Y0037781D01*
X0065750Y0037483D02*
X0119065Y0037483D01*
X0118766Y0037184D02*
X0065750Y0037184D01*
X0065750Y0036886D02*
X0118468Y0036886D01*
X0118300Y0036587D02*
X0065750Y0036587D01*
X0065750Y0036289D02*
X0118300Y0036289D01*
X0118300Y0035990D02*
X0065750Y0035990D01*
X0065750Y0035692D02*
X0118300Y0035692D01*
X0118300Y0035393D02*
X0065750Y0035393D01*
X0065750Y0035095D02*
X0118300Y0035095D01*
X0118300Y0034796D02*
X0065750Y0034796D01*
X0065750Y0034498D02*
X0118300Y0034498D01*
X0118300Y0034199D02*
X0065750Y0034199D01*
X0065750Y0033901D02*
X0118300Y0033901D01*
X0118300Y0033602D02*
X0065750Y0033602D01*
X0065750Y0033304D02*
X0118300Y0033304D01*
X0118300Y0033005D02*
X0065750Y0033005D01*
X0065750Y0032707D02*
X0118542Y0032707D01*
X0118840Y0032408D02*
X0065750Y0032408D01*
X0065750Y0032110D02*
X0119139Y0032110D01*
X0119437Y0031811D02*
X0065750Y0031811D01*
X0065750Y0031513D02*
X0119736Y0031513D01*
X0120034Y0031214D02*
X0065750Y0031214D01*
X0065750Y0030916D02*
X0120333Y0030916D01*
X0120631Y0030617D02*
X0065750Y0030617D01*
X0065750Y0030319D02*
X0120930Y0030319D01*
X0065750Y0146141D02*
X0249871Y0146141D01*
X0249871Y0146439D02*
X0065750Y0146439D01*
X0065750Y0146738D02*
X0249871Y0146738D01*
X0249871Y0147036D02*
X0065750Y0147036D01*
X0065750Y0147335D02*
X0249871Y0147335D01*
X0249871Y0147634D02*
X0065750Y0147634D01*
X0065750Y0147932D02*
X0249871Y0147932D01*
X0249871Y0148231D02*
X0065750Y0148231D01*
X0065750Y0148529D02*
X0249871Y0148529D01*
X0249871Y0148828D02*
X0065750Y0148828D01*
X0065750Y0149126D02*
X0249871Y0149126D01*
X0249871Y0149425D02*
X0065750Y0149425D01*
X0065750Y0149723D02*
X0249871Y0149723D01*
X0249871Y0150022D02*
X0065750Y0150022D01*
X0065750Y0150320D02*
X0249871Y0150320D01*
X0249871Y0150619D02*
X0065750Y0150619D01*
X0065750Y0150917D02*
X0249871Y0150917D01*
X0249871Y0151216D02*
X0065750Y0151216D01*
X0065750Y0151514D02*
X0249871Y0151514D01*
X0249871Y0151813D02*
X0065750Y0151813D01*
X0065750Y0152111D02*
X0249871Y0152111D01*
X0249871Y0152410D02*
X0065750Y0152410D01*
X0065750Y0152708D02*
X0249871Y0152708D01*
X0249871Y0153007D02*
X0065750Y0153007D01*
X0065750Y0153305D02*
X0249871Y0153305D01*
X0249871Y0153604D02*
X0065750Y0153604D01*
X0065750Y0153902D02*
X0249871Y0153902D01*
X0249871Y0154201D02*
X0065750Y0154201D01*
X0065750Y0154499D02*
X0249871Y0154499D01*
X0249871Y0154798D02*
X0065750Y0154798D01*
X0065750Y0155096D02*
X0249871Y0155096D01*
X0249871Y0155395D02*
X0065750Y0155395D01*
X0065750Y0155693D02*
X0249871Y0155693D01*
X0249871Y0155992D02*
X0065750Y0155992D01*
X0065750Y0156290D02*
X0249871Y0156290D01*
X0249871Y0156589D02*
X0065750Y0156589D01*
X0065750Y0156887D02*
X0249871Y0156887D01*
X0249871Y0157186D02*
X0065750Y0157186D01*
X0065750Y0157484D02*
X0249871Y0157484D01*
X0249871Y0157783D02*
X0065750Y0157783D01*
X0065750Y0158081D02*
X0249871Y0158081D01*
X0249871Y0158380D02*
X0065750Y0158380D01*
X0065750Y0158678D02*
X0249871Y0158678D01*
X0249871Y0158977D02*
X0065750Y0158977D01*
X0065750Y0159275D02*
X0249871Y0159275D01*
X0249871Y0159574D02*
X0065750Y0159574D01*
X0065750Y0159872D02*
X0249871Y0159872D01*
X0249871Y0160171D02*
X0065750Y0160171D01*
X0065750Y0160470D02*
X0249871Y0160470D01*
X0249871Y0160768D02*
X0065750Y0160768D01*
X0065750Y0161067D02*
X0249871Y0161067D01*
X0249871Y0161365D02*
X0065750Y0161365D01*
X0065750Y0161664D02*
X0249871Y0161664D01*
X0249871Y0161962D02*
X0065750Y0161962D01*
X0065750Y0162261D02*
X0249871Y0162261D01*
X0249871Y0162559D02*
X0065750Y0162559D01*
X0065750Y0162858D02*
X0249871Y0162858D01*
X0249871Y0163156D02*
X0065750Y0163156D01*
X0065750Y0163455D02*
X0249871Y0163455D01*
X0249871Y0163753D02*
X0065750Y0163753D01*
X0065750Y0164052D02*
X0249871Y0164052D01*
X0249871Y0164350D02*
X0065750Y0164350D01*
D13*
X0069100Y0161083D03*
X0089100Y0161083D03*
X0109100Y0161083D03*
X0129100Y0161083D03*
X0152850Y0153583D03*
X0162850Y0152333D03*
X0169100Y0144833D03*
X0182850Y0143583D03*
X0204100Y0142333D03*
X0204100Y0152333D03*
X0231600Y0154833D03*
X0239100Y0154833D03*
X0246600Y0154833D03*
X0246600Y0142333D03*
X0239100Y0142333D03*
X0231600Y0142333D03*
X0204100Y0124833D03*
X0180350Y0123583D03*
X0176600Y0113583D03*
X0160350Y0117333D03*
X0160350Y0122333D03*
X0140350Y0133583D03*
X0152850Y0102333D03*
X0170350Y0081083D03*
X0205350Y0073583D03*
X0205350Y0063583D03*
X0204100Y0049833D03*
X0194100Y0046083D03*
X0179100Y0056083D03*
X0174100Y0046083D03*
X0159100Y0042333D03*
X0154100Y0042333D03*
X0111600Y0037333D03*
X0111600Y0032333D03*
X0105350Y0019833D03*
X0109100Y0012333D03*
X0089100Y0012333D03*
X0082850Y0016083D03*
X0071600Y0013583D03*
X0105350Y0049833D03*
X0082850Y0056083D03*
X0072850Y0058583D03*
X0069100Y0066083D03*
X0069100Y0082333D03*
X0076600Y0082333D03*
X0084100Y0082333D03*
X0084100Y0094833D03*
X0076600Y0094833D03*
X0069100Y0094833D03*
X0069100Y0122333D03*
X0076600Y0122333D03*
X0084100Y0122333D03*
X0084100Y0134833D03*
X0076600Y0134833D03*
X0069100Y0134833D03*
X0069100Y0146083D03*
X0231600Y0114833D03*
X0239100Y0114833D03*
X0246600Y0114833D03*
X0246600Y0102333D03*
X0239100Y0102333D03*
X0231600Y0102333D03*
X0245350Y0084833D03*
X0246600Y0068583D03*
X0239100Y0068583D03*
X0231600Y0068583D03*
X0231600Y0056083D03*
X0239100Y0056083D03*
X0246600Y0056083D03*
X0246600Y0028583D03*
X0239100Y0028583D03*
X0231600Y0028583D03*
X0231600Y0016083D03*
X0239100Y0016083D03*
X0246600Y0016083D03*
X0209100Y0012333D03*
X0189100Y0012333D03*
X0169100Y0012333D03*
X0149100Y0012333D03*
X0129100Y0012333D03*
D14*
X0174100Y0046083D02*
X0174100Y0051083D01*
X0179100Y0056083D01*
X0179100Y0072333D01*
X0170350Y0081083D01*
X0152850Y0102333D02*
X0182850Y0132333D01*
X0182850Y0143583D01*
M02*
