G75*
%MOIN*%
%OFA0B0*%
%FSLAX25Y25*%
%IPPOS*%
%LPD*%
%AMOC8*
5,1,8,0,0,1.08239X$1,22.5*
%
%ADD10C,0.00000*%
%ADD11C,0.00700*%
%ADD12C,0.00500*%
%ADD13C,0.01575*%
%ADD14C,0.00400*%
%ADD15C,0.01250*%
%ADD16C,0.01000*%
D10*
X0064100Y0007333D02*
X0064100Y0166034D01*
X0251521Y0166034D01*
X0251521Y0007333D01*
X0064100Y0007333D01*
X0096551Y0087333D02*
X0096553Y0087491D01*
X0096559Y0087649D01*
X0096569Y0087807D01*
X0096583Y0087965D01*
X0096601Y0088122D01*
X0096622Y0088279D01*
X0096648Y0088435D01*
X0096678Y0088591D01*
X0096711Y0088746D01*
X0096749Y0088899D01*
X0096790Y0089052D01*
X0096835Y0089204D01*
X0096884Y0089355D01*
X0096937Y0089504D01*
X0096993Y0089652D01*
X0097053Y0089798D01*
X0097117Y0089943D01*
X0097185Y0090086D01*
X0097256Y0090228D01*
X0097330Y0090368D01*
X0097408Y0090505D01*
X0097490Y0090641D01*
X0097574Y0090775D01*
X0097663Y0090906D01*
X0097754Y0091035D01*
X0097849Y0091162D01*
X0097946Y0091287D01*
X0098047Y0091409D01*
X0098151Y0091528D01*
X0098258Y0091645D01*
X0098368Y0091759D01*
X0098481Y0091870D01*
X0098596Y0091979D01*
X0098714Y0092084D01*
X0098835Y0092186D01*
X0098958Y0092286D01*
X0099084Y0092382D01*
X0099212Y0092475D01*
X0099342Y0092565D01*
X0099475Y0092651D01*
X0099610Y0092735D01*
X0099746Y0092814D01*
X0099885Y0092891D01*
X0100026Y0092963D01*
X0100168Y0093033D01*
X0100312Y0093098D01*
X0100458Y0093160D01*
X0100605Y0093218D01*
X0100754Y0093273D01*
X0100904Y0093324D01*
X0101055Y0093371D01*
X0101207Y0093414D01*
X0101360Y0093453D01*
X0101515Y0093489D01*
X0101670Y0093520D01*
X0101826Y0093548D01*
X0101982Y0093572D01*
X0102139Y0093592D01*
X0102297Y0093608D01*
X0102454Y0093620D01*
X0102613Y0093628D01*
X0102771Y0093632D01*
X0102929Y0093632D01*
X0103087Y0093628D01*
X0103246Y0093620D01*
X0103403Y0093608D01*
X0103561Y0093592D01*
X0103718Y0093572D01*
X0103874Y0093548D01*
X0104030Y0093520D01*
X0104185Y0093489D01*
X0104340Y0093453D01*
X0104493Y0093414D01*
X0104645Y0093371D01*
X0104796Y0093324D01*
X0104946Y0093273D01*
X0105095Y0093218D01*
X0105242Y0093160D01*
X0105388Y0093098D01*
X0105532Y0093033D01*
X0105674Y0092963D01*
X0105815Y0092891D01*
X0105954Y0092814D01*
X0106090Y0092735D01*
X0106225Y0092651D01*
X0106358Y0092565D01*
X0106488Y0092475D01*
X0106616Y0092382D01*
X0106742Y0092286D01*
X0106865Y0092186D01*
X0106986Y0092084D01*
X0107104Y0091979D01*
X0107219Y0091870D01*
X0107332Y0091759D01*
X0107442Y0091645D01*
X0107549Y0091528D01*
X0107653Y0091409D01*
X0107754Y0091287D01*
X0107851Y0091162D01*
X0107946Y0091035D01*
X0108037Y0090906D01*
X0108126Y0090775D01*
X0108210Y0090641D01*
X0108292Y0090505D01*
X0108370Y0090368D01*
X0108444Y0090228D01*
X0108515Y0090086D01*
X0108583Y0089943D01*
X0108647Y0089798D01*
X0108707Y0089652D01*
X0108763Y0089504D01*
X0108816Y0089355D01*
X0108865Y0089204D01*
X0108910Y0089052D01*
X0108951Y0088899D01*
X0108989Y0088746D01*
X0109022Y0088591D01*
X0109052Y0088435D01*
X0109078Y0088279D01*
X0109099Y0088122D01*
X0109117Y0087965D01*
X0109131Y0087807D01*
X0109141Y0087649D01*
X0109147Y0087491D01*
X0109149Y0087333D01*
X0109147Y0087175D01*
X0109141Y0087017D01*
X0109131Y0086859D01*
X0109117Y0086701D01*
X0109099Y0086544D01*
X0109078Y0086387D01*
X0109052Y0086231D01*
X0109022Y0086075D01*
X0108989Y0085920D01*
X0108951Y0085767D01*
X0108910Y0085614D01*
X0108865Y0085462D01*
X0108816Y0085311D01*
X0108763Y0085162D01*
X0108707Y0085014D01*
X0108647Y0084868D01*
X0108583Y0084723D01*
X0108515Y0084580D01*
X0108444Y0084438D01*
X0108370Y0084298D01*
X0108292Y0084161D01*
X0108210Y0084025D01*
X0108126Y0083891D01*
X0108037Y0083760D01*
X0107946Y0083631D01*
X0107851Y0083504D01*
X0107754Y0083379D01*
X0107653Y0083257D01*
X0107549Y0083138D01*
X0107442Y0083021D01*
X0107332Y0082907D01*
X0107219Y0082796D01*
X0107104Y0082687D01*
X0106986Y0082582D01*
X0106865Y0082480D01*
X0106742Y0082380D01*
X0106616Y0082284D01*
X0106488Y0082191D01*
X0106358Y0082101D01*
X0106225Y0082015D01*
X0106090Y0081931D01*
X0105954Y0081852D01*
X0105815Y0081775D01*
X0105674Y0081703D01*
X0105532Y0081633D01*
X0105388Y0081568D01*
X0105242Y0081506D01*
X0105095Y0081448D01*
X0104946Y0081393D01*
X0104796Y0081342D01*
X0104645Y0081295D01*
X0104493Y0081252D01*
X0104340Y0081213D01*
X0104185Y0081177D01*
X0104030Y0081146D01*
X0103874Y0081118D01*
X0103718Y0081094D01*
X0103561Y0081074D01*
X0103403Y0081058D01*
X0103246Y0081046D01*
X0103087Y0081038D01*
X0102929Y0081034D01*
X0102771Y0081034D01*
X0102613Y0081038D01*
X0102454Y0081046D01*
X0102297Y0081058D01*
X0102139Y0081074D01*
X0101982Y0081094D01*
X0101826Y0081118D01*
X0101670Y0081146D01*
X0101515Y0081177D01*
X0101360Y0081213D01*
X0101207Y0081252D01*
X0101055Y0081295D01*
X0100904Y0081342D01*
X0100754Y0081393D01*
X0100605Y0081448D01*
X0100458Y0081506D01*
X0100312Y0081568D01*
X0100168Y0081633D01*
X0100026Y0081703D01*
X0099885Y0081775D01*
X0099746Y0081852D01*
X0099610Y0081931D01*
X0099475Y0082015D01*
X0099342Y0082101D01*
X0099212Y0082191D01*
X0099084Y0082284D01*
X0098958Y0082380D01*
X0098835Y0082480D01*
X0098714Y0082582D01*
X0098596Y0082687D01*
X0098481Y0082796D01*
X0098368Y0082907D01*
X0098258Y0083021D01*
X0098151Y0083138D01*
X0098047Y0083257D01*
X0097946Y0083379D01*
X0097849Y0083504D01*
X0097754Y0083631D01*
X0097663Y0083760D01*
X0097574Y0083891D01*
X0097490Y0084025D01*
X0097408Y0084161D01*
X0097330Y0084298D01*
X0097256Y0084438D01*
X0097185Y0084580D01*
X0097117Y0084723D01*
X0097053Y0084868D01*
X0096993Y0085014D01*
X0096937Y0085162D01*
X0096884Y0085311D01*
X0096835Y0085462D01*
X0096790Y0085614D01*
X0096749Y0085767D01*
X0096711Y0085920D01*
X0096678Y0086075D01*
X0096648Y0086231D01*
X0096622Y0086387D01*
X0096601Y0086544D01*
X0096583Y0086701D01*
X0096569Y0086859D01*
X0096559Y0087017D01*
X0096553Y0087175D01*
X0096551Y0087333D01*
X0136551Y0087333D02*
X0136553Y0087491D01*
X0136559Y0087649D01*
X0136569Y0087807D01*
X0136583Y0087965D01*
X0136601Y0088122D01*
X0136622Y0088279D01*
X0136648Y0088435D01*
X0136678Y0088591D01*
X0136711Y0088746D01*
X0136749Y0088899D01*
X0136790Y0089052D01*
X0136835Y0089204D01*
X0136884Y0089355D01*
X0136937Y0089504D01*
X0136993Y0089652D01*
X0137053Y0089798D01*
X0137117Y0089943D01*
X0137185Y0090086D01*
X0137256Y0090228D01*
X0137330Y0090368D01*
X0137408Y0090505D01*
X0137490Y0090641D01*
X0137574Y0090775D01*
X0137663Y0090906D01*
X0137754Y0091035D01*
X0137849Y0091162D01*
X0137946Y0091287D01*
X0138047Y0091409D01*
X0138151Y0091528D01*
X0138258Y0091645D01*
X0138368Y0091759D01*
X0138481Y0091870D01*
X0138596Y0091979D01*
X0138714Y0092084D01*
X0138835Y0092186D01*
X0138958Y0092286D01*
X0139084Y0092382D01*
X0139212Y0092475D01*
X0139342Y0092565D01*
X0139475Y0092651D01*
X0139610Y0092735D01*
X0139746Y0092814D01*
X0139885Y0092891D01*
X0140026Y0092963D01*
X0140168Y0093033D01*
X0140312Y0093098D01*
X0140458Y0093160D01*
X0140605Y0093218D01*
X0140754Y0093273D01*
X0140904Y0093324D01*
X0141055Y0093371D01*
X0141207Y0093414D01*
X0141360Y0093453D01*
X0141515Y0093489D01*
X0141670Y0093520D01*
X0141826Y0093548D01*
X0141982Y0093572D01*
X0142139Y0093592D01*
X0142297Y0093608D01*
X0142454Y0093620D01*
X0142613Y0093628D01*
X0142771Y0093632D01*
X0142929Y0093632D01*
X0143087Y0093628D01*
X0143246Y0093620D01*
X0143403Y0093608D01*
X0143561Y0093592D01*
X0143718Y0093572D01*
X0143874Y0093548D01*
X0144030Y0093520D01*
X0144185Y0093489D01*
X0144340Y0093453D01*
X0144493Y0093414D01*
X0144645Y0093371D01*
X0144796Y0093324D01*
X0144946Y0093273D01*
X0145095Y0093218D01*
X0145242Y0093160D01*
X0145388Y0093098D01*
X0145532Y0093033D01*
X0145674Y0092963D01*
X0145815Y0092891D01*
X0145954Y0092814D01*
X0146090Y0092735D01*
X0146225Y0092651D01*
X0146358Y0092565D01*
X0146488Y0092475D01*
X0146616Y0092382D01*
X0146742Y0092286D01*
X0146865Y0092186D01*
X0146986Y0092084D01*
X0147104Y0091979D01*
X0147219Y0091870D01*
X0147332Y0091759D01*
X0147442Y0091645D01*
X0147549Y0091528D01*
X0147653Y0091409D01*
X0147754Y0091287D01*
X0147851Y0091162D01*
X0147946Y0091035D01*
X0148037Y0090906D01*
X0148126Y0090775D01*
X0148210Y0090641D01*
X0148292Y0090505D01*
X0148370Y0090368D01*
X0148444Y0090228D01*
X0148515Y0090086D01*
X0148583Y0089943D01*
X0148647Y0089798D01*
X0148707Y0089652D01*
X0148763Y0089504D01*
X0148816Y0089355D01*
X0148865Y0089204D01*
X0148910Y0089052D01*
X0148951Y0088899D01*
X0148989Y0088746D01*
X0149022Y0088591D01*
X0149052Y0088435D01*
X0149078Y0088279D01*
X0149099Y0088122D01*
X0149117Y0087965D01*
X0149131Y0087807D01*
X0149141Y0087649D01*
X0149147Y0087491D01*
X0149149Y0087333D01*
X0149147Y0087175D01*
X0149141Y0087017D01*
X0149131Y0086859D01*
X0149117Y0086701D01*
X0149099Y0086544D01*
X0149078Y0086387D01*
X0149052Y0086231D01*
X0149022Y0086075D01*
X0148989Y0085920D01*
X0148951Y0085767D01*
X0148910Y0085614D01*
X0148865Y0085462D01*
X0148816Y0085311D01*
X0148763Y0085162D01*
X0148707Y0085014D01*
X0148647Y0084868D01*
X0148583Y0084723D01*
X0148515Y0084580D01*
X0148444Y0084438D01*
X0148370Y0084298D01*
X0148292Y0084161D01*
X0148210Y0084025D01*
X0148126Y0083891D01*
X0148037Y0083760D01*
X0147946Y0083631D01*
X0147851Y0083504D01*
X0147754Y0083379D01*
X0147653Y0083257D01*
X0147549Y0083138D01*
X0147442Y0083021D01*
X0147332Y0082907D01*
X0147219Y0082796D01*
X0147104Y0082687D01*
X0146986Y0082582D01*
X0146865Y0082480D01*
X0146742Y0082380D01*
X0146616Y0082284D01*
X0146488Y0082191D01*
X0146358Y0082101D01*
X0146225Y0082015D01*
X0146090Y0081931D01*
X0145954Y0081852D01*
X0145815Y0081775D01*
X0145674Y0081703D01*
X0145532Y0081633D01*
X0145388Y0081568D01*
X0145242Y0081506D01*
X0145095Y0081448D01*
X0144946Y0081393D01*
X0144796Y0081342D01*
X0144645Y0081295D01*
X0144493Y0081252D01*
X0144340Y0081213D01*
X0144185Y0081177D01*
X0144030Y0081146D01*
X0143874Y0081118D01*
X0143718Y0081094D01*
X0143561Y0081074D01*
X0143403Y0081058D01*
X0143246Y0081046D01*
X0143087Y0081038D01*
X0142929Y0081034D01*
X0142771Y0081034D01*
X0142613Y0081038D01*
X0142454Y0081046D01*
X0142297Y0081058D01*
X0142139Y0081074D01*
X0141982Y0081094D01*
X0141826Y0081118D01*
X0141670Y0081146D01*
X0141515Y0081177D01*
X0141360Y0081213D01*
X0141207Y0081252D01*
X0141055Y0081295D01*
X0140904Y0081342D01*
X0140754Y0081393D01*
X0140605Y0081448D01*
X0140458Y0081506D01*
X0140312Y0081568D01*
X0140168Y0081633D01*
X0140026Y0081703D01*
X0139885Y0081775D01*
X0139746Y0081852D01*
X0139610Y0081931D01*
X0139475Y0082015D01*
X0139342Y0082101D01*
X0139212Y0082191D01*
X0139084Y0082284D01*
X0138958Y0082380D01*
X0138835Y0082480D01*
X0138714Y0082582D01*
X0138596Y0082687D01*
X0138481Y0082796D01*
X0138368Y0082907D01*
X0138258Y0083021D01*
X0138151Y0083138D01*
X0138047Y0083257D01*
X0137946Y0083379D01*
X0137849Y0083504D01*
X0137754Y0083631D01*
X0137663Y0083760D01*
X0137574Y0083891D01*
X0137490Y0084025D01*
X0137408Y0084161D01*
X0137330Y0084298D01*
X0137256Y0084438D01*
X0137185Y0084580D01*
X0137117Y0084723D01*
X0137053Y0084868D01*
X0136993Y0085014D01*
X0136937Y0085162D01*
X0136884Y0085311D01*
X0136835Y0085462D01*
X0136790Y0085614D01*
X0136749Y0085767D01*
X0136711Y0085920D01*
X0136678Y0086075D01*
X0136648Y0086231D01*
X0136622Y0086387D01*
X0136601Y0086544D01*
X0136583Y0086701D01*
X0136569Y0086859D01*
X0136559Y0087017D01*
X0136553Y0087175D01*
X0136551Y0087333D01*
D11*
X0156297Y0095192D02*
X0157611Y0094475D01*
X0157133Y0092683D02*
X0157044Y0092685D01*
X0156956Y0092691D01*
X0156868Y0092700D01*
X0156781Y0092714D01*
X0156694Y0092731D01*
X0156608Y0092753D01*
X0156523Y0092777D01*
X0156439Y0092806D01*
X0156356Y0092838D01*
X0156275Y0092874D01*
X0156196Y0092914D01*
X0156119Y0092956D01*
X0156043Y0093002D01*
X0155970Y0093052D01*
X0155898Y0093105D01*
X0155829Y0093160D01*
X0155763Y0093219D01*
X0155699Y0093280D01*
X0157610Y0094475D02*
X0157661Y0094443D01*
X0157709Y0094408D01*
X0157754Y0094371D01*
X0157798Y0094331D01*
X0157839Y0094288D01*
X0157877Y0094243D01*
X0157913Y0094195D01*
X0157945Y0094146D01*
X0157974Y0094094D01*
X0158001Y0094041D01*
X0158024Y0093987D01*
X0158043Y0093931D01*
X0158059Y0093874D01*
X0158072Y0093816D01*
X0158081Y0093757D01*
X0158086Y0093698D01*
X0158088Y0093639D01*
X0158089Y0093639D02*
X0158087Y0093579D01*
X0158081Y0093519D01*
X0158072Y0093460D01*
X0158059Y0093401D01*
X0158042Y0093344D01*
X0158022Y0093287D01*
X0157998Y0093232D01*
X0157971Y0093178D01*
X0157940Y0093127D01*
X0157906Y0093077D01*
X0157870Y0093030D01*
X0157830Y0092985D01*
X0157787Y0092942D01*
X0157742Y0092902D01*
X0157695Y0092866D01*
X0157645Y0092832D01*
X0157594Y0092801D01*
X0157540Y0092774D01*
X0157485Y0092750D01*
X0157428Y0092730D01*
X0157371Y0092713D01*
X0157312Y0092700D01*
X0157253Y0092691D01*
X0157193Y0092685D01*
X0157133Y0092683D01*
X0157850Y0096626D02*
X0157783Y0096673D01*
X0157714Y0096718D01*
X0157643Y0096760D01*
X0157570Y0096798D01*
X0157495Y0096833D01*
X0157419Y0096864D01*
X0157342Y0096892D01*
X0157263Y0096916D01*
X0157183Y0096937D01*
X0157103Y0096954D01*
X0157021Y0096967D01*
X0156940Y0096976D01*
X0156857Y0096982D01*
X0156775Y0096984D01*
X0156715Y0096982D01*
X0156655Y0096976D01*
X0156596Y0096967D01*
X0156537Y0096954D01*
X0156480Y0096937D01*
X0156423Y0096917D01*
X0156368Y0096893D01*
X0156314Y0096866D01*
X0156263Y0096835D01*
X0156213Y0096801D01*
X0156166Y0096765D01*
X0156121Y0096725D01*
X0156078Y0096682D01*
X0156038Y0096637D01*
X0156002Y0096590D01*
X0155968Y0096540D01*
X0155937Y0096489D01*
X0155910Y0096435D01*
X0155886Y0096380D01*
X0155866Y0096323D01*
X0155849Y0096266D01*
X0155836Y0096207D01*
X0155827Y0096148D01*
X0155821Y0096088D01*
X0155819Y0096028D01*
X0155820Y0096028D02*
X0155822Y0095969D01*
X0155827Y0095910D01*
X0155836Y0095851D01*
X0155849Y0095793D01*
X0155865Y0095736D01*
X0155884Y0095680D01*
X0155907Y0095626D01*
X0155934Y0095573D01*
X0155963Y0095521D01*
X0155995Y0095472D01*
X0156031Y0095424D01*
X0156069Y0095379D01*
X0156110Y0095336D01*
X0156154Y0095296D01*
X0156199Y0095259D01*
X0156247Y0095224D01*
X0156298Y0095192D01*
X0160175Y0095550D02*
X0160175Y0092683D01*
X0161608Y0095072D02*
X0161608Y0095550D01*
X0160175Y0095550D01*
X0163146Y0094833D02*
X0163146Y0093400D01*
X0163148Y0093349D01*
X0163153Y0093298D01*
X0163162Y0093248D01*
X0163175Y0093198D01*
X0163191Y0093149D01*
X0163211Y0093102D01*
X0163234Y0093056D01*
X0163260Y0093012D01*
X0163289Y0092970D01*
X0163321Y0092930D01*
X0163356Y0092893D01*
X0163393Y0092858D01*
X0163433Y0092826D01*
X0163475Y0092797D01*
X0163519Y0092771D01*
X0163565Y0092748D01*
X0163612Y0092728D01*
X0163661Y0092712D01*
X0163711Y0092699D01*
X0163761Y0092690D01*
X0163812Y0092685D01*
X0163863Y0092683D01*
X0164818Y0092683D01*
X0163146Y0094833D02*
X0163148Y0094884D01*
X0163153Y0094935D01*
X0163162Y0094985D01*
X0163175Y0095035D01*
X0163191Y0095084D01*
X0163211Y0095131D01*
X0163234Y0095177D01*
X0163260Y0095221D01*
X0163289Y0095263D01*
X0163321Y0095303D01*
X0163356Y0095340D01*
X0163393Y0095375D01*
X0163433Y0095407D01*
X0163475Y0095436D01*
X0163519Y0095462D01*
X0163565Y0095485D01*
X0163612Y0095505D01*
X0163661Y0095521D01*
X0163711Y0095534D01*
X0163761Y0095543D01*
X0163812Y0095548D01*
X0163863Y0095550D01*
X0164818Y0095550D01*
X0166950Y0100183D02*
X0166950Y0104483D01*
X0168144Y0104483D01*
X0168212Y0104481D01*
X0168280Y0104475D01*
X0168348Y0104466D01*
X0168414Y0104452D01*
X0168480Y0104435D01*
X0168545Y0104414D01*
X0168609Y0104389D01*
X0168671Y0104360D01*
X0168731Y0104329D01*
X0168790Y0104293D01*
X0168846Y0104255D01*
X0168900Y0104213D01*
X0168951Y0104169D01*
X0169000Y0104121D01*
X0169046Y0104071D01*
X0169090Y0104018D01*
X0169130Y0103963D01*
X0169166Y0103906D01*
X0169200Y0103846D01*
X0169230Y0103785D01*
X0169257Y0103722D01*
X0169280Y0103658D01*
X0169299Y0103593D01*
X0169314Y0103526D01*
X0169326Y0103459D01*
X0169334Y0103391D01*
X0169338Y0103323D01*
X0169338Y0103255D01*
X0169334Y0103187D01*
X0169326Y0103119D01*
X0169314Y0103052D01*
X0169299Y0102985D01*
X0169280Y0102920D01*
X0169257Y0102856D01*
X0169230Y0102793D01*
X0169200Y0102732D01*
X0169166Y0102672D01*
X0169130Y0102615D01*
X0169090Y0102560D01*
X0169046Y0102507D01*
X0169000Y0102457D01*
X0168951Y0102409D01*
X0168900Y0102365D01*
X0168846Y0102323D01*
X0168790Y0102285D01*
X0168731Y0102249D01*
X0168671Y0102218D01*
X0168609Y0102189D01*
X0168545Y0102164D01*
X0168480Y0102143D01*
X0168414Y0102126D01*
X0168348Y0102112D01*
X0168280Y0102103D01*
X0168212Y0102097D01*
X0168144Y0102095D01*
X0168144Y0102094D02*
X0166950Y0102094D01*
X0171371Y0100183D02*
X0171371Y0104483D01*
X0175271Y0104483D02*
X0175271Y0100183D01*
X0177182Y0100183D01*
X0173282Y0100183D02*
X0171371Y0100183D01*
X0181950Y0095789D02*
X0181950Y0093878D01*
X0181952Y0093810D01*
X0181958Y0093742D01*
X0181967Y0093674D01*
X0181981Y0093608D01*
X0181998Y0093542D01*
X0182019Y0093477D01*
X0182044Y0093413D01*
X0182073Y0093351D01*
X0182104Y0093291D01*
X0182140Y0093232D01*
X0182178Y0093176D01*
X0182220Y0093122D01*
X0182264Y0093071D01*
X0182312Y0093022D01*
X0182362Y0092976D01*
X0182415Y0092932D01*
X0182470Y0092892D01*
X0182527Y0092856D01*
X0182587Y0092822D01*
X0182648Y0092792D01*
X0182711Y0092765D01*
X0182775Y0092742D01*
X0182840Y0092723D01*
X0182907Y0092708D01*
X0182974Y0092696D01*
X0183042Y0092688D01*
X0183110Y0092684D01*
X0183178Y0092684D01*
X0183246Y0092688D01*
X0183314Y0092696D01*
X0183381Y0092708D01*
X0183448Y0092723D01*
X0183513Y0092742D01*
X0183577Y0092765D01*
X0183640Y0092792D01*
X0183701Y0092822D01*
X0183761Y0092856D01*
X0183818Y0092892D01*
X0183873Y0092932D01*
X0183926Y0092976D01*
X0183976Y0093022D01*
X0184024Y0093071D01*
X0184068Y0093122D01*
X0184110Y0093176D01*
X0184148Y0093232D01*
X0184184Y0093291D01*
X0184215Y0093351D01*
X0184244Y0093413D01*
X0184269Y0093477D01*
X0184290Y0093542D01*
X0184307Y0093608D01*
X0184321Y0093674D01*
X0184330Y0093742D01*
X0184336Y0093810D01*
X0184338Y0093878D01*
X0184339Y0093878D02*
X0184339Y0095789D01*
X0184338Y0095789D02*
X0184336Y0095857D01*
X0184330Y0095925D01*
X0184321Y0095993D01*
X0184307Y0096059D01*
X0184290Y0096125D01*
X0184269Y0096190D01*
X0184244Y0096254D01*
X0184215Y0096316D01*
X0184184Y0096376D01*
X0184148Y0096435D01*
X0184110Y0096491D01*
X0184068Y0096545D01*
X0184024Y0096596D01*
X0183976Y0096645D01*
X0183926Y0096691D01*
X0183873Y0096735D01*
X0183818Y0096775D01*
X0183761Y0096811D01*
X0183701Y0096845D01*
X0183640Y0096875D01*
X0183577Y0096902D01*
X0183513Y0096925D01*
X0183448Y0096944D01*
X0183381Y0096959D01*
X0183314Y0096971D01*
X0183246Y0096979D01*
X0183178Y0096983D01*
X0183110Y0096983D01*
X0183042Y0096979D01*
X0182974Y0096971D01*
X0182907Y0096959D01*
X0182840Y0096944D01*
X0182775Y0096925D01*
X0182711Y0096902D01*
X0182648Y0096875D01*
X0182587Y0096845D01*
X0182527Y0096811D01*
X0182470Y0096775D01*
X0182415Y0096735D01*
X0182362Y0096691D01*
X0182312Y0096645D01*
X0182264Y0096596D01*
X0182220Y0096545D01*
X0182178Y0096491D01*
X0182140Y0096435D01*
X0182104Y0096376D01*
X0182073Y0096316D01*
X0182044Y0096254D01*
X0182019Y0096190D01*
X0181998Y0096125D01*
X0181981Y0096059D01*
X0181967Y0095993D01*
X0181958Y0095925D01*
X0181952Y0095857D01*
X0181950Y0095789D01*
X0186539Y0095550D02*
X0186539Y0093400D01*
X0186541Y0093349D01*
X0186546Y0093298D01*
X0186555Y0093248D01*
X0186568Y0093198D01*
X0186584Y0093149D01*
X0186604Y0093102D01*
X0186627Y0093056D01*
X0186653Y0093012D01*
X0186682Y0092970D01*
X0186714Y0092930D01*
X0186749Y0092893D01*
X0186786Y0092858D01*
X0186826Y0092826D01*
X0186868Y0092797D01*
X0186912Y0092771D01*
X0186958Y0092748D01*
X0187005Y0092728D01*
X0187054Y0092712D01*
X0187104Y0092699D01*
X0187154Y0092690D01*
X0187205Y0092685D01*
X0187256Y0092683D01*
X0188450Y0092683D01*
X0188450Y0095550D01*
X0190178Y0095550D02*
X0191611Y0095550D01*
X0190656Y0096983D02*
X0190656Y0093400D01*
X0190655Y0093400D02*
X0190657Y0093349D01*
X0190662Y0093298D01*
X0190671Y0093248D01*
X0190684Y0093198D01*
X0190700Y0093149D01*
X0190720Y0093102D01*
X0190743Y0093056D01*
X0190769Y0093012D01*
X0190798Y0092970D01*
X0190830Y0092930D01*
X0190865Y0092893D01*
X0190902Y0092858D01*
X0190942Y0092826D01*
X0190984Y0092797D01*
X0191028Y0092771D01*
X0191074Y0092748D01*
X0191121Y0092728D01*
X0191170Y0092712D01*
X0191220Y0092699D01*
X0191270Y0092690D01*
X0191321Y0092685D01*
X0191372Y0092683D01*
X0191611Y0092683D01*
X0193200Y0089483D02*
X0194156Y0089483D01*
X0193678Y0089483D02*
X0193678Y0085183D01*
X0193200Y0085183D02*
X0194156Y0085183D01*
X0195872Y0084705D02*
X0197783Y0089961D01*
X0200044Y0088289D02*
X0200044Y0086378D01*
X0200045Y0086378D02*
X0200047Y0086310D01*
X0200053Y0086242D01*
X0200062Y0086174D01*
X0200076Y0086108D01*
X0200093Y0086042D01*
X0200114Y0085977D01*
X0200139Y0085913D01*
X0200168Y0085851D01*
X0200199Y0085791D01*
X0200235Y0085732D01*
X0200273Y0085676D01*
X0200315Y0085622D01*
X0200359Y0085571D01*
X0200407Y0085522D01*
X0200457Y0085476D01*
X0200510Y0085432D01*
X0200565Y0085392D01*
X0200622Y0085356D01*
X0200682Y0085322D01*
X0200743Y0085292D01*
X0200806Y0085265D01*
X0200870Y0085242D01*
X0200935Y0085223D01*
X0201002Y0085208D01*
X0201069Y0085196D01*
X0201137Y0085188D01*
X0201205Y0085184D01*
X0201273Y0085184D01*
X0201341Y0085188D01*
X0201409Y0085196D01*
X0201476Y0085208D01*
X0201543Y0085223D01*
X0201608Y0085242D01*
X0201672Y0085265D01*
X0201735Y0085292D01*
X0201796Y0085322D01*
X0201856Y0085356D01*
X0201913Y0085392D01*
X0201968Y0085432D01*
X0202021Y0085476D01*
X0202071Y0085522D01*
X0202119Y0085571D01*
X0202163Y0085622D01*
X0202205Y0085676D01*
X0202243Y0085732D01*
X0202279Y0085791D01*
X0202310Y0085851D01*
X0202339Y0085913D01*
X0202364Y0085977D01*
X0202385Y0086042D01*
X0202402Y0086108D01*
X0202416Y0086174D01*
X0202425Y0086242D01*
X0202431Y0086310D01*
X0202433Y0086378D01*
X0202433Y0088289D01*
X0202431Y0088357D01*
X0202425Y0088425D01*
X0202416Y0088493D01*
X0202402Y0088559D01*
X0202385Y0088625D01*
X0202364Y0088690D01*
X0202339Y0088754D01*
X0202310Y0088816D01*
X0202279Y0088876D01*
X0202243Y0088935D01*
X0202205Y0088991D01*
X0202163Y0089045D01*
X0202119Y0089096D01*
X0202071Y0089145D01*
X0202021Y0089191D01*
X0201968Y0089235D01*
X0201913Y0089275D01*
X0201856Y0089311D01*
X0201796Y0089345D01*
X0201735Y0089375D01*
X0201672Y0089402D01*
X0201608Y0089425D01*
X0201543Y0089444D01*
X0201476Y0089459D01*
X0201409Y0089471D01*
X0201341Y0089479D01*
X0201273Y0089483D01*
X0201205Y0089483D01*
X0201137Y0089479D01*
X0201069Y0089471D01*
X0201002Y0089459D01*
X0200935Y0089444D01*
X0200870Y0089425D01*
X0200806Y0089402D01*
X0200743Y0089375D01*
X0200682Y0089345D01*
X0200622Y0089311D01*
X0200565Y0089275D01*
X0200510Y0089235D01*
X0200457Y0089191D01*
X0200407Y0089145D01*
X0200359Y0089096D01*
X0200315Y0089045D01*
X0200273Y0088991D01*
X0200235Y0088935D01*
X0200199Y0088876D01*
X0200168Y0088816D01*
X0200139Y0088754D01*
X0200114Y0088690D01*
X0200093Y0088625D01*
X0200076Y0088559D01*
X0200062Y0088493D01*
X0200053Y0088425D01*
X0200047Y0088357D01*
X0200045Y0088289D01*
X0201956Y0086139D02*
X0202911Y0085183D01*
X0209450Y0086983D02*
X0211839Y0086983D01*
X0210644Y0086983D02*
X0210644Y0082683D01*
X0213632Y0083639D02*
X0213632Y0086028D01*
X0213634Y0086088D01*
X0213640Y0086148D01*
X0213649Y0086207D01*
X0213662Y0086266D01*
X0213679Y0086323D01*
X0213699Y0086380D01*
X0213723Y0086435D01*
X0213750Y0086489D01*
X0213781Y0086540D01*
X0213815Y0086590D01*
X0213851Y0086637D01*
X0213891Y0086682D01*
X0213934Y0086725D01*
X0213979Y0086765D01*
X0214026Y0086801D01*
X0214076Y0086835D01*
X0214127Y0086866D01*
X0214181Y0086893D01*
X0214236Y0086917D01*
X0214293Y0086937D01*
X0214350Y0086954D01*
X0214409Y0086967D01*
X0214468Y0086976D01*
X0214528Y0086982D01*
X0214588Y0086984D01*
X0214588Y0086983D02*
X0215543Y0086983D01*
X0217161Y0086983D02*
X0218594Y0084953D01*
X0218594Y0082683D01*
X0215543Y0082683D02*
X0214588Y0082683D01*
X0214528Y0082685D01*
X0214468Y0082691D01*
X0214409Y0082700D01*
X0214350Y0082713D01*
X0214293Y0082730D01*
X0214236Y0082750D01*
X0214181Y0082774D01*
X0214127Y0082801D01*
X0214076Y0082832D01*
X0214026Y0082866D01*
X0213979Y0082902D01*
X0213934Y0082942D01*
X0213891Y0082985D01*
X0213851Y0083030D01*
X0213815Y0083077D01*
X0213781Y0083127D01*
X0213750Y0083178D01*
X0213723Y0083232D01*
X0213699Y0083287D01*
X0213679Y0083344D01*
X0213662Y0083401D01*
X0213649Y0083460D01*
X0213640Y0083519D01*
X0213634Y0083579D01*
X0213632Y0083639D01*
X0218594Y0084953D02*
X0220028Y0086983D01*
X0219939Y0090183D02*
X0217550Y0090183D01*
X0219581Y0092572D01*
X0218864Y0094483D02*
X0218792Y0094481D01*
X0218720Y0094475D01*
X0218648Y0094466D01*
X0218577Y0094453D01*
X0218506Y0094436D01*
X0218437Y0094415D01*
X0218369Y0094391D01*
X0218302Y0094363D01*
X0218237Y0094332D01*
X0218173Y0094298D01*
X0218111Y0094260D01*
X0218052Y0094219D01*
X0217994Y0094175D01*
X0217939Y0094128D01*
X0217887Y0094078D01*
X0217837Y0094025D01*
X0217790Y0093970D01*
X0217746Y0093913D01*
X0217705Y0093853D01*
X0217667Y0093792D01*
X0217633Y0093728D01*
X0217602Y0093663D01*
X0217574Y0093596D01*
X0217550Y0093527D01*
X0219581Y0092572D02*
X0219628Y0092619D01*
X0219672Y0092669D01*
X0219713Y0092722D01*
X0219751Y0092777D01*
X0219786Y0092834D01*
X0219818Y0092892D01*
X0219846Y0092953D01*
X0219870Y0093015D01*
X0219891Y0093079D01*
X0219908Y0093143D01*
X0219922Y0093209D01*
X0219931Y0093275D01*
X0219937Y0093341D01*
X0219939Y0093408D01*
X0219937Y0093471D01*
X0219932Y0093533D01*
X0219923Y0093595D01*
X0219910Y0093656D01*
X0219894Y0093716D01*
X0219874Y0093776D01*
X0219851Y0093834D01*
X0219825Y0093890D01*
X0219795Y0093946D01*
X0219762Y0093999D01*
X0219726Y0094050D01*
X0219687Y0094099D01*
X0219646Y0094146D01*
X0219602Y0094190D01*
X0219555Y0094231D01*
X0219506Y0094270D01*
X0219455Y0094306D01*
X0219402Y0094339D01*
X0219346Y0094369D01*
X0219290Y0094395D01*
X0219232Y0094418D01*
X0219172Y0094438D01*
X0219112Y0094454D01*
X0219051Y0094467D01*
X0218989Y0094476D01*
X0218927Y0094481D01*
X0218864Y0094483D01*
X0215650Y0094961D02*
X0213739Y0089705D01*
X0210644Y0090183D02*
X0209450Y0090183D01*
X0210644Y0090184D02*
X0210712Y0090186D01*
X0210780Y0090192D01*
X0210848Y0090201D01*
X0210914Y0090215D01*
X0210980Y0090232D01*
X0211045Y0090253D01*
X0211109Y0090278D01*
X0211171Y0090307D01*
X0211231Y0090338D01*
X0211290Y0090374D01*
X0211346Y0090412D01*
X0211400Y0090454D01*
X0211451Y0090498D01*
X0211500Y0090546D01*
X0211546Y0090596D01*
X0211590Y0090649D01*
X0211630Y0090704D01*
X0211666Y0090761D01*
X0211700Y0090821D01*
X0211730Y0090882D01*
X0211757Y0090945D01*
X0211780Y0091009D01*
X0211799Y0091074D01*
X0211814Y0091141D01*
X0211826Y0091208D01*
X0211834Y0091276D01*
X0211838Y0091344D01*
X0211838Y0091412D01*
X0211834Y0091480D01*
X0211826Y0091548D01*
X0211814Y0091615D01*
X0211799Y0091682D01*
X0211780Y0091747D01*
X0211757Y0091811D01*
X0211730Y0091874D01*
X0211700Y0091935D01*
X0211666Y0091995D01*
X0211630Y0092052D01*
X0211590Y0092107D01*
X0211546Y0092160D01*
X0211500Y0092210D01*
X0211451Y0092258D01*
X0211400Y0092302D01*
X0211346Y0092344D01*
X0211290Y0092382D01*
X0211231Y0092418D01*
X0211171Y0092449D01*
X0211109Y0092478D01*
X0211045Y0092503D01*
X0210980Y0092524D01*
X0210914Y0092541D01*
X0210848Y0092555D01*
X0210780Y0092564D01*
X0210712Y0092570D01*
X0210644Y0092572D01*
X0210883Y0092572D02*
X0209928Y0092572D01*
X0210883Y0092572D02*
X0210943Y0092574D01*
X0211003Y0092580D01*
X0211062Y0092589D01*
X0211121Y0092602D01*
X0211178Y0092619D01*
X0211235Y0092639D01*
X0211290Y0092663D01*
X0211344Y0092690D01*
X0211395Y0092721D01*
X0211445Y0092755D01*
X0211492Y0092791D01*
X0211537Y0092831D01*
X0211580Y0092874D01*
X0211620Y0092919D01*
X0211656Y0092966D01*
X0211690Y0093016D01*
X0211721Y0093067D01*
X0211748Y0093121D01*
X0211772Y0093176D01*
X0211792Y0093233D01*
X0211809Y0093290D01*
X0211822Y0093349D01*
X0211831Y0093408D01*
X0211837Y0093468D01*
X0211839Y0093528D01*
X0211837Y0093588D01*
X0211831Y0093648D01*
X0211822Y0093707D01*
X0211809Y0093766D01*
X0211792Y0093823D01*
X0211772Y0093880D01*
X0211748Y0093935D01*
X0211721Y0093989D01*
X0211690Y0094040D01*
X0211656Y0094090D01*
X0211620Y0094137D01*
X0211580Y0094182D01*
X0211537Y0094225D01*
X0211492Y0094265D01*
X0211445Y0094301D01*
X0211395Y0094335D01*
X0211344Y0094366D01*
X0211290Y0094393D01*
X0211235Y0094417D01*
X0211178Y0094437D01*
X0211121Y0094454D01*
X0211062Y0094467D01*
X0211003Y0094476D01*
X0210943Y0094482D01*
X0210883Y0094484D01*
X0210883Y0094483D02*
X0209450Y0094483D01*
X0200738Y0100183D02*
X0200738Y0102333D01*
X0200736Y0102384D01*
X0200731Y0102435D01*
X0200722Y0102485D01*
X0200709Y0102535D01*
X0200693Y0102584D01*
X0200673Y0102631D01*
X0200650Y0102677D01*
X0200624Y0102721D01*
X0200595Y0102763D01*
X0200563Y0102803D01*
X0200528Y0102840D01*
X0200491Y0102875D01*
X0200451Y0102907D01*
X0200409Y0102936D01*
X0200365Y0102962D01*
X0200319Y0102985D01*
X0200272Y0103005D01*
X0200223Y0103021D01*
X0200173Y0103034D01*
X0200123Y0103043D01*
X0200072Y0103048D01*
X0200021Y0103050D01*
X0198827Y0103050D01*
X0198827Y0100183D01*
X0196782Y0100183D02*
X0196782Y0103050D01*
X0196663Y0104244D02*
X0196902Y0104244D01*
X0196902Y0104483D01*
X0196663Y0104483D01*
X0196663Y0104244D01*
X0195111Y0104483D02*
X0193200Y0104483D01*
X0193200Y0100183D01*
X0193200Y0102572D02*
X0195111Y0102572D01*
X0199689Y0117389D02*
X0201600Y0119778D01*
X0201480Y0120136D02*
X0201460Y0120190D01*
X0201436Y0120242D01*
X0201408Y0120293D01*
X0201378Y0120342D01*
X0201344Y0120389D01*
X0201307Y0120433D01*
X0201268Y0120475D01*
X0201226Y0120515D01*
X0201181Y0120551D01*
X0201134Y0120585D01*
X0201085Y0120615D01*
X0201034Y0120642D01*
X0200982Y0120666D01*
X0200927Y0120686D01*
X0200872Y0120703D01*
X0200816Y0120716D01*
X0200759Y0120725D01*
X0200702Y0120731D01*
X0200644Y0120733D01*
X0200586Y0120731D01*
X0200529Y0120725D01*
X0200472Y0120716D01*
X0200416Y0120703D01*
X0200361Y0120686D01*
X0200306Y0120666D01*
X0200254Y0120642D01*
X0200203Y0120615D01*
X0200154Y0120585D01*
X0200107Y0120551D01*
X0200062Y0120515D01*
X0200020Y0120475D01*
X0199981Y0120433D01*
X0199944Y0120389D01*
X0199910Y0120342D01*
X0199880Y0120293D01*
X0199852Y0120242D01*
X0199828Y0120190D01*
X0199808Y0120136D01*
X0201480Y0120136D02*
X0201528Y0120032D01*
X0201574Y0119926D01*
X0201615Y0119819D01*
X0201654Y0119711D01*
X0201688Y0119602D01*
X0201720Y0119491D01*
X0201747Y0119380D01*
X0201771Y0119267D01*
X0201792Y0119154D01*
X0201808Y0119041D01*
X0201821Y0118927D01*
X0201831Y0118812D01*
X0201836Y0118698D01*
X0201838Y0118583D01*
X0199450Y0118583D02*
X0199452Y0118698D01*
X0199457Y0118812D01*
X0199467Y0118927D01*
X0199480Y0119041D01*
X0199496Y0119154D01*
X0199517Y0119267D01*
X0199541Y0119380D01*
X0199568Y0119491D01*
X0199600Y0119602D01*
X0199634Y0119711D01*
X0199673Y0119819D01*
X0199714Y0119926D01*
X0199760Y0120032D01*
X0199808Y0120136D01*
X0201839Y0118583D02*
X0201837Y0118468D01*
X0201832Y0118354D01*
X0201822Y0118239D01*
X0201809Y0118125D01*
X0201793Y0118011D01*
X0201772Y0117898D01*
X0201748Y0117786D01*
X0201721Y0117675D01*
X0201689Y0117564D01*
X0201655Y0117455D01*
X0201616Y0117347D01*
X0201575Y0117240D01*
X0201529Y0117134D01*
X0201481Y0117030D01*
X0201480Y0117030D02*
X0201460Y0116976D01*
X0201436Y0116924D01*
X0201408Y0116873D01*
X0201378Y0116824D01*
X0201344Y0116777D01*
X0201307Y0116733D01*
X0201268Y0116691D01*
X0201226Y0116651D01*
X0201181Y0116615D01*
X0201134Y0116581D01*
X0201085Y0116551D01*
X0201034Y0116524D01*
X0200982Y0116500D01*
X0200927Y0116480D01*
X0200872Y0116463D01*
X0200816Y0116450D01*
X0200759Y0116441D01*
X0200702Y0116435D01*
X0200644Y0116433D01*
X0200586Y0116435D01*
X0200529Y0116441D01*
X0200472Y0116450D01*
X0200416Y0116463D01*
X0200361Y0116480D01*
X0200306Y0116500D01*
X0200254Y0116524D01*
X0200203Y0116551D01*
X0200154Y0116581D01*
X0200107Y0116615D01*
X0200062Y0116651D01*
X0200020Y0116691D01*
X0199981Y0116733D01*
X0199944Y0116777D01*
X0199910Y0116824D01*
X0199880Y0116873D01*
X0199852Y0116924D01*
X0199828Y0116976D01*
X0199808Y0117030D01*
X0199760Y0117134D01*
X0199714Y0117240D01*
X0199673Y0117347D01*
X0199634Y0117455D01*
X0199600Y0117564D01*
X0199568Y0117675D01*
X0199541Y0117786D01*
X0199517Y0117898D01*
X0199496Y0118011D01*
X0199480Y0118125D01*
X0199467Y0118239D01*
X0199457Y0118354D01*
X0199452Y0118468D01*
X0199450Y0118583D01*
X0199450Y0128933D02*
X0201839Y0128933D01*
X0200644Y0128933D02*
X0200644Y0133233D01*
X0199450Y0132278D01*
X0199689Y0139889D02*
X0201600Y0142278D01*
X0201480Y0142636D02*
X0201460Y0142690D01*
X0201436Y0142742D01*
X0201408Y0142793D01*
X0201378Y0142842D01*
X0201344Y0142889D01*
X0201307Y0142933D01*
X0201268Y0142975D01*
X0201226Y0143015D01*
X0201181Y0143051D01*
X0201134Y0143085D01*
X0201085Y0143115D01*
X0201034Y0143142D01*
X0200982Y0143166D01*
X0200927Y0143186D01*
X0200872Y0143203D01*
X0200816Y0143216D01*
X0200759Y0143225D01*
X0200702Y0143231D01*
X0200644Y0143233D01*
X0200586Y0143231D01*
X0200529Y0143225D01*
X0200472Y0143216D01*
X0200416Y0143203D01*
X0200361Y0143186D01*
X0200306Y0143166D01*
X0200254Y0143142D01*
X0200203Y0143115D01*
X0200154Y0143085D01*
X0200107Y0143051D01*
X0200062Y0143015D01*
X0200020Y0142975D01*
X0199981Y0142933D01*
X0199944Y0142889D01*
X0199910Y0142842D01*
X0199880Y0142793D01*
X0199852Y0142742D01*
X0199828Y0142690D01*
X0199808Y0142636D01*
X0201480Y0142636D02*
X0201528Y0142532D01*
X0201574Y0142426D01*
X0201615Y0142319D01*
X0201654Y0142211D01*
X0201688Y0142102D01*
X0201720Y0141991D01*
X0201747Y0141880D01*
X0201771Y0141767D01*
X0201792Y0141654D01*
X0201808Y0141541D01*
X0201821Y0141427D01*
X0201831Y0141312D01*
X0201836Y0141198D01*
X0201838Y0141083D01*
X0199450Y0141083D02*
X0199452Y0141198D01*
X0199457Y0141312D01*
X0199467Y0141427D01*
X0199480Y0141541D01*
X0199496Y0141654D01*
X0199517Y0141767D01*
X0199541Y0141880D01*
X0199568Y0141991D01*
X0199600Y0142102D01*
X0199634Y0142211D01*
X0199673Y0142319D01*
X0199714Y0142426D01*
X0199760Y0142532D01*
X0199808Y0142636D01*
X0201839Y0141083D02*
X0201837Y0140968D01*
X0201832Y0140854D01*
X0201822Y0140739D01*
X0201809Y0140625D01*
X0201793Y0140511D01*
X0201772Y0140398D01*
X0201748Y0140286D01*
X0201721Y0140175D01*
X0201689Y0140064D01*
X0201655Y0139955D01*
X0201616Y0139847D01*
X0201575Y0139740D01*
X0201529Y0139634D01*
X0201481Y0139530D01*
X0201480Y0139530D02*
X0201460Y0139476D01*
X0201436Y0139424D01*
X0201408Y0139373D01*
X0201378Y0139324D01*
X0201344Y0139277D01*
X0201307Y0139233D01*
X0201268Y0139191D01*
X0201226Y0139151D01*
X0201181Y0139115D01*
X0201134Y0139081D01*
X0201085Y0139051D01*
X0201034Y0139024D01*
X0200982Y0139000D01*
X0200927Y0138980D01*
X0200872Y0138963D01*
X0200816Y0138950D01*
X0200759Y0138941D01*
X0200702Y0138935D01*
X0200644Y0138933D01*
X0200586Y0138935D01*
X0200529Y0138941D01*
X0200472Y0138950D01*
X0200416Y0138963D01*
X0200361Y0138980D01*
X0200306Y0139000D01*
X0200254Y0139024D01*
X0200203Y0139051D01*
X0200154Y0139081D01*
X0200107Y0139115D01*
X0200062Y0139151D01*
X0200020Y0139191D01*
X0199981Y0139233D01*
X0199944Y0139277D01*
X0199910Y0139324D01*
X0199880Y0139373D01*
X0199852Y0139424D01*
X0199828Y0139476D01*
X0199808Y0139530D01*
X0199760Y0139634D01*
X0199714Y0139740D01*
X0199673Y0139847D01*
X0199634Y0139955D01*
X0199600Y0140064D01*
X0199568Y0140175D01*
X0199541Y0140286D01*
X0199517Y0140398D01*
X0199496Y0140511D01*
X0199480Y0140625D01*
X0199467Y0140739D01*
X0199457Y0140854D01*
X0199452Y0140968D01*
X0199450Y0141083D01*
X0199450Y0151433D02*
X0201839Y0151433D01*
X0200644Y0151433D02*
X0200644Y0155733D01*
X0199450Y0154778D01*
X0194158Y0158280D02*
X0194110Y0158384D01*
X0194064Y0158490D01*
X0194023Y0158597D01*
X0193984Y0158705D01*
X0193950Y0158814D01*
X0193918Y0158925D01*
X0193891Y0159036D01*
X0193867Y0159148D01*
X0193846Y0159261D01*
X0193830Y0159375D01*
X0193817Y0159489D01*
X0193807Y0159604D01*
X0193802Y0159718D01*
X0193800Y0159833D01*
X0196188Y0159833D02*
X0196186Y0159948D01*
X0196181Y0160062D01*
X0196171Y0160177D01*
X0196158Y0160291D01*
X0196142Y0160404D01*
X0196121Y0160517D01*
X0196097Y0160630D01*
X0196070Y0160741D01*
X0196038Y0160852D01*
X0196004Y0160961D01*
X0195965Y0161069D01*
X0195924Y0161176D01*
X0195878Y0161282D01*
X0195830Y0161386D01*
X0195950Y0161028D02*
X0194039Y0158639D01*
X0194994Y0157683D02*
X0195052Y0157685D01*
X0195109Y0157691D01*
X0195166Y0157700D01*
X0195222Y0157713D01*
X0195277Y0157730D01*
X0195332Y0157750D01*
X0195384Y0157774D01*
X0195435Y0157801D01*
X0195484Y0157831D01*
X0195531Y0157865D01*
X0195576Y0157901D01*
X0195618Y0157941D01*
X0195657Y0157983D01*
X0195694Y0158027D01*
X0195728Y0158074D01*
X0195758Y0158123D01*
X0195786Y0158174D01*
X0195810Y0158226D01*
X0195830Y0158280D01*
X0194994Y0157683D02*
X0194936Y0157685D01*
X0194879Y0157691D01*
X0194822Y0157700D01*
X0194766Y0157713D01*
X0194711Y0157730D01*
X0194656Y0157750D01*
X0194604Y0157774D01*
X0194553Y0157801D01*
X0194504Y0157831D01*
X0194457Y0157865D01*
X0194412Y0157901D01*
X0194370Y0157941D01*
X0194331Y0157983D01*
X0194294Y0158027D01*
X0194260Y0158074D01*
X0194230Y0158123D01*
X0194202Y0158174D01*
X0194178Y0158226D01*
X0194158Y0158280D01*
X0195831Y0158280D02*
X0195879Y0158384D01*
X0195925Y0158490D01*
X0195966Y0158597D01*
X0196005Y0158705D01*
X0196039Y0158814D01*
X0196071Y0158925D01*
X0196098Y0159036D01*
X0196122Y0159148D01*
X0196143Y0159261D01*
X0196159Y0159375D01*
X0196172Y0159489D01*
X0196182Y0159604D01*
X0196187Y0159718D01*
X0196189Y0159833D01*
X0193800Y0159833D02*
X0193802Y0159948D01*
X0193807Y0160062D01*
X0193817Y0160177D01*
X0193830Y0160291D01*
X0193846Y0160404D01*
X0193867Y0160517D01*
X0193891Y0160630D01*
X0193918Y0160741D01*
X0193950Y0160852D01*
X0193984Y0160961D01*
X0194023Y0161069D01*
X0194064Y0161176D01*
X0194110Y0161282D01*
X0194158Y0161386D01*
X0194994Y0161983D02*
X0195052Y0161981D01*
X0195109Y0161975D01*
X0195166Y0161966D01*
X0195222Y0161953D01*
X0195277Y0161936D01*
X0195332Y0161916D01*
X0195384Y0161892D01*
X0195435Y0161865D01*
X0195484Y0161835D01*
X0195531Y0161801D01*
X0195576Y0161765D01*
X0195618Y0161725D01*
X0195657Y0161683D01*
X0195694Y0161639D01*
X0195728Y0161592D01*
X0195758Y0161543D01*
X0195786Y0161492D01*
X0195810Y0161440D01*
X0195830Y0161386D01*
X0194994Y0161983D02*
X0194936Y0161981D01*
X0194879Y0161975D01*
X0194822Y0161966D01*
X0194766Y0161953D01*
X0194711Y0161936D01*
X0194656Y0161916D01*
X0194604Y0161892D01*
X0194553Y0161865D01*
X0194504Y0161835D01*
X0194457Y0161801D01*
X0194412Y0161765D01*
X0194370Y0161725D01*
X0194331Y0161683D01*
X0194294Y0161639D01*
X0194260Y0161592D01*
X0194230Y0161543D01*
X0194202Y0161492D01*
X0194178Y0161440D01*
X0194158Y0161386D01*
X0191361Y0159475D02*
X0190047Y0160192D01*
X0190525Y0161984D02*
X0190607Y0161982D01*
X0190690Y0161976D01*
X0190771Y0161967D01*
X0190853Y0161954D01*
X0190933Y0161937D01*
X0191013Y0161916D01*
X0191092Y0161892D01*
X0191169Y0161864D01*
X0191245Y0161833D01*
X0191320Y0161798D01*
X0191393Y0161760D01*
X0191464Y0161718D01*
X0191533Y0161673D01*
X0191600Y0161626D01*
X0190048Y0160192D02*
X0189997Y0160224D01*
X0189949Y0160259D01*
X0189904Y0160296D01*
X0189860Y0160336D01*
X0189819Y0160379D01*
X0189781Y0160424D01*
X0189745Y0160472D01*
X0189713Y0160521D01*
X0189684Y0160573D01*
X0189657Y0160626D01*
X0189634Y0160680D01*
X0189615Y0160736D01*
X0189599Y0160793D01*
X0189586Y0160851D01*
X0189577Y0160910D01*
X0189572Y0160969D01*
X0189570Y0161028D01*
X0189569Y0161028D02*
X0189571Y0161088D01*
X0189577Y0161148D01*
X0189586Y0161207D01*
X0189599Y0161266D01*
X0189616Y0161323D01*
X0189636Y0161380D01*
X0189660Y0161435D01*
X0189687Y0161489D01*
X0189718Y0161540D01*
X0189752Y0161590D01*
X0189788Y0161637D01*
X0189828Y0161682D01*
X0189871Y0161725D01*
X0189916Y0161765D01*
X0189963Y0161801D01*
X0190013Y0161835D01*
X0190064Y0161866D01*
X0190118Y0161893D01*
X0190173Y0161917D01*
X0190230Y0161937D01*
X0190287Y0161954D01*
X0190346Y0161967D01*
X0190405Y0161976D01*
X0190465Y0161982D01*
X0190525Y0161984D01*
X0189449Y0158280D02*
X0189513Y0158219D01*
X0189579Y0158160D01*
X0189648Y0158105D01*
X0189720Y0158052D01*
X0189793Y0158002D01*
X0189869Y0157956D01*
X0189946Y0157914D01*
X0190025Y0157874D01*
X0190106Y0157838D01*
X0190189Y0157806D01*
X0190273Y0157777D01*
X0190358Y0157753D01*
X0190444Y0157731D01*
X0190531Y0157714D01*
X0190618Y0157700D01*
X0190706Y0157691D01*
X0190794Y0157685D01*
X0190883Y0157683D01*
X0190943Y0157685D01*
X0191003Y0157691D01*
X0191062Y0157700D01*
X0191121Y0157713D01*
X0191178Y0157730D01*
X0191235Y0157750D01*
X0191290Y0157774D01*
X0191344Y0157801D01*
X0191395Y0157832D01*
X0191445Y0157866D01*
X0191492Y0157902D01*
X0191537Y0157942D01*
X0191580Y0157985D01*
X0191620Y0158030D01*
X0191656Y0158077D01*
X0191690Y0158127D01*
X0191721Y0158178D01*
X0191748Y0158232D01*
X0191772Y0158287D01*
X0191792Y0158344D01*
X0191809Y0158401D01*
X0191822Y0158460D01*
X0191831Y0158519D01*
X0191837Y0158579D01*
X0191839Y0158639D01*
X0191838Y0158639D02*
X0191836Y0158698D01*
X0191831Y0158757D01*
X0191822Y0158816D01*
X0191809Y0158874D01*
X0191793Y0158931D01*
X0191774Y0158987D01*
X0191751Y0159041D01*
X0191724Y0159094D01*
X0191695Y0159146D01*
X0191663Y0159195D01*
X0191627Y0159243D01*
X0191589Y0159288D01*
X0191548Y0159331D01*
X0191504Y0159371D01*
X0191459Y0159408D01*
X0191411Y0159443D01*
X0191360Y0159475D01*
X0159021Y0145733D02*
X0159021Y0141433D01*
X0160932Y0141433D01*
X0157032Y0141433D02*
X0155121Y0141433D01*
X0155121Y0145733D01*
X0151894Y0145733D02*
X0150700Y0145733D01*
X0150700Y0141433D01*
X0150700Y0143344D02*
X0151894Y0143344D01*
X0151894Y0143345D02*
X0151962Y0143347D01*
X0152030Y0143353D01*
X0152098Y0143362D01*
X0152164Y0143376D01*
X0152230Y0143393D01*
X0152295Y0143414D01*
X0152359Y0143439D01*
X0152421Y0143468D01*
X0152481Y0143499D01*
X0152540Y0143535D01*
X0152596Y0143573D01*
X0152650Y0143615D01*
X0152701Y0143659D01*
X0152750Y0143707D01*
X0152796Y0143757D01*
X0152840Y0143810D01*
X0152880Y0143865D01*
X0152916Y0143922D01*
X0152950Y0143982D01*
X0152980Y0144043D01*
X0153007Y0144106D01*
X0153030Y0144170D01*
X0153049Y0144235D01*
X0153064Y0144302D01*
X0153076Y0144369D01*
X0153084Y0144437D01*
X0153088Y0144505D01*
X0153088Y0144573D01*
X0153084Y0144641D01*
X0153076Y0144709D01*
X0153064Y0144776D01*
X0153049Y0144843D01*
X0153030Y0144908D01*
X0153007Y0144972D01*
X0152980Y0145035D01*
X0152950Y0145096D01*
X0152916Y0145156D01*
X0152880Y0145213D01*
X0152840Y0145268D01*
X0152796Y0145321D01*
X0152750Y0145371D01*
X0152701Y0145419D01*
X0152650Y0145463D01*
X0152596Y0145505D01*
X0152540Y0145543D01*
X0152481Y0145579D01*
X0152421Y0145610D01*
X0152359Y0145639D01*
X0152295Y0145664D01*
X0152230Y0145685D01*
X0152164Y0145702D01*
X0152098Y0145716D01*
X0152030Y0145725D01*
X0151962Y0145731D01*
X0151894Y0145733D01*
X0179569Y0119778D02*
X0179571Y0119838D01*
X0179577Y0119898D01*
X0179586Y0119957D01*
X0179599Y0120016D01*
X0179616Y0120073D01*
X0179636Y0120130D01*
X0179660Y0120185D01*
X0179687Y0120239D01*
X0179718Y0120290D01*
X0179752Y0120340D01*
X0179788Y0120387D01*
X0179828Y0120432D01*
X0179871Y0120475D01*
X0179916Y0120515D01*
X0179963Y0120551D01*
X0180013Y0120585D01*
X0180064Y0120616D01*
X0180118Y0120643D01*
X0180173Y0120667D01*
X0180230Y0120687D01*
X0180287Y0120704D01*
X0180346Y0120717D01*
X0180405Y0120726D01*
X0180465Y0120732D01*
X0180525Y0120734D01*
X0179570Y0119778D02*
X0179572Y0119719D01*
X0179577Y0119660D01*
X0179586Y0119601D01*
X0179599Y0119543D01*
X0179615Y0119486D01*
X0179634Y0119430D01*
X0179657Y0119376D01*
X0179684Y0119323D01*
X0179713Y0119271D01*
X0179745Y0119222D01*
X0179781Y0119174D01*
X0179819Y0119129D01*
X0179860Y0119086D01*
X0179904Y0119046D01*
X0179949Y0119009D01*
X0179997Y0118974D01*
X0180048Y0118942D01*
X0180047Y0118942D02*
X0181361Y0118225D01*
X0180883Y0116433D02*
X0180794Y0116435D01*
X0180706Y0116441D01*
X0180618Y0116450D01*
X0180531Y0116464D01*
X0180444Y0116481D01*
X0180358Y0116503D01*
X0180273Y0116527D01*
X0180189Y0116556D01*
X0180106Y0116588D01*
X0180025Y0116624D01*
X0179946Y0116664D01*
X0179869Y0116706D01*
X0179793Y0116752D01*
X0179720Y0116802D01*
X0179648Y0116855D01*
X0179579Y0116910D01*
X0179513Y0116969D01*
X0179449Y0117030D01*
X0181360Y0118225D02*
X0181411Y0118193D01*
X0181459Y0118158D01*
X0181504Y0118121D01*
X0181548Y0118081D01*
X0181589Y0118038D01*
X0181627Y0117993D01*
X0181663Y0117945D01*
X0181695Y0117896D01*
X0181724Y0117844D01*
X0181751Y0117791D01*
X0181774Y0117737D01*
X0181793Y0117681D01*
X0181809Y0117624D01*
X0181822Y0117566D01*
X0181831Y0117507D01*
X0181836Y0117448D01*
X0181838Y0117389D01*
X0181839Y0117389D02*
X0181837Y0117329D01*
X0181831Y0117269D01*
X0181822Y0117210D01*
X0181809Y0117151D01*
X0181792Y0117094D01*
X0181772Y0117037D01*
X0181748Y0116982D01*
X0181721Y0116928D01*
X0181690Y0116877D01*
X0181656Y0116827D01*
X0181620Y0116780D01*
X0181580Y0116735D01*
X0181537Y0116692D01*
X0181492Y0116652D01*
X0181445Y0116616D01*
X0181395Y0116582D01*
X0181344Y0116551D01*
X0181290Y0116524D01*
X0181235Y0116500D01*
X0181178Y0116480D01*
X0181121Y0116463D01*
X0181062Y0116450D01*
X0181003Y0116441D01*
X0180943Y0116435D01*
X0180883Y0116433D01*
X0181600Y0120376D02*
X0181533Y0120423D01*
X0181464Y0120468D01*
X0181393Y0120510D01*
X0181320Y0120548D01*
X0181245Y0120583D01*
X0181169Y0120614D01*
X0181092Y0120642D01*
X0181013Y0120666D01*
X0180933Y0120687D01*
X0180853Y0120704D01*
X0180771Y0120717D01*
X0180690Y0120726D01*
X0180607Y0120732D01*
X0180525Y0120734D01*
X0183800Y0119778D02*
X0184994Y0120733D01*
X0184994Y0116433D01*
X0183800Y0116433D02*
X0186189Y0116433D01*
X0223750Y0094961D02*
X0221839Y0089705D01*
X0225650Y0090183D02*
X0228039Y0090183D01*
X0232181Y0090780D02*
X0232229Y0090884D01*
X0232275Y0090990D01*
X0232316Y0091097D01*
X0232355Y0091205D01*
X0232389Y0091314D01*
X0232421Y0091425D01*
X0232448Y0091536D01*
X0232472Y0091648D01*
X0232493Y0091761D01*
X0232509Y0091875D01*
X0232522Y0091989D01*
X0232532Y0092104D01*
X0232537Y0092218D01*
X0232539Y0092333D01*
X0230150Y0092333D02*
X0230152Y0092448D01*
X0230157Y0092562D01*
X0230167Y0092677D01*
X0230180Y0092791D01*
X0230196Y0092904D01*
X0230217Y0093017D01*
X0230241Y0093130D01*
X0230268Y0093241D01*
X0230300Y0093352D01*
X0230334Y0093461D01*
X0230373Y0093569D01*
X0230414Y0093676D01*
X0230460Y0093782D01*
X0230508Y0093886D01*
X0231344Y0094483D02*
X0231402Y0094481D01*
X0231459Y0094475D01*
X0231516Y0094466D01*
X0231572Y0094453D01*
X0231627Y0094436D01*
X0231682Y0094416D01*
X0231734Y0094392D01*
X0231785Y0094365D01*
X0231834Y0094335D01*
X0231881Y0094301D01*
X0231926Y0094265D01*
X0231968Y0094225D01*
X0232007Y0094183D01*
X0232044Y0094139D01*
X0232078Y0094092D01*
X0232108Y0094043D01*
X0232136Y0093992D01*
X0232160Y0093940D01*
X0232180Y0093886D01*
X0232300Y0093528D02*
X0230389Y0091139D01*
X0231344Y0090183D02*
X0231402Y0090185D01*
X0231459Y0090191D01*
X0231516Y0090200D01*
X0231572Y0090213D01*
X0231627Y0090230D01*
X0231682Y0090250D01*
X0231734Y0090274D01*
X0231785Y0090301D01*
X0231834Y0090331D01*
X0231881Y0090365D01*
X0231926Y0090401D01*
X0231968Y0090441D01*
X0232007Y0090483D01*
X0232044Y0090527D01*
X0232078Y0090574D01*
X0232108Y0090623D01*
X0232136Y0090674D01*
X0232160Y0090726D01*
X0232180Y0090780D01*
X0231344Y0090183D02*
X0231286Y0090185D01*
X0231229Y0090191D01*
X0231172Y0090200D01*
X0231116Y0090213D01*
X0231061Y0090230D01*
X0231006Y0090250D01*
X0230954Y0090274D01*
X0230903Y0090301D01*
X0230854Y0090331D01*
X0230807Y0090365D01*
X0230762Y0090401D01*
X0230720Y0090441D01*
X0230681Y0090483D01*
X0230644Y0090527D01*
X0230610Y0090574D01*
X0230580Y0090623D01*
X0230552Y0090674D01*
X0230528Y0090726D01*
X0230508Y0090780D01*
X0232538Y0092333D02*
X0232536Y0092448D01*
X0232531Y0092562D01*
X0232521Y0092677D01*
X0232508Y0092791D01*
X0232492Y0092904D01*
X0232471Y0093017D01*
X0232447Y0093130D01*
X0232420Y0093241D01*
X0232388Y0093352D01*
X0232354Y0093461D01*
X0232315Y0093569D01*
X0232274Y0093676D01*
X0232228Y0093782D01*
X0232180Y0093886D01*
X0231344Y0094483D02*
X0231286Y0094481D01*
X0231229Y0094475D01*
X0231172Y0094466D01*
X0231116Y0094453D01*
X0231061Y0094436D01*
X0231006Y0094416D01*
X0230954Y0094392D01*
X0230903Y0094365D01*
X0230854Y0094335D01*
X0230807Y0094301D01*
X0230762Y0094265D01*
X0230720Y0094225D01*
X0230681Y0094183D01*
X0230644Y0094139D01*
X0230610Y0094092D01*
X0230580Y0094043D01*
X0230552Y0093992D01*
X0230528Y0093940D01*
X0230508Y0093886D01*
X0227681Y0092572D02*
X0225650Y0090183D01*
X0225650Y0093527D02*
X0225674Y0093596D01*
X0225702Y0093663D01*
X0225733Y0093728D01*
X0225767Y0093792D01*
X0225805Y0093853D01*
X0225846Y0093913D01*
X0225890Y0093970D01*
X0225937Y0094025D01*
X0225987Y0094078D01*
X0226039Y0094128D01*
X0226094Y0094175D01*
X0226152Y0094219D01*
X0226211Y0094260D01*
X0226273Y0094298D01*
X0226337Y0094332D01*
X0226402Y0094363D01*
X0226469Y0094391D01*
X0226537Y0094415D01*
X0226606Y0094436D01*
X0226677Y0094453D01*
X0226748Y0094466D01*
X0226820Y0094475D01*
X0226892Y0094481D01*
X0226964Y0094483D01*
X0227027Y0094481D01*
X0227089Y0094476D01*
X0227151Y0094467D01*
X0227212Y0094454D01*
X0227272Y0094438D01*
X0227332Y0094418D01*
X0227390Y0094395D01*
X0227446Y0094369D01*
X0227502Y0094339D01*
X0227555Y0094306D01*
X0227606Y0094270D01*
X0227655Y0094231D01*
X0227702Y0094190D01*
X0227746Y0094146D01*
X0227787Y0094099D01*
X0227826Y0094050D01*
X0227862Y0093999D01*
X0227895Y0093946D01*
X0227925Y0093890D01*
X0227951Y0093834D01*
X0227974Y0093776D01*
X0227994Y0093716D01*
X0228010Y0093656D01*
X0228023Y0093595D01*
X0228032Y0093533D01*
X0228037Y0093471D01*
X0228039Y0093408D01*
X0228037Y0093341D01*
X0228031Y0093275D01*
X0228022Y0093209D01*
X0228008Y0093143D01*
X0227991Y0093079D01*
X0227970Y0093015D01*
X0227946Y0092953D01*
X0227918Y0092892D01*
X0227886Y0092834D01*
X0227851Y0092777D01*
X0227813Y0092722D01*
X0227772Y0092669D01*
X0227728Y0092619D01*
X0227681Y0092572D01*
X0230150Y0092333D02*
X0230152Y0092218D01*
X0230157Y0092104D01*
X0230167Y0091989D01*
X0230180Y0091875D01*
X0230196Y0091761D01*
X0230217Y0091648D01*
X0230241Y0091536D01*
X0230268Y0091425D01*
X0230300Y0091314D01*
X0230334Y0091205D01*
X0230373Y0091097D01*
X0230414Y0090990D01*
X0230460Y0090884D01*
X0230508Y0090780D01*
X0234650Y0090183D02*
X0237039Y0090183D01*
X0235844Y0090183D02*
X0235844Y0094483D01*
X0234650Y0093528D01*
X0239388Y0093528D02*
X0239390Y0093468D01*
X0239396Y0093408D01*
X0239405Y0093349D01*
X0239418Y0093290D01*
X0239435Y0093233D01*
X0239455Y0093176D01*
X0239479Y0093121D01*
X0239506Y0093067D01*
X0239537Y0093016D01*
X0239571Y0092966D01*
X0239607Y0092919D01*
X0239647Y0092874D01*
X0239690Y0092831D01*
X0239735Y0092791D01*
X0239782Y0092755D01*
X0239832Y0092721D01*
X0239883Y0092690D01*
X0239937Y0092663D01*
X0239992Y0092639D01*
X0240049Y0092619D01*
X0240106Y0092602D01*
X0240165Y0092589D01*
X0240224Y0092580D01*
X0240284Y0092574D01*
X0240344Y0092572D01*
X0240404Y0092574D01*
X0240464Y0092580D01*
X0240523Y0092589D01*
X0240582Y0092602D01*
X0240639Y0092619D01*
X0240696Y0092639D01*
X0240751Y0092663D01*
X0240805Y0092690D01*
X0240856Y0092721D01*
X0240906Y0092755D01*
X0240953Y0092791D01*
X0240998Y0092831D01*
X0241041Y0092874D01*
X0241081Y0092919D01*
X0241117Y0092966D01*
X0241151Y0093016D01*
X0241182Y0093067D01*
X0241209Y0093121D01*
X0241233Y0093176D01*
X0241253Y0093233D01*
X0241270Y0093290D01*
X0241283Y0093349D01*
X0241292Y0093408D01*
X0241298Y0093468D01*
X0241300Y0093528D01*
X0241298Y0093588D01*
X0241292Y0093648D01*
X0241283Y0093707D01*
X0241270Y0093766D01*
X0241253Y0093823D01*
X0241233Y0093880D01*
X0241209Y0093935D01*
X0241182Y0093989D01*
X0241151Y0094040D01*
X0241117Y0094090D01*
X0241081Y0094137D01*
X0241041Y0094182D01*
X0240998Y0094225D01*
X0240953Y0094265D01*
X0240906Y0094301D01*
X0240856Y0094335D01*
X0240805Y0094366D01*
X0240751Y0094393D01*
X0240696Y0094417D01*
X0240639Y0094437D01*
X0240582Y0094454D01*
X0240523Y0094467D01*
X0240464Y0094476D01*
X0240404Y0094482D01*
X0240344Y0094484D01*
X0240284Y0094482D01*
X0240224Y0094476D01*
X0240165Y0094467D01*
X0240106Y0094454D01*
X0240049Y0094437D01*
X0239992Y0094417D01*
X0239937Y0094393D01*
X0239883Y0094366D01*
X0239832Y0094335D01*
X0239782Y0094301D01*
X0239735Y0094265D01*
X0239690Y0094225D01*
X0239647Y0094182D01*
X0239607Y0094137D01*
X0239571Y0094090D01*
X0239537Y0094040D01*
X0239506Y0093989D01*
X0239479Y0093935D01*
X0239455Y0093880D01*
X0239435Y0093823D01*
X0239418Y0093766D01*
X0239405Y0093707D01*
X0239396Y0093648D01*
X0239390Y0093588D01*
X0239388Y0093528D01*
X0239150Y0091378D02*
X0239152Y0091310D01*
X0239158Y0091242D01*
X0239167Y0091174D01*
X0239181Y0091108D01*
X0239198Y0091042D01*
X0239219Y0090977D01*
X0239244Y0090913D01*
X0239273Y0090851D01*
X0239304Y0090791D01*
X0239340Y0090732D01*
X0239378Y0090676D01*
X0239420Y0090622D01*
X0239464Y0090571D01*
X0239512Y0090522D01*
X0239562Y0090476D01*
X0239615Y0090432D01*
X0239670Y0090392D01*
X0239727Y0090356D01*
X0239787Y0090322D01*
X0239848Y0090292D01*
X0239911Y0090265D01*
X0239975Y0090242D01*
X0240040Y0090223D01*
X0240107Y0090208D01*
X0240174Y0090196D01*
X0240242Y0090188D01*
X0240310Y0090184D01*
X0240378Y0090184D01*
X0240446Y0090188D01*
X0240514Y0090196D01*
X0240581Y0090208D01*
X0240648Y0090223D01*
X0240713Y0090242D01*
X0240777Y0090265D01*
X0240840Y0090292D01*
X0240901Y0090322D01*
X0240961Y0090356D01*
X0241018Y0090392D01*
X0241073Y0090432D01*
X0241126Y0090476D01*
X0241176Y0090522D01*
X0241224Y0090571D01*
X0241268Y0090622D01*
X0241310Y0090676D01*
X0241348Y0090732D01*
X0241384Y0090791D01*
X0241415Y0090851D01*
X0241444Y0090913D01*
X0241469Y0090977D01*
X0241490Y0091042D01*
X0241507Y0091108D01*
X0241521Y0091174D01*
X0241530Y0091242D01*
X0241536Y0091310D01*
X0241538Y0091378D01*
X0241536Y0091446D01*
X0241530Y0091514D01*
X0241521Y0091582D01*
X0241507Y0091648D01*
X0241490Y0091714D01*
X0241469Y0091779D01*
X0241444Y0091843D01*
X0241415Y0091905D01*
X0241384Y0091965D01*
X0241348Y0092024D01*
X0241310Y0092080D01*
X0241268Y0092134D01*
X0241224Y0092185D01*
X0241176Y0092234D01*
X0241126Y0092280D01*
X0241073Y0092324D01*
X0241018Y0092364D01*
X0240961Y0092400D01*
X0240901Y0092434D01*
X0240840Y0092464D01*
X0240777Y0092491D01*
X0240713Y0092514D01*
X0240648Y0092533D01*
X0240581Y0092548D01*
X0240514Y0092560D01*
X0240446Y0092568D01*
X0240378Y0092572D01*
X0240310Y0092572D01*
X0240242Y0092568D01*
X0240174Y0092560D01*
X0240107Y0092548D01*
X0240040Y0092533D01*
X0239975Y0092514D01*
X0239911Y0092491D01*
X0239848Y0092464D01*
X0239787Y0092434D01*
X0239727Y0092400D01*
X0239670Y0092364D01*
X0239615Y0092324D01*
X0239562Y0092280D01*
X0239512Y0092234D01*
X0239464Y0092185D01*
X0239420Y0092134D01*
X0239378Y0092080D01*
X0239340Y0092024D01*
X0239304Y0091965D01*
X0239273Y0091905D01*
X0239244Y0091843D01*
X0239219Y0091779D01*
X0239198Y0091714D01*
X0239181Y0091648D01*
X0239167Y0091582D01*
X0239158Y0091514D01*
X0239152Y0091446D01*
X0239150Y0091378D01*
X0174488Y0087333D02*
X0174488Y0085183D01*
X0172577Y0085183D02*
X0172577Y0088050D01*
X0173771Y0088050D01*
X0173822Y0088048D01*
X0173873Y0088043D01*
X0173923Y0088034D01*
X0173973Y0088021D01*
X0174022Y0088005D01*
X0174069Y0087985D01*
X0174115Y0087962D01*
X0174159Y0087936D01*
X0174201Y0087907D01*
X0174241Y0087875D01*
X0174278Y0087840D01*
X0174313Y0087803D01*
X0174345Y0087763D01*
X0174374Y0087721D01*
X0174400Y0087677D01*
X0174423Y0087631D01*
X0174443Y0087584D01*
X0174459Y0087535D01*
X0174472Y0087485D01*
X0174481Y0087435D01*
X0174486Y0087384D01*
X0174488Y0087333D01*
X0170532Y0088050D02*
X0170532Y0085183D01*
X0168861Y0087572D02*
X0166950Y0087572D01*
X0166950Y0089483D02*
X0166950Y0085183D01*
X0166950Y0089483D02*
X0168861Y0089483D01*
X0170413Y0089483D02*
X0170652Y0089483D01*
X0170652Y0089244D01*
X0170413Y0089244D01*
X0170413Y0089483D01*
X0141617Y0046983D02*
X0140183Y0042683D01*
X0138750Y0046983D01*
X0136878Y0046983D02*
X0134489Y0046983D01*
X0134489Y0045072D01*
X0135922Y0045072D01*
X0135922Y0045073D02*
X0135982Y0045071D01*
X0136042Y0045065D01*
X0136101Y0045056D01*
X0136160Y0045043D01*
X0136217Y0045026D01*
X0136274Y0045006D01*
X0136329Y0044982D01*
X0136383Y0044955D01*
X0136434Y0044924D01*
X0136484Y0044890D01*
X0136531Y0044854D01*
X0136576Y0044814D01*
X0136619Y0044771D01*
X0136659Y0044726D01*
X0136695Y0044679D01*
X0136729Y0044629D01*
X0136760Y0044578D01*
X0136787Y0044524D01*
X0136811Y0044469D01*
X0136831Y0044412D01*
X0136848Y0044355D01*
X0136861Y0044296D01*
X0136870Y0044237D01*
X0136876Y0044177D01*
X0136878Y0044117D01*
X0136878Y0043639D01*
X0136876Y0043579D01*
X0136870Y0043519D01*
X0136861Y0043460D01*
X0136848Y0043401D01*
X0136831Y0043344D01*
X0136811Y0043287D01*
X0136787Y0043232D01*
X0136760Y0043178D01*
X0136729Y0043127D01*
X0136695Y0043077D01*
X0136659Y0043030D01*
X0136619Y0042985D01*
X0136576Y0042942D01*
X0136531Y0042902D01*
X0136484Y0042866D01*
X0136434Y0042832D01*
X0136383Y0042801D01*
X0136329Y0042774D01*
X0136274Y0042750D01*
X0136217Y0042730D01*
X0136160Y0042713D01*
X0136101Y0042700D01*
X0136042Y0042691D01*
X0135982Y0042685D01*
X0135922Y0042683D01*
X0134489Y0042683D01*
X0132317Y0044355D02*
X0129450Y0044355D01*
X0130883Y0042922D02*
X0130883Y0045789D01*
X0134489Y0036983D02*
X0135922Y0036983D01*
X0135922Y0036984D02*
X0135982Y0036982D01*
X0136042Y0036976D01*
X0136101Y0036967D01*
X0136160Y0036954D01*
X0136217Y0036937D01*
X0136274Y0036917D01*
X0136329Y0036893D01*
X0136383Y0036866D01*
X0136434Y0036835D01*
X0136484Y0036801D01*
X0136531Y0036765D01*
X0136576Y0036725D01*
X0136619Y0036682D01*
X0136659Y0036637D01*
X0136695Y0036590D01*
X0136729Y0036540D01*
X0136760Y0036489D01*
X0136787Y0036435D01*
X0136811Y0036380D01*
X0136831Y0036323D01*
X0136848Y0036266D01*
X0136861Y0036207D01*
X0136870Y0036148D01*
X0136876Y0036088D01*
X0136878Y0036028D01*
X0136876Y0035968D01*
X0136870Y0035908D01*
X0136861Y0035849D01*
X0136848Y0035790D01*
X0136831Y0035733D01*
X0136811Y0035676D01*
X0136787Y0035621D01*
X0136760Y0035567D01*
X0136729Y0035516D01*
X0136695Y0035466D01*
X0136659Y0035419D01*
X0136619Y0035374D01*
X0136576Y0035331D01*
X0136531Y0035291D01*
X0136484Y0035255D01*
X0136434Y0035221D01*
X0136383Y0035190D01*
X0136329Y0035163D01*
X0136274Y0035139D01*
X0136217Y0035119D01*
X0136160Y0035102D01*
X0136101Y0035089D01*
X0136042Y0035080D01*
X0135982Y0035074D01*
X0135922Y0035072D01*
X0134967Y0035072D01*
X0135683Y0035072D02*
X0135751Y0035070D01*
X0135819Y0035064D01*
X0135887Y0035055D01*
X0135953Y0035041D01*
X0136019Y0035024D01*
X0136084Y0035003D01*
X0136148Y0034978D01*
X0136210Y0034949D01*
X0136270Y0034918D01*
X0136329Y0034882D01*
X0136385Y0034844D01*
X0136439Y0034802D01*
X0136490Y0034758D01*
X0136539Y0034710D01*
X0136585Y0034660D01*
X0136629Y0034607D01*
X0136669Y0034552D01*
X0136705Y0034495D01*
X0136739Y0034435D01*
X0136769Y0034374D01*
X0136796Y0034311D01*
X0136819Y0034247D01*
X0136838Y0034182D01*
X0136853Y0034115D01*
X0136865Y0034048D01*
X0136873Y0033980D01*
X0136877Y0033912D01*
X0136877Y0033844D01*
X0136873Y0033776D01*
X0136865Y0033708D01*
X0136853Y0033641D01*
X0136838Y0033574D01*
X0136819Y0033509D01*
X0136796Y0033445D01*
X0136769Y0033382D01*
X0136739Y0033321D01*
X0136705Y0033261D01*
X0136669Y0033204D01*
X0136629Y0033149D01*
X0136585Y0033096D01*
X0136539Y0033046D01*
X0136490Y0032998D01*
X0136439Y0032954D01*
X0136385Y0032912D01*
X0136329Y0032874D01*
X0136270Y0032838D01*
X0136210Y0032807D01*
X0136148Y0032778D01*
X0136084Y0032753D01*
X0136019Y0032732D01*
X0135953Y0032715D01*
X0135887Y0032701D01*
X0135819Y0032692D01*
X0135751Y0032686D01*
X0135683Y0032684D01*
X0135683Y0032683D02*
X0134489Y0032683D01*
X0132317Y0034355D02*
X0129450Y0034355D01*
X0130883Y0032922D02*
X0130883Y0035789D01*
X0138714Y0032922D02*
X0138714Y0032683D01*
X0138953Y0032683D01*
X0138953Y0032922D01*
X0138714Y0032922D01*
X0140789Y0032683D02*
X0141983Y0032683D01*
X0141983Y0032684D02*
X0142051Y0032686D01*
X0142119Y0032692D01*
X0142187Y0032701D01*
X0142253Y0032715D01*
X0142319Y0032732D01*
X0142384Y0032753D01*
X0142448Y0032778D01*
X0142510Y0032807D01*
X0142570Y0032838D01*
X0142629Y0032874D01*
X0142685Y0032912D01*
X0142739Y0032954D01*
X0142790Y0032998D01*
X0142839Y0033046D01*
X0142885Y0033096D01*
X0142929Y0033149D01*
X0142969Y0033204D01*
X0143005Y0033261D01*
X0143039Y0033321D01*
X0143069Y0033382D01*
X0143096Y0033445D01*
X0143119Y0033509D01*
X0143138Y0033574D01*
X0143153Y0033641D01*
X0143165Y0033708D01*
X0143173Y0033776D01*
X0143177Y0033844D01*
X0143177Y0033912D01*
X0143173Y0033980D01*
X0143165Y0034048D01*
X0143153Y0034115D01*
X0143138Y0034182D01*
X0143119Y0034247D01*
X0143096Y0034311D01*
X0143069Y0034374D01*
X0143039Y0034435D01*
X0143005Y0034495D01*
X0142969Y0034552D01*
X0142929Y0034607D01*
X0142885Y0034660D01*
X0142839Y0034710D01*
X0142790Y0034758D01*
X0142739Y0034802D01*
X0142685Y0034844D01*
X0142629Y0034882D01*
X0142570Y0034918D01*
X0142510Y0034949D01*
X0142448Y0034978D01*
X0142384Y0035003D01*
X0142319Y0035024D01*
X0142253Y0035041D01*
X0142187Y0035055D01*
X0142119Y0035064D01*
X0142051Y0035070D01*
X0141983Y0035072D01*
X0142222Y0035072D02*
X0141267Y0035072D01*
X0142222Y0035072D02*
X0142282Y0035074D01*
X0142342Y0035080D01*
X0142401Y0035089D01*
X0142460Y0035102D01*
X0142517Y0035119D01*
X0142574Y0035139D01*
X0142629Y0035163D01*
X0142683Y0035190D01*
X0142734Y0035221D01*
X0142784Y0035255D01*
X0142831Y0035291D01*
X0142876Y0035331D01*
X0142919Y0035374D01*
X0142959Y0035419D01*
X0142995Y0035466D01*
X0143029Y0035516D01*
X0143060Y0035567D01*
X0143087Y0035621D01*
X0143111Y0035676D01*
X0143131Y0035733D01*
X0143148Y0035790D01*
X0143161Y0035849D01*
X0143170Y0035908D01*
X0143176Y0035968D01*
X0143178Y0036028D01*
X0143176Y0036088D01*
X0143170Y0036148D01*
X0143161Y0036207D01*
X0143148Y0036266D01*
X0143131Y0036323D01*
X0143111Y0036380D01*
X0143087Y0036435D01*
X0143060Y0036489D01*
X0143029Y0036540D01*
X0142995Y0036590D01*
X0142959Y0036637D01*
X0142919Y0036682D01*
X0142876Y0036725D01*
X0142831Y0036765D01*
X0142784Y0036801D01*
X0142734Y0036835D01*
X0142683Y0036866D01*
X0142629Y0036893D01*
X0142574Y0036917D01*
X0142517Y0036937D01*
X0142460Y0036954D01*
X0142401Y0036967D01*
X0142342Y0036976D01*
X0142282Y0036982D01*
X0142222Y0036984D01*
X0142222Y0036983D02*
X0140789Y0036983D01*
X0145050Y0036983D02*
X0146483Y0032683D01*
X0147917Y0036983D01*
X0155700Y0030789D02*
X0155700Y0028878D01*
X0155702Y0028810D01*
X0155708Y0028742D01*
X0155717Y0028674D01*
X0155731Y0028608D01*
X0155748Y0028542D01*
X0155769Y0028477D01*
X0155794Y0028413D01*
X0155823Y0028351D01*
X0155854Y0028291D01*
X0155890Y0028232D01*
X0155928Y0028176D01*
X0155970Y0028122D01*
X0156014Y0028071D01*
X0156062Y0028022D01*
X0156112Y0027976D01*
X0156165Y0027932D01*
X0156220Y0027892D01*
X0156277Y0027856D01*
X0156337Y0027822D01*
X0156398Y0027792D01*
X0156461Y0027765D01*
X0156525Y0027742D01*
X0156590Y0027723D01*
X0156657Y0027708D01*
X0156724Y0027696D01*
X0156792Y0027688D01*
X0156860Y0027684D01*
X0156928Y0027684D01*
X0156996Y0027688D01*
X0157064Y0027696D01*
X0157131Y0027708D01*
X0157198Y0027723D01*
X0157263Y0027742D01*
X0157327Y0027765D01*
X0157390Y0027792D01*
X0157451Y0027822D01*
X0157511Y0027856D01*
X0157568Y0027892D01*
X0157623Y0027932D01*
X0157676Y0027976D01*
X0157726Y0028022D01*
X0157774Y0028071D01*
X0157818Y0028122D01*
X0157860Y0028176D01*
X0157898Y0028232D01*
X0157934Y0028291D01*
X0157965Y0028351D01*
X0157994Y0028413D01*
X0158019Y0028477D01*
X0158040Y0028542D01*
X0158057Y0028608D01*
X0158071Y0028674D01*
X0158080Y0028742D01*
X0158086Y0028810D01*
X0158088Y0028878D01*
X0158089Y0028878D02*
X0158089Y0030789D01*
X0158088Y0030789D02*
X0158086Y0030857D01*
X0158080Y0030925D01*
X0158071Y0030993D01*
X0158057Y0031059D01*
X0158040Y0031125D01*
X0158019Y0031190D01*
X0157994Y0031254D01*
X0157965Y0031316D01*
X0157934Y0031376D01*
X0157898Y0031435D01*
X0157860Y0031491D01*
X0157818Y0031545D01*
X0157774Y0031596D01*
X0157726Y0031645D01*
X0157676Y0031691D01*
X0157623Y0031735D01*
X0157568Y0031775D01*
X0157511Y0031811D01*
X0157451Y0031845D01*
X0157390Y0031875D01*
X0157327Y0031902D01*
X0157263Y0031925D01*
X0157198Y0031944D01*
X0157131Y0031959D01*
X0157064Y0031971D01*
X0156996Y0031979D01*
X0156928Y0031983D01*
X0156860Y0031983D01*
X0156792Y0031979D01*
X0156724Y0031971D01*
X0156657Y0031959D01*
X0156590Y0031944D01*
X0156525Y0031925D01*
X0156461Y0031902D01*
X0156398Y0031875D01*
X0156337Y0031845D01*
X0156277Y0031811D01*
X0156220Y0031775D01*
X0156165Y0031735D01*
X0156112Y0031691D01*
X0156062Y0031645D01*
X0156014Y0031596D01*
X0155970Y0031545D01*
X0155928Y0031491D01*
X0155890Y0031435D01*
X0155854Y0031376D01*
X0155823Y0031316D01*
X0155794Y0031254D01*
X0155769Y0031190D01*
X0155748Y0031125D01*
X0155731Y0031059D01*
X0155717Y0030993D01*
X0155708Y0030925D01*
X0155702Y0030857D01*
X0155700Y0030789D01*
X0157611Y0028639D02*
X0158567Y0027683D01*
X0160078Y0028400D02*
X0160078Y0030550D01*
X0161989Y0030550D02*
X0161989Y0027683D01*
X0160794Y0027683D01*
X0160743Y0027685D01*
X0160692Y0027690D01*
X0160642Y0027699D01*
X0160592Y0027712D01*
X0160543Y0027728D01*
X0160496Y0027748D01*
X0160450Y0027771D01*
X0160406Y0027797D01*
X0160364Y0027826D01*
X0160324Y0027858D01*
X0160287Y0027893D01*
X0160252Y0027930D01*
X0160220Y0027970D01*
X0160191Y0028012D01*
X0160165Y0028056D01*
X0160142Y0028102D01*
X0160122Y0028149D01*
X0160106Y0028198D01*
X0160093Y0028248D01*
X0160084Y0028298D01*
X0160079Y0028349D01*
X0160077Y0028400D01*
X0158089Y0024483D02*
X0156656Y0024483D01*
X0156656Y0024484D02*
X0156596Y0024482D01*
X0156536Y0024476D01*
X0156477Y0024467D01*
X0156418Y0024454D01*
X0156361Y0024437D01*
X0156304Y0024417D01*
X0156249Y0024393D01*
X0156195Y0024366D01*
X0156144Y0024335D01*
X0156094Y0024301D01*
X0156047Y0024265D01*
X0156002Y0024225D01*
X0155959Y0024182D01*
X0155919Y0024137D01*
X0155883Y0024090D01*
X0155849Y0024040D01*
X0155818Y0023989D01*
X0155791Y0023935D01*
X0155767Y0023880D01*
X0155747Y0023823D01*
X0155730Y0023766D01*
X0155717Y0023707D01*
X0155708Y0023648D01*
X0155702Y0023588D01*
X0155700Y0023528D01*
X0155700Y0021139D01*
X0155702Y0021079D01*
X0155708Y0021019D01*
X0155717Y0020960D01*
X0155730Y0020901D01*
X0155747Y0020844D01*
X0155767Y0020787D01*
X0155791Y0020732D01*
X0155818Y0020678D01*
X0155849Y0020627D01*
X0155883Y0020577D01*
X0155919Y0020530D01*
X0155959Y0020485D01*
X0156002Y0020442D01*
X0156047Y0020402D01*
X0156094Y0020366D01*
X0156144Y0020332D01*
X0156195Y0020301D01*
X0156249Y0020274D01*
X0156304Y0020250D01*
X0156361Y0020230D01*
X0156418Y0020213D01*
X0156477Y0020200D01*
X0156536Y0020191D01*
X0156596Y0020185D01*
X0156656Y0020183D01*
X0158089Y0020183D01*
X0158089Y0022572D01*
X0157372Y0022572D01*
X0160289Y0022094D02*
X0160289Y0020900D01*
X0160289Y0021617D02*
X0162200Y0021617D01*
X0162200Y0022094D01*
X0162198Y0022154D01*
X0162192Y0022214D01*
X0162183Y0022273D01*
X0162170Y0022332D01*
X0162153Y0022389D01*
X0162133Y0022446D01*
X0162109Y0022501D01*
X0162082Y0022555D01*
X0162051Y0022606D01*
X0162017Y0022656D01*
X0161981Y0022703D01*
X0161941Y0022748D01*
X0161898Y0022791D01*
X0161853Y0022831D01*
X0161806Y0022867D01*
X0161756Y0022901D01*
X0161705Y0022932D01*
X0161651Y0022959D01*
X0161596Y0022983D01*
X0161539Y0023003D01*
X0161482Y0023020D01*
X0161423Y0023033D01*
X0161364Y0023042D01*
X0161304Y0023048D01*
X0161244Y0023050D01*
X0161184Y0023048D01*
X0161124Y0023042D01*
X0161065Y0023033D01*
X0161006Y0023020D01*
X0160949Y0023003D01*
X0160892Y0022983D01*
X0160837Y0022959D01*
X0160783Y0022932D01*
X0160732Y0022901D01*
X0160682Y0022867D01*
X0160635Y0022831D01*
X0160590Y0022791D01*
X0160547Y0022748D01*
X0160507Y0022703D01*
X0160471Y0022656D01*
X0160437Y0022606D01*
X0160406Y0022555D01*
X0160379Y0022501D01*
X0160355Y0022446D01*
X0160335Y0022389D01*
X0160318Y0022332D01*
X0160305Y0022273D01*
X0160296Y0022214D01*
X0160290Y0022154D01*
X0160288Y0022094D01*
X0160289Y0020900D02*
X0160291Y0020849D01*
X0160296Y0020798D01*
X0160305Y0020748D01*
X0160318Y0020698D01*
X0160334Y0020649D01*
X0160354Y0020602D01*
X0160377Y0020556D01*
X0160403Y0020512D01*
X0160432Y0020470D01*
X0160464Y0020430D01*
X0160499Y0020393D01*
X0160536Y0020358D01*
X0160576Y0020326D01*
X0160618Y0020297D01*
X0160662Y0020271D01*
X0160708Y0020248D01*
X0160755Y0020228D01*
X0160804Y0020212D01*
X0160854Y0020199D01*
X0160904Y0020190D01*
X0160955Y0020185D01*
X0161006Y0020183D01*
X0162200Y0020183D01*
X0164339Y0020183D02*
X0164339Y0023050D01*
X0165533Y0023050D01*
X0165584Y0023048D01*
X0165635Y0023043D01*
X0165685Y0023034D01*
X0165735Y0023021D01*
X0165784Y0023005D01*
X0165831Y0022985D01*
X0165877Y0022962D01*
X0165921Y0022936D01*
X0165963Y0022907D01*
X0166003Y0022875D01*
X0166040Y0022840D01*
X0166075Y0022803D01*
X0166107Y0022763D01*
X0166136Y0022721D01*
X0166162Y0022677D01*
X0166185Y0022631D01*
X0166205Y0022584D01*
X0166221Y0022535D01*
X0166234Y0022485D01*
X0166243Y0022435D01*
X0166248Y0022384D01*
X0166250Y0022333D01*
X0166250Y0020183D01*
X0168389Y0020900D02*
X0168389Y0022094D01*
X0168389Y0021617D02*
X0170300Y0021617D01*
X0170300Y0022094D01*
X0170298Y0022154D01*
X0170292Y0022214D01*
X0170283Y0022273D01*
X0170270Y0022332D01*
X0170253Y0022389D01*
X0170233Y0022446D01*
X0170209Y0022501D01*
X0170182Y0022555D01*
X0170151Y0022606D01*
X0170117Y0022656D01*
X0170081Y0022703D01*
X0170041Y0022748D01*
X0169998Y0022791D01*
X0169953Y0022831D01*
X0169906Y0022867D01*
X0169856Y0022901D01*
X0169805Y0022932D01*
X0169751Y0022959D01*
X0169696Y0022983D01*
X0169639Y0023003D01*
X0169582Y0023020D01*
X0169523Y0023033D01*
X0169464Y0023042D01*
X0169404Y0023048D01*
X0169344Y0023050D01*
X0169284Y0023048D01*
X0169224Y0023042D01*
X0169165Y0023033D01*
X0169106Y0023020D01*
X0169049Y0023003D01*
X0168992Y0022983D01*
X0168937Y0022959D01*
X0168883Y0022932D01*
X0168832Y0022901D01*
X0168782Y0022867D01*
X0168735Y0022831D01*
X0168690Y0022791D01*
X0168647Y0022748D01*
X0168607Y0022703D01*
X0168571Y0022656D01*
X0168537Y0022606D01*
X0168506Y0022555D01*
X0168479Y0022501D01*
X0168455Y0022446D01*
X0168435Y0022389D01*
X0168418Y0022332D01*
X0168405Y0022273D01*
X0168396Y0022214D01*
X0168390Y0022154D01*
X0168388Y0022094D01*
X0168389Y0020900D02*
X0168391Y0020849D01*
X0168396Y0020798D01*
X0168405Y0020748D01*
X0168418Y0020698D01*
X0168434Y0020649D01*
X0168454Y0020602D01*
X0168477Y0020556D01*
X0168503Y0020512D01*
X0168532Y0020470D01*
X0168564Y0020430D01*
X0168599Y0020393D01*
X0168636Y0020358D01*
X0168676Y0020326D01*
X0168718Y0020297D01*
X0168762Y0020271D01*
X0168808Y0020248D01*
X0168855Y0020228D01*
X0168904Y0020212D01*
X0168954Y0020199D01*
X0169004Y0020190D01*
X0169055Y0020185D01*
X0169106Y0020183D01*
X0170300Y0020183D01*
X0172475Y0020183D02*
X0172475Y0023050D01*
X0173908Y0023050D01*
X0173908Y0022572D01*
X0175646Y0023050D02*
X0176601Y0023050D01*
X0176652Y0023048D01*
X0176703Y0023043D01*
X0176753Y0023034D01*
X0176803Y0023021D01*
X0176852Y0023005D01*
X0176899Y0022985D01*
X0176945Y0022962D01*
X0176989Y0022936D01*
X0177031Y0022907D01*
X0177071Y0022875D01*
X0177108Y0022840D01*
X0177143Y0022803D01*
X0177175Y0022763D01*
X0177204Y0022721D01*
X0177230Y0022677D01*
X0177253Y0022631D01*
X0177273Y0022584D01*
X0177289Y0022535D01*
X0177302Y0022485D01*
X0177311Y0022435D01*
X0177316Y0022384D01*
X0177318Y0022333D01*
X0177318Y0020183D01*
X0176243Y0020183D01*
X0176186Y0020185D01*
X0176129Y0020191D01*
X0176073Y0020200D01*
X0176017Y0020214D01*
X0175963Y0020231D01*
X0175910Y0020252D01*
X0175858Y0020277D01*
X0175809Y0020305D01*
X0175761Y0020336D01*
X0175715Y0020371D01*
X0175672Y0020408D01*
X0175632Y0020448D01*
X0175595Y0020491D01*
X0175560Y0020537D01*
X0175529Y0020585D01*
X0175501Y0020634D01*
X0175476Y0020686D01*
X0175455Y0020739D01*
X0175438Y0020793D01*
X0175424Y0020849D01*
X0175415Y0020905D01*
X0175409Y0020962D01*
X0175407Y0021019D01*
X0175409Y0021076D01*
X0175415Y0021133D01*
X0175424Y0021189D01*
X0175438Y0021245D01*
X0175455Y0021299D01*
X0175476Y0021352D01*
X0175501Y0021404D01*
X0175529Y0021453D01*
X0175560Y0021501D01*
X0175595Y0021547D01*
X0175632Y0021590D01*
X0175672Y0021630D01*
X0175715Y0021667D01*
X0175761Y0021702D01*
X0175809Y0021733D01*
X0175858Y0021761D01*
X0175910Y0021786D01*
X0175963Y0021807D01*
X0176017Y0021824D01*
X0176073Y0021838D01*
X0176129Y0021847D01*
X0176186Y0021853D01*
X0176243Y0021855D01*
X0177318Y0021855D01*
X0179078Y0023050D02*
X0180511Y0023050D01*
X0179555Y0024483D02*
X0179555Y0020900D01*
X0179557Y0020849D01*
X0179562Y0020798D01*
X0179571Y0020748D01*
X0179584Y0020698D01*
X0179600Y0020649D01*
X0179620Y0020602D01*
X0179643Y0020556D01*
X0179669Y0020512D01*
X0179698Y0020470D01*
X0179730Y0020430D01*
X0179765Y0020393D01*
X0179802Y0020358D01*
X0179842Y0020326D01*
X0179884Y0020297D01*
X0179928Y0020271D01*
X0179974Y0020248D01*
X0180021Y0020228D01*
X0180070Y0020212D01*
X0180120Y0020199D01*
X0180170Y0020190D01*
X0180221Y0020185D01*
X0180272Y0020183D01*
X0180511Y0020183D01*
X0182339Y0021139D02*
X0182339Y0022094D01*
X0182338Y0022094D02*
X0182340Y0022154D01*
X0182346Y0022214D01*
X0182355Y0022273D01*
X0182368Y0022332D01*
X0182385Y0022389D01*
X0182405Y0022446D01*
X0182429Y0022501D01*
X0182456Y0022555D01*
X0182487Y0022606D01*
X0182521Y0022656D01*
X0182557Y0022703D01*
X0182597Y0022748D01*
X0182640Y0022791D01*
X0182685Y0022831D01*
X0182732Y0022867D01*
X0182782Y0022901D01*
X0182833Y0022932D01*
X0182887Y0022959D01*
X0182942Y0022983D01*
X0182999Y0023003D01*
X0183056Y0023020D01*
X0183115Y0023033D01*
X0183174Y0023042D01*
X0183234Y0023048D01*
X0183294Y0023050D01*
X0183354Y0023048D01*
X0183414Y0023042D01*
X0183473Y0023033D01*
X0183532Y0023020D01*
X0183589Y0023003D01*
X0183646Y0022983D01*
X0183701Y0022959D01*
X0183755Y0022932D01*
X0183806Y0022901D01*
X0183856Y0022867D01*
X0183903Y0022831D01*
X0183948Y0022791D01*
X0183991Y0022748D01*
X0184031Y0022703D01*
X0184067Y0022656D01*
X0184101Y0022606D01*
X0184132Y0022555D01*
X0184159Y0022501D01*
X0184183Y0022446D01*
X0184203Y0022389D01*
X0184220Y0022332D01*
X0184233Y0022273D01*
X0184242Y0022214D01*
X0184248Y0022154D01*
X0184250Y0022094D01*
X0184250Y0021139D01*
X0184248Y0021079D01*
X0184242Y0021019D01*
X0184233Y0020960D01*
X0184220Y0020901D01*
X0184203Y0020844D01*
X0184183Y0020787D01*
X0184159Y0020732D01*
X0184132Y0020678D01*
X0184101Y0020627D01*
X0184067Y0020577D01*
X0184031Y0020530D01*
X0183991Y0020485D01*
X0183948Y0020442D01*
X0183903Y0020402D01*
X0183856Y0020366D01*
X0183806Y0020332D01*
X0183755Y0020301D01*
X0183701Y0020274D01*
X0183646Y0020250D01*
X0183589Y0020230D01*
X0183532Y0020213D01*
X0183473Y0020200D01*
X0183414Y0020191D01*
X0183354Y0020185D01*
X0183294Y0020183D01*
X0183234Y0020185D01*
X0183174Y0020191D01*
X0183115Y0020200D01*
X0183056Y0020213D01*
X0182999Y0020230D01*
X0182942Y0020250D01*
X0182887Y0020274D01*
X0182833Y0020301D01*
X0182782Y0020332D01*
X0182732Y0020366D01*
X0182685Y0020402D01*
X0182640Y0020442D01*
X0182597Y0020485D01*
X0182557Y0020530D01*
X0182521Y0020577D01*
X0182487Y0020627D01*
X0182456Y0020678D01*
X0182429Y0020732D01*
X0182405Y0020787D01*
X0182385Y0020844D01*
X0182368Y0020901D01*
X0182355Y0020960D01*
X0182346Y0021019D01*
X0182340Y0021079D01*
X0182338Y0021139D01*
X0186425Y0020183D02*
X0186425Y0023050D01*
X0187858Y0023050D01*
X0187858Y0022572D01*
X0186664Y0027683D02*
X0186664Y0030550D01*
X0188097Y0030550D01*
X0188097Y0030072D01*
X0189628Y0029594D02*
X0189628Y0028400D01*
X0189627Y0028400D02*
X0189629Y0028349D01*
X0189634Y0028298D01*
X0189643Y0028248D01*
X0189656Y0028198D01*
X0189672Y0028149D01*
X0189692Y0028102D01*
X0189715Y0028056D01*
X0189741Y0028012D01*
X0189770Y0027970D01*
X0189802Y0027930D01*
X0189837Y0027893D01*
X0189874Y0027858D01*
X0189914Y0027826D01*
X0189956Y0027797D01*
X0190000Y0027771D01*
X0190046Y0027748D01*
X0190093Y0027728D01*
X0190142Y0027712D01*
X0190192Y0027699D01*
X0190242Y0027690D01*
X0190293Y0027685D01*
X0190344Y0027683D01*
X0191539Y0027683D01*
X0191539Y0029117D02*
X0189628Y0029117D01*
X0189627Y0029594D02*
X0189629Y0029654D01*
X0189635Y0029714D01*
X0189644Y0029773D01*
X0189657Y0029832D01*
X0189674Y0029889D01*
X0189694Y0029946D01*
X0189718Y0030001D01*
X0189745Y0030055D01*
X0189776Y0030106D01*
X0189810Y0030156D01*
X0189846Y0030203D01*
X0189886Y0030248D01*
X0189929Y0030291D01*
X0189974Y0030331D01*
X0190021Y0030367D01*
X0190071Y0030401D01*
X0190122Y0030432D01*
X0190176Y0030459D01*
X0190231Y0030483D01*
X0190288Y0030503D01*
X0190345Y0030520D01*
X0190404Y0030533D01*
X0190463Y0030542D01*
X0190523Y0030548D01*
X0190583Y0030550D01*
X0190643Y0030548D01*
X0190703Y0030542D01*
X0190762Y0030533D01*
X0190821Y0030520D01*
X0190878Y0030503D01*
X0190935Y0030483D01*
X0190990Y0030459D01*
X0191044Y0030432D01*
X0191095Y0030401D01*
X0191145Y0030367D01*
X0191192Y0030331D01*
X0191237Y0030291D01*
X0191280Y0030248D01*
X0191320Y0030203D01*
X0191356Y0030156D01*
X0191390Y0030106D01*
X0191421Y0030055D01*
X0191448Y0030001D01*
X0191472Y0029946D01*
X0191492Y0029889D01*
X0191509Y0029832D01*
X0191522Y0029773D01*
X0191531Y0029714D01*
X0191537Y0029654D01*
X0191539Y0029594D01*
X0191539Y0029117D01*
X0184339Y0027683D02*
X0184339Y0030550D01*
X0182428Y0030550D02*
X0182428Y0028400D01*
X0182427Y0028400D02*
X0182429Y0028349D01*
X0182434Y0028298D01*
X0182443Y0028248D01*
X0182456Y0028198D01*
X0182472Y0028149D01*
X0182492Y0028102D01*
X0182515Y0028056D01*
X0182541Y0028012D01*
X0182570Y0027970D01*
X0182602Y0027930D01*
X0182637Y0027893D01*
X0182674Y0027858D01*
X0182714Y0027826D01*
X0182756Y0027797D01*
X0182800Y0027771D01*
X0182846Y0027748D01*
X0182893Y0027728D01*
X0182942Y0027712D01*
X0182992Y0027699D01*
X0183042Y0027690D01*
X0183093Y0027685D01*
X0183144Y0027683D01*
X0184339Y0027683D01*
X0180450Y0027683D02*
X0180211Y0027683D01*
X0180160Y0027685D01*
X0180109Y0027690D01*
X0180059Y0027699D01*
X0180009Y0027712D01*
X0179960Y0027728D01*
X0179913Y0027748D01*
X0179867Y0027771D01*
X0179823Y0027797D01*
X0179781Y0027826D01*
X0179741Y0027858D01*
X0179704Y0027893D01*
X0179669Y0027930D01*
X0179637Y0027970D01*
X0179608Y0028012D01*
X0179582Y0028056D01*
X0179559Y0028102D01*
X0179539Y0028149D01*
X0179523Y0028198D01*
X0179510Y0028248D01*
X0179501Y0028298D01*
X0179496Y0028349D01*
X0179494Y0028400D01*
X0179494Y0031983D01*
X0179017Y0030550D02*
X0180450Y0030550D01*
X0177257Y0029833D02*
X0177257Y0027683D01*
X0176182Y0027683D01*
X0176125Y0027685D01*
X0176068Y0027691D01*
X0176012Y0027700D01*
X0175956Y0027714D01*
X0175902Y0027731D01*
X0175849Y0027752D01*
X0175797Y0027777D01*
X0175748Y0027805D01*
X0175700Y0027836D01*
X0175654Y0027871D01*
X0175611Y0027908D01*
X0175571Y0027948D01*
X0175534Y0027991D01*
X0175499Y0028037D01*
X0175468Y0028085D01*
X0175440Y0028134D01*
X0175415Y0028186D01*
X0175394Y0028239D01*
X0175377Y0028293D01*
X0175363Y0028349D01*
X0175354Y0028405D01*
X0175348Y0028462D01*
X0175346Y0028519D01*
X0175348Y0028576D01*
X0175354Y0028633D01*
X0175363Y0028689D01*
X0175377Y0028745D01*
X0175394Y0028799D01*
X0175415Y0028852D01*
X0175440Y0028904D01*
X0175468Y0028953D01*
X0175499Y0029001D01*
X0175534Y0029047D01*
X0175571Y0029090D01*
X0175611Y0029130D01*
X0175654Y0029167D01*
X0175700Y0029202D01*
X0175748Y0029233D01*
X0175797Y0029261D01*
X0175849Y0029286D01*
X0175902Y0029307D01*
X0175956Y0029324D01*
X0176012Y0029338D01*
X0176068Y0029347D01*
X0176125Y0029353D01*
X0176182Y0029355D01*
X0177257Y0029355D01*
X0177257Y0029833D02*
X0177255Y0029884D01*
X0177250Y0029935D01*
X0177241Y0029985D01*
X0177228Y0030035D01*
X0177212Y0030084D01*
X0177192Y0030131D01*
X0177169Y0030177D01*
X0177143Y0030221D01*
X0177114Y0030263D01*
X0177082Y0030303D01*
X0177047Y0030340D01*
X0177010Y0030375D01*
X0176970Y0030407D01*
X0176928Y0030436D01*
X0176884Y0030462D01*
X0176838Y0030485D01*
X0176791Y0030505D01*
X0176742Y0030521D01*
X0176692Y0030534D01*
X0176642Y0030543D01*
X0176591Y0030548D01*
X0176540Y0030550D01*
X0175585Y0030550D01*
X0173847Y0030550D02*
X0173847Y0030072D01*
X0173847Y0030550D02*
X0172414Y0030550D01*
X0172414Y0027683D01*
X0170057Y0027683D02*
X0168863Y0027683D01*
X0168812Y0027685D01*
X0168761Y0027690D01*
X0168711Y0027699D01*
X0168661Y0027712D01*
X0168612Y0027728D01*
X0168565Y0027748D01*
X0168519Y0027771D01*
X0168475Y0027797D01*
X0168433Y0027826D01*
X0168393Y0027858D01*
X0168356Y0027893D01*
X0168321Y0027930D01*
X0168289Y0027970D01*
X0168260Y0028012D01*
X0168234Y0028056D01*
X0168211Y0028102D01*
X0168191Y0028149D01*
X0168175Y0028198D01*
X0168162Y0028248D01*
X0168153Y0028298D01*
X0168148Y0028349D01*
X0168146Y0028400D01*
X0168146Y0029833D01*
X0168148Y0029884D01*
X0168153Y0029935D01*
X0168162Y0029985D01*
X0168175Y0030035D01*
X0168191Y0030084D01*
X0168211Y0030131D01*
X0168234Y0030177D01*
X0168260Y0030221D01*
X0168289Y0030263D01*
X0168321Y0030303D01*
X0168356Y0030340D01*
X0168393Y0030375D01*
X0168433Y0030407D01*
X0168475Y0030436D01*
X0168519Y0030462D01*
X0168565Y0030485D01*
X0168612Y0030505D01*
X0168661Y0030521D01*
X0168711Y0030534D01*
X0168761Y0030543D01*
X0168812Y0030548D01*
X0168863Y0030550D01*
X0170057Y0030550D01*
X0170057Y0031983D02*
X0170057Y0027683D01*
X0166007Y0027683D02*
X0166007Y0029833D01*
X0166007Y0029355D02*
X0164932Y0029355D01*
X0166007Y0029833D02*
X0166005Y0029884D01*
X0166000Y0029935D01*
X0165991Y0029985D01*
X0165978Y0030035D01*
X0165962Y0030084D01*
X0165942Y0030131D01*
X0165919Y0030177D01*
X0165893Y0030221D01*
X0165864Y0030263D01*
X0165832Y0030303D01*
X0165797Y0030340D01*
X0165760Y0030375D01*
X0165720Y0030407D01*
X0165678Y0030436D01*
X0165634Y0030462D01*
X0165588Y0030485D01*
X0165541Y0030505D01*
X0165492Y0030521D01*
X0165442Y0030534D01*
X0165392Y0030543D01*
X0165341Y0030548D01*
X0165290Y0030550D01*
X0164335Y0030550D01*
X0164932Y0029355D02*
X0164875Y0029353D01*
X0164818Y0029347D01*
X0164762Y0029338D01*
X0164706Y0029324D01*
X0164652Y0029307D01*
X0164599Y0029286D01*
X0164547Y0029261D01*
X0164498Y0029233D01*
X0164450Y0029202D01*
X0164404Y0029167D01*
X0164361Y0029130D01*
X0164321Y0029090D01*
X0164284Y0029047D01*
X0164249Y0029001D01*
X0164218Y0028953D01*
X0164190Y0028904D01*
X0164165Y0028852D01*
X0164144Y0028799D01*
X0164127Y0028745D01*
X0164113Y0028689D01*
X0164104Y0028633D01*
X0164098Y0028576D01*
X0164096Y0028519D01*
X0164098Y0028462D01*
X0164104Y0028405D01*
X0164113Y0028349D01*
X0164127Y0028293D01*
X0164144Y0028239D01*
X0164165Y0028186D01*
X0164190Y0028134D01*
X0164218Y0028085D01*
X0164249Y0028037D01*
X0164284Y0027991D01*
X0164321Y0027948D01*
X0164361Y0027908D01*
X0164404Y0027871D01*
X0164450Y0027836D01*
X0164498Y0027805D01*
X0164547Y0027777D01*
X0164599Y0027752D01*
X0164652Y0027731D01*
X0164706Y0027714D01*
X0164762Y0027700D01*
X0164818Y0027691D01*
X0164875Y0027685D01*
X0164932Y0027683D01*
X0166007Y0027683D01*
X0141439Y0025789D02*
X0141439Y0023878D01*
X0141438Y0023878D02*
X0141436Y0023811D01*
X0141430Y0023744D01*
X0141421Y0023678D01*
X0141408Y0023612D01*
X0141391Y0023547D01*
X0141371Y0023484D01*
X0141347Y0023421D01*
X0141320Y0023360D01*
X0141289Y0023300D01*
X0141255Y0023243D01*
X0141218Y0023187D01*
X0141178Y0023134D01*
X0141134Y0023082D01*
X0141088Y0023034D01*
X0141040Y0022988D01*
X0140988Y0022944D01*
X0140935Y0022904D01*
X0140879Y0022867D01*
X0140822Y0022833D01*
X0140762Y0022802D01*
X0140701Y0022775D01*
X0140638Y0022751D01*
X0140575Y0022731D01*
X0140510Y0022714D01*
X0140444Y0022701D01*
X0140378Y0022692D01*
X0140311Y0022686D01*
X0140244Y0022684D01*
X0140244Y0022683D02*
X0139050Y0022683D01*
X0139050Y0026983D01*
X0140244Y0026983D01*
X0140311Y0026981D01*
X0140378Y0026975D01*
X0140444Y0026966D01*
X0140510Y0026953D01*
X0140575Y0026936D01*
X0140638Y0026916D01*
X0140701Y0026892D01*
X0140762Y0026865D01*
X0140822Y0026834D01*
X0140879Y0026800D01*
X0140935Y0026763D01*
X0140988Y0026723D01*
X0141040Y0026679D01*
X0141088Y0026633D01*
X0141134Y0026585D01*
X0141178Y0026533D01*
X0141218Y0026480D01*
X0141255Y0026424D01*
X0141289Y0026367D01*
X0141320Y0026307D01*
X0141347Y0026246D01*
X0141371Y0026183D01*
X0141391Y0026120D01*
X0141408Y0026055D01*
X0141421Y0025989D01*
X0141430Y0025923D01*
X0141436Y0025856D01*
X0141438Y0025789D01*
X0136639Y0026983D02*
X0136639Y0022683D01*
X0134250Y0026983D01*
X0134250Y0022683D01*
X0131839Y0022683D02*
X0131839Y0025072D01*
X0131122Y0025072D01*
X0129450Y0026028D02*
X0129452Y0026088D01*
X0129458Y0026148D01*
X0129467Y0026207D01*
X0129480Y0026266D01*
X0129497Y0026323D01*
X0129517Y0026380D01*
X0129541Y0026435D01*
X0129568Y0026489D01*
X0129599Y0026540D01*
X0129633Y0026590D01*
X0129669Y0026637D01*
X0129709Y0026682D01*
X0129752Y0026725D01*
X0129797Y0026765D01*
X0129844Y0026801D01*
X0129894Y0026835D01*
X0129945Y0026866D01*
X0129999Y0026893D01*
X0130054Y0026917D01*
X0130111Y0026937D01*
X0130168Y0026954D01*
X0130227Y0026967D01*
X0130286Y0026976D01*
X0130346Y0026982D01*
X0130406Y0026984D01*
X0130406Y0026983D02*
X0131839Y0026983D01*
X0129450Y0026028D02*
X0129450Y0023639D01*
X0129452Y0023579D01*
X0129458Y0023519D01*
X0129467Y0023460D01*
X0129480Y0023401D01*
X0129497Y0023344D01*
X0129517Y0023287D01*
X0129541Y0023232D01*
X0129568Y0023178D01*
X0129599Y0023127D01*
X0129633Y0023077D01*
X0129669Y0023030D01*
X0129709Y0022985D01*
X0129752Y0022942D01*
X0129797Y0022902D01*
X0129844Y0022866D01*
X0129894Y0022832D01*
X0129945Y0022801D01*
X0129999Y0022774D01*
X0130054Y0022750D01*
X0130111Y0022730D01*
X0130168Y0022713D01*
X0130227Y0022700D01*
X0130286Y0022691D01*
X0130346Y0022685D01*
X0130406Y0022683D01*
X0131839Y0022683D01*
D12*
X0127850Y0019833D02*
X0127850Y0049833D01*
X0117850Y0049833D01*
X0117850Y0019833D01*
X0127850Y0019833D01*
X0104661Y0025778D02*
X0094819Y0025778D01*
X0094819Y0026959D01*
X0090685Y0023475D02*
X0102515Y0023475D01*
X0102515Y0016191D01*
X0090685Y0016191D01*
X0090685Y0023475D01*
X0094819Y0030896D02*
X0094819Y0032865D01*
X0094819Y0036802D02*
X0094819Y0038770D01*
X0094819Y0042707D02*
X0094819Y0043888D01*
X0104661Y0043888D01*
X0104661Y0039558D01*
X0102515Y0046191D02*
X0102515Y0053475D01*
X0090685Y0053475D01*
X0090685Y0046191D01*
X0102515Y0046191D01*
X0104661Y0030109D02*
X0104661Y0025778D01*
X0152958Y0045168D02*
X0160242Y0045168D01*
X0160242Y0056999D01*
X0152958Y0056999D01*
X0152958Y0045168D01*
X0161876Y0043406D02*
X0161876Y0058760D01*
X0196324Y0058760D01*
X0196324Y0043406D01*
X0161876Y0043406D01*
X0162811Y0045729D02*
X0162813Y0045804D01*
X0162819Y0045879D01*
X0162829Y0045953D01*
X0162843Y0046026D01*
X0162861Y0046099D01*
X0162882Y0046171D01*
X0162908Y0046241D01*
X0162937Y0046310D01*
X0162969Y0046378D01*
X0163006Y0046443D01*
X0163046Y0046507D01*
X0163089Y0046568D01*
X0163135Y0046627D01*
X0163184Y0046683D01*
X0163236Y0046737D01*
X0163291Y0046788D01*
X0163349Y0046836D01*
X0163409Y0046880D01*
X0163472Y0046922D01*
X0163536Y0046960D01*
X0163603Y0046994D01*
X0163671Y0047025D01*
X0163741Y0047053D01*
X0163812Y0047076D01*
X0163884Y0047096D01*
X0163957Y0047112D01*
X0164031Y0047124D01*
X0164106Y0047132D01*
X0164181Y0047136D01*
X0164255Y0047136D01*
X0164330Y0047132D01*
X0164405Y0047124D01*
X0164479Y0047112D01*
X0164552Y0047096D01*
X0164624Y0047076D01*
X0164695Y0047053D01*
X0164765Y0047025D01*
X0164833Y0046994D01*
X0164900Y0046960D01*
X0164964Y0046922D01*
X0165027Y0046880D01*
X0165087Y0046836D01*
X0165145Y0046788D01*
X0165200Y0046737D01*
X0165252Y0046683D01*
X0165301Y0046627D01*
X0165347Y0046568D01*
X0165390Y0046507D01*
X0165430Y0046443D01*
X0165467Y0046378D01*
X0165499Y0046310D01*
X0165528Y0046241D01*
X0165554Y0046171D01*
X0165575Y0046099D01*
X0165593Y0046026D01*
X0165607Y0045953D01*
X0165617Y0045879D01*
X0165623Y0045804D01*
X0165625Y0045729D01*
X0165623Y0045654D01*
X0165617Y0045579D01*
X0165607Y0045505D01*
X0165593Y0045432D01*
X0165575Y0045359D01*
X0165554Y0045287D01*
X0165528Y0045217D01*
X0165499Y0045148D01*
X0165467Y0045080D01*
X0165430Y0045015D01*
X0165390Y0044951D01*
X0165347Y0044890D01*
X0165301Y0044831D01*
X0165252Y0044775D01*
X0165200Y0044721D01*
X0165145Y0044670D01*
X0165087Y0044622D01*
X0165027Y0044578D01*
X0164964Y0044536D01*
X0164900Y0044498D01*
X0164833Y0044464D01*
X0164765Y0044433D01*
X0164695Y0044405D01*
X0164624Y0044382D01*
X0164552Y0044362D01*
X0164479Y0044346D01*
X0164405Y0044334D01*
X0164330Y0044326D01*
X0164255Y0044322D01*
X0164181Y0044322D01*
X0164106Y0044326D01*
X0164031Y0044334D01*
X0163957Y0044346D01*
X0163884Y0044362D01*
X0163812Y0044382D01*
X0163741Y0044405D01*
X0163671Y0044433D01*
X0163603Y0044464D01*
X0163536Y0044498D01*
X0163472Y0044536D01*
X0163409Y0044578D01*
X0163349Y0044622D01*
X0163291Y0044670D01*
X0163236Y0044721D01*
X0163184Y0044775D01*
X0163135Y0044831D01*
X0163089Y0044890D01*
X0163046Y0044951D01*
X0163006Y0045015D01*
X0162969Y0045080D01*
X0162937Y0045148D01*
X0162908Y0045217D01*
X0162882Y0045287D01*
X0162861Y0045359D01*
X0162843Y0045432D01*
X0162829Y0045505D01*
X0162819Y0045579D01*
X0162813Y0045654D01*
X0162811Y0045729D01*
X0136600Y0063583D02*
X0132850Y0067333D01*
X0132850Y0088583D01*
X0126600Y0088583D01*
X0126677Y0088529D01*
X0126752Y0088471D01*
X0126825Y0088411D01*
X0126895Y0088348D01*
X0126962Y0088282D01*
X0127027Y0088213D01*
X0127088Y0088142D01*
X0127146Y0088068D01*
X0127202Y0087991D01*
X0127254Y0087913D01*
X0127303Y0087832D01*
X0127348Y0087749D01*
X0127390Y0087665D01*
X0127428Y0087578D01*
X0127463Y0087491D01*
X0127494Y0087402D01*
X0127521Y0087311D01*
X0127544Y0087220D01*
X0127564Y0087128D01*
X0127579Y0087035D01*
X0127591Y0086941D01*
X0127599Y0086847D01*
X0127603Y0086753D01*
X0127602Y0086659D01*
X0127598Y0086564D01*
X0127590Y0086470D01*
X0127579Y0086377D01*
X0127563Y0086284D01*
X0127543Y0086192D01*
X0127520Y0086100D01*
X0127492Y0086010D01*
X0127461Y0085921D01*
X0127426Y0085833D01*
X0127388Y0085747D01*
X0127346Y0085663D01*
X0127300Y0085580D01*
X0127252Y0085500D01*
X0127199Y0085421D01*
X0127144Y0085345D01*
X0127085Y0085271D01*
X0127024Y0085200D01*
X0126959Y0085131D01*
X0126891Y0085065D01*
X0126821Y0085002D01*
X0126749Y0084942D01*
X0126674Y0084885D01*
X0126596Y0084831D01*
X0126516Y0084780D01*
X0126435Y0084733D01*
X0126351Y0084690D01*
X0126266Y0084650D01*
X0126179Y0084613D01*
X0126090Y0084580D01*
X0126001Y0084551D01*
X0125910Y0084526D01*
X0125818Y0084504D01*
X0125725Y0084487D01*
X0125632Y0084473D01*
X0125538Y0084463D01*
X0125444Y0084457D01*
X0125350Y0084455D01*
X0125256Y0084457D01*
X0125162Y0084463D01*
X0125068Y0084473D01*
X0124975Y0084487D01*
X0124882Y0084504D01*
X0124790Y0084526D01*
X0124699Y0084551D01*
X0124610Y0084580D01*
X0124521Y0084613D01*
X0124434Y0084650D01*
X0124349Y0084690D01*
X0124265Y0084733D01*
X0124184Y0084780D01*
X0124104Y0084831D01*
X0124026Y0084885D01*
X0123951Y0084942D01*
X0123879Y0085002D01*
X0123809Y0085065D01*
X0123741Y0085131D01*
X0123676Y0085200D01*
X0123615Y0085271D01*
X0123556Y0085345D01*
X0123501Y0085421D01*
X0123448Y0085500D01*
X0123400Y0085580D01*
X0123354Y0085663D01*
X0123312Y0085747D01*
X0123274Y0085833D01*
X0123239Y0085921D01*
X0123208Y0086010D01*
X0123180Y0086100D01*
X0123157Y0086192D01*
X0123137Y0086284D01*
X0123121Y0086377D01*
X0123110Y0086470D01*
X0123102Y0086564D01*
X0123098Y0086659D01*
X0123097Y0086753D01*
X0123101Y0086847D01*
X0123109Y0086941D01*
X0123121Y0087035D01*
X0123136Y0087128D01*
X0123156Y0087220D01*
X0123179Y0087311D01*
X0123206Y0087402D01*
X0123237Y0087491D01*
X0123272Y0087578D01*
X0123310Y0087665D01*
X0123352Y0087749D01*
X0123397Y0087832D01*
X0123446Y0087913D01*
X0123498Y0087991D01*
X0123554Y0088068D01*
X0123612Y0088142D01*
X0123673Y0088213D01*
X0123738Y0088282D01*
X0123805Y0088348D01*
X0123875Y0088411D01*
X0123948Y0088471D01*
X0124023Y0088529D01*
X0124100Y0088583D01*
X0124177Y0088529D01*
X0124252Y0088471D01*
X0124325Y0088411D01*
X0124395Y0088348D01*
X0124462Y0088282D01*
X0124527Y0088213D01*
X0124588Y0088142D01*
X0124646Y0088068D01*
X0124702Y0087991D01*
X0124754Y0087913D01*
X0124803Y0087832D01*
X0124848Y0087749D01*
X0124890Y0087665D01*
X0124928Y0087578D01*
X0124963Y0087491D01*
X0124994Y0087402D01*
X0125021Y0087311D01*
X0125044Y0087220D01*
X0125064Y0087128D01*
X0125079Y0087035D01*
X0125091Y0086941D01*
X0125099Y0086847D01*
X0125103Y0086753D01*
X0125102Y0086659D01*
X0125098Y0086564D01*
X0125090Y0086470D01*
X0125079Y0086377D01*
X0125063Y0086284D01*
X0125043Y0086192D01*
X0125020Y0086100D01*
X0124992Y0086010D01*
X0124961Y0085921D01*
X0124926Y0085833D01*
X0124888Y0085747D01*
X0124846Y0085663D01*
X0124800Y0085580D01*
X0124752Y0085500D01*
X0124699Y0085421D01*
X0124644Y0085345D01*
X0124585Y0085271D01*
X0124524Y0085200D01*
X0124459Y0085131D01*
X0124391Y0085065D01*
X0124321Y0085002D01*
X0124249Y0084942D01*
X0124174Y0084885D01*
X0124096Y0084831D01*
X0124016Y0084780D01*
X0123935Y0084733D01*
X0123851Y0084690D01*
X0123766Y0084650D01*
X0123679Y0084613D01*
X0123590Y0084580D01*
X0123501Y0084551D01*
X0123410Y0084526D01*
X0123318Y0084504D01*
X0123225Y0084487D01*
X0123132Y0084473D01*
X0123038Y0084463D01*
X0122944Y0084457D01*
X0122850Y0084455D01*
X0122756Y0084457D01*
X0122662Y0084463D01*
X0122568Y0084473D01*
X0122475Y0084487D01*
X0122382Y0084504D01*
X0122290Y0084526D01*
X0122199Y0084551D01*
X0122110Y0084580D01*
X0122021Y0084613D01*
X0121934Y0084650D01*
X0121849Y0084690D01*
X0121765Y0084733D01*
X0121684Y0084780D01*
X0121604Y0084831D01*
X0121526Y0084885D01*
X0121451Y0084942D01*
X0121379Y0085002D01*
X0121309Y0085065D01*
X0121241Y0085131D01*
X0121176Y0085200D01*
X0121115Y0085271D01*
X0121056Y0085345D01*
X0121001Y0085421D01*
X0120948Y0085500D01*
X0120900Y0085580D01*
X0120854Y0085663D01*
X0120812Y0085747D01*
X0120774Y0085833D01*
X0120739Y0085921D01*
X0120708Y0086010D01*
X0120680Y0086100D01*
X0120657Y0086192D01*
X0120637Y0086284D01*
X0120621Y0086377D01*
X0120610Y0086470D01*
X0120602Y0086564D01*
X0120598Y0086659D01*
X0120597Y0086753D01*
X0120601Y0086847D01*
X0120609Y0086941D01*
X0120621Y0087035D01*
X0120636Y0087128D01*
X0120656Y0087220D01*
X0120679Y0087311D01*
X0120706Y0087402D01*
X0120737Y0087491D01*
X0120772Y0087578D01*
X0120810Y0087665D01*
X0120852Y0087749D01*
X0120897Y0087832D01*
X0120946Y0087913D01*
X0120998Y0087991D01*
X0121054Y0088068D01*
X0121112Y0088142D01*
X0121173Y0088213D01*
X0121238Y0088282D01*
X0121305Y0088348D01*
X0121375Y0088411D01*
X0121448Y0088471D01*
X0121523Y0088529D01*
X0121600Y0088583D01*
X0121677Y0088529D01*
X0121752Y0088471D01*
X0121825Y0088411D01*
X0121895Y0088348D01*
X0121962Y0088282D01*
X0122027Y0088213D01*
X0122088Y0088142D01*
X0122146Y0088068D01*
X0122202Y0087991D01*
X0122254Y0087913D01*
X0122303Y0087832D01*
X0122348Y0087749D01*
X0122390Y0087665D01*
X0122428Y0087578D01*
X0122463Y0087491D01*
X0122494Y0087402D01*
X0122521Y0087311D01*
X0122544Y0087220D01*
X0122564Y0087128D01*
X0122579Y0087035D01*
X0122591Y0086941D01*
X0122599Y0086847D01*
X0122603Y0086753D01*
X0122602Y0086659D01*
X0122598Y0086564D01*
X0122590Y0086470D01*
X0122579Y0086377D01*
X0122563Y0086284D01*
X0122543Y0086192D01*
X0122520Y0086100D01*
X0122492Y0086010D01*
X0122461Y0085921D01*
X0122426Y0085833D01*
X0122388Y0085747D01*
X0122346Y0085663D01*
X0122300Y0085580D01*
X0122252Y0085500D01*
X0122199Y0085421D01*
X0122144Y0085345D01*
X0122085Y0085271D01*
X0122024Y0085200D01*
X0121959Y0085131D01*
X0121891Y0085065D01*
X0121821Y0085002D01*
X0121749Y0084942D01*
X0121674Y0084885D01*
X0121596Y0084831D01*
X0121516Y0084780D01*
X0121435Y0084733D01*
X0121351Y0084690D01*
X0121266Y0084650D01*
X0121179Y0084613D01*
X0121090Y0084580D01*
X0121001Y0084551D01*
X0120910Y0084526D01*
X0120818Y0084504D01*
X0120725Y0084487D01*
X0120632Y0084473D01*
X0120538Y0084463D01*
X0120444Y0084457D01*
X0120350Y0084455D01*
X0120256Y0084457D01*
X0120162Y0084463D01*
X0120068Y0084473D01*
X0119975Y0084487D01*
X0119882Y0084504D01*
X0119790Y0084526D01*
X0119699Y0084551D01*
X0119610Y0084580D01*
X0119521Y0084613D01*
X0119434Y0084650D01*
X0119349Y0084690D01*
X0119265Y0084733D01*
X0119184Y0084780D01*
X0119104Y0084831D01*
X0119026Y0084885D01*
X0118951Y0084942D01*
X0118879Y0085002D01*
X0118809Y0085065D01*
X0118741Y0085131D01*
X0118676Y0085200D01*
X0118615Y0085271D01*
X0118556Y0085345D01*
X0118501Y0085421D01*
X0118448Y0085500D01*
X0118400Y0085580D01*
X0118354Y0085663D01*
X0118312Y0085747D01*
X0118274Y0085833D01*
X0118239Y0085921D01*
X0118208Y0086010D01*
X0118180Y0086100D01*
X0118157Y0086192D01*
X0118137Y0086284D01*
X0118121Y0086377D01*
X0118110Y0086470D01*
X0118102Y0086564D01*
X0118098Y0086659D01*
X0118097Y0086753D01*
X0118101Y0086847D01*
X0118109Y0086941D01*
X0118121Y0087035D01*
X0118136Y0087128D01*
X0118156Y0087220D01*
X0118179Y0087311D01*
X0118206Y0087402D01*
X0118237Y0087491D01*
X0118272Y0087578D01*
X0118310Y0087665D01*
X0118352Y0087749D01*
X0118397Y0087832D01*
X0118446Y0087913D01*
X0118498Y0087991D01*
X0118554Y0088068D01*
X0118612Y0088142D01*
X0118673Y0088213D01*
X0118738Y0088282D01*
X0118805Y0088348D01*
X0118875Y0088411D01*
X0118948Y0088471D01*
X0119023Y0088529D01*
X0119100Y0088583D01*
X0112850Y0088583D01*
X0112850Y0107333D01*
X0109100Y0111083D01*
X0110350Y0109833D02*
X0110350Y0064833D01*
X0131600Y0064833D01*
X0130350Y0063583D01*
X0131600Y0064833D02*
X0131600Y0081083D01*
X0126600Y0081083D01*
X0126677Y0081029D01*
X0126752Y0080971D01*
X0126825Y0080911D01*
X0126895Y0080848D01*
X0126962Y0080782D01*
X0127027Y0080713D01*
X0127088Y0080642D01*
X0127146Y0080568D01*
X0127202Y0080491D01*
X0127254Y0080413D01*
X0127303Y0080332D01*
X0127348Y0080249D01*
X0127390Y0080165D01*
X0127428Y0080078D01*
X0127463Y0079991D01*
X0127494Y0079902D01*
X0127521Y0079811D01*
X0127544Y0079720D01*
X0127564Y0079628D01*
X0127579Y0079535D01*
X0127591Y0079441D01*
X0127599Y0079347D01*
X0127603Y0079253D01*
X0127602Y0079159D01*
X0127598Y0079064D01*
X0127590Y0078970D01*
X0127579Y0078877D01*
X0127563Y0078784D01*
X0127543Y0078692D01*
X0127520Y0078600D01*
X0127492Y0078510D01*
X0127461Y0078421D01*
X0127426Y0078333D01*
X0127388Y0078247D01*
X0127346Y0078163D01*
X0127300Y0078080D01*
X0127252Y0078000D01*
X0127199Y0077921D01*
X0127144Y0077845D01*
X0127085Y0077771D01*
X0127024Y0077700D01*
X0126959Y0077631D01*
X0126891Y0077565D01*
X0126821Y0077502D01*
X0126749Y0077442D01*
X0126674Y0077385D01*
X0126596Y0077331D01*
X0126516Y0077280D01*
X0126435Y0077233D01*
X0126351Y0077190D01*
X0126266Y0077150D01*
X0126179Y0077113D01*
X0126090Y0077080D01*
X0126001Y0077051D01*
X0125910Y0077026D01*
X0125818Y0077004D01*
X0125725Y0076987D01*
X0125632Y0076973D01*
X0125538Y0076963D01*
X0125444Y0076957D01*
X0125350Y0076955D01*
X0125256Y0076957D01*
X0125162Y0076963D01*
X0125068Y0076973D01*
X0124975Y0076987D01*
X0124882Y0077004D01*
X0124790Y0077026D01*
X0124699Y0077051D01*
X0124610Y0077080D01*
X0124521Y0077113D01*
X0124434Y0077150D01*
X0124349Y0077190D01*
X0124265Y0077233D01*
X0124184Y0077280D01*
X0124104Y0077331D01*
X0124026Y0077385D01*
X0123951Y0077442D01*
X0123879Y0077502D01*
X0123809Y0077565D01*
X0123741Y0077631D01*
X0123676Y0077700D01*
X0123615Y0077771D01*
X0123556Y0077845D01*
X0123501Y0077921D01*
X0123448Y0078000D01*
X0123400Y0078080D01*
X0123354Y0078163D01*
X0123312Y0078247D01*
X0123274Y0078333D01*
X0123239Y0078421D01*
X0123208Y0078510D01*
X0123180Y0078600D01*
X0123157Y0078692D01*
X0123137Y0078784D01*
X0123121Y0078877D01*
X0123110Y0078970D01*
X0123102Y0079064D01*
X0123098Y0079159D01*
X0123097Y0079253D01*
X0123101Y0079347D01*
X0123109Y0079441D01*
X0123121Y0079535D01*
X0123136Y0079628D01*
X0123156Y0079720D01*
X0123179Y0079811D01*
X0123206Y0079902D01*
X0123237Y0079991D01*
X0123272Y0080078D01*
X0123310Y0080165D01*
X0123352Y0080249D01*
X0123397Y0080332D01*
X0123446Y0080413D01*
X0123498Y0080491D01*
X0123554Y0080568D01*
X0123612Y0080642D01*
X0123673Y0080713D01*
X0123738Y0080782D01*
X0123805Y0080848D01*
X0123875Y0080911D01*
X0123948Y0080971D01*
X0124023Y0081029D01*
X0124100Y0081083D01*
X0124177Y0081029D01*
X0124252Y0080971D01*
X0124325Y0080911D01*
X0124395Y0080848D01*
X0124462Y0080782D01*
X0124527Y0080713D01*
X0124588Y0080642D01*
X0124646Y0080568D01*
X0124702Y0080491D01*
X0124754Y0080413D01*
X0124803Y0080332D01*
X0124848Y0080249D01*
X0124890Y0080165D01*
X0124928Y0080078D01*
X0124963Y0079991D01*
X0124994Y0079902D01*
X0125021Y0079811D01*
X0125044Y0079720D01*
X0125064Y0079628D01*
X0125079Y0079535D01*
X0125091Y0079441D01*
X0125099Y0079347D01*
X0125103Y0079253D01*
X0125102Y0079159D01*
X0125098Y0079064D01*
X0125090Y0078970D01*
X0125079Y0078877D01*
X0125063Y0078784D01*
X0125043Y0078692D01*
X0125020Y0078600D01*
X0124992Y0078510D01*
X0124961Y0078421D01*
X0124926Y0078333D01*
X0124888Y0078247D01*
X0124846Y0078163D01*
X0124800Y0078080D01*
X0124752Y0078000D01*
X0124699Y0077921D01*
X0124644Y0077845D01*
X0124585Y0077771D01*
X0124524Y0077700D01*
X0124459Y0077631D01*
X0124391Y0077565D01*
X0124321Y0077502D01*
X0124249Y0077442D01*
X0124174Y0077385D01*
X0124096Y0077331D01*
X0124016Y0077280D01*
X0123935Y0077233D01*
X0123851Y0077190D01*
X0123766Y0077150D01*
X0123679Y0077113D01*
X0123590Y0077080D01*
X0123501Y0077051D01*
X0123410Y0077026D01*
X0123318Y0077004D01*
X0123225Y0076987D01*
X0123132Y0076973D01*
X0123038Y0076963D01*
X0122944Y0076957D01*
X0122850Y0076955D01*
X0122756Y0076957D01*
X0122662Y0076963D01*
X0122568Y0076973D01*
X0122475Y0076987D01*
X0122382Y0077004D01*
X0122290Y0077026D01*
X0122199Y0077051D01*
X0122110Y0077080D01*
X0122021Y0077113D01*
X0121934Y0077150D01*
X0121849Y0077190D01*
X0121765Y0077233D01*
X0121684Y0077280D01*
X0121604Y0077331D01*
X0121526Y0077385D01*
X0121451Y0077442D01*
X0121379Y0077502D01*
X0121309Y0077565D01*
X0121241Y0077631D01*
X0121176Y0077700D01*
X0121115Y0077771D01*
X0121056Y0077845D01*
X0121001Y0077921D01*
X0120948Y0078000D01*
X0120900Y0078080D01*
X0120854Y0078163D01*
X0120812Y0078247D01*
X0120774Y0078333D01*
X0120739Y0078421D01*
X0120708Y0078510D01*
X0120680Y0078600D01*
X0120657Y0078692D01*
X0120637Y0078784D01*
X0120621Y0078877D01*
X0120610Y0078970D01*
X0120602Y0079064D01*
X0120598Y0079159D01*
X0120597Y0079253D01*
X0120601Y0079347D01*
X0120609Y0079441D01*
X0120621Y0079535D01*
X0120636Y0079628D01*
X0120656Y0079720D01*
X0120679Y0079811D01*
X0120706Y0079902D01*
X0120737Y0079991D01*
X0120772Y0080078D01*
X0120810Y0080165D01*
X0120852Y0080249D01*
X0120897Y0080332D01*
X0120946Y0080413D01*
X0120998Y0080491D01*
X0121054Y0080568D01*
X0121112Y0080642D01*
X0121173Y0080713D01*
X0121238Y0080782D01*
X0121305Y0080848D01*
X0121375Y0080911D01*
X0121448Y0080971D01*
X0121523Y0081029D01*
X0121600Y0081083D01*
X0121677Y0081029D01*
X0121752Y0080971D01*
X0121825Y0080911D01*
X0121895Y0080848D01*
X0121962Y0080782D01*
X0122027Y0080713D01*
X0122088Y0080642D01*
X0122146Y0080568D01*
X0122202Y0080491D01*
X0122254Y0080413D01*
X0122303Y0080332D01*
X0122348Y0080249D01*
X0122390Y0080165D01*
X0122428Y0080078D01*
X0122463Y0079991D01*
X0122494Y0079902D01*
X0122521Y0079811D01*
X0122544Y0079720D01*
X0122564Y0079628D01*
X0122579Y0079535D01*
X0122591Y0079441D01*
X0122599Y0079347D01*
X0122603Y0079253D01*
X0122602Y0079159D01*
X0122598Y0079064D01*
X0122590Y0078970D01*
X0122579Y0078877D01*
X0122563Y0078784D01*
X0122543Y0078692D01*
X0122520Y0078600D01*
X0122492Y0078510D01*
X0122461Y0078421D01*
X0122426Y0078333D01*
X0122388Y0078247D01*
X0122346Y0078163D01*
X0122300Y0078080D01*
X0122252Y0078000D01*
X0122199Y0077921D01*
X0122144Y0077845D01*
X0122085Y0077771D01*
X0122024Y0077700D01*
X0121959Y0077631D01*
X0121891Y0077565D01*
X0121821Y0077502D01*
X0121749Y0077442D01*
X0121674Y0077385D01*
X0121596Y0077331D01*
X0121516Y0077280D01*
X0121435Y0077233D01*
X0121351Y0077190D01*
X0121266Y0077150D01*
X0121179Y0077113D01*
X0121090Y0077080D01*
X0121001Y0077051D01*
X0120910Y0077026D01*
X0120818Y0077004D01*
X0120725Y0076987D01*
X0120632Y0076973D01*
X0120538Y0076963D01*
X0120444Y0076957D01*
X0120350Y0076955D01*
X0120256Y0076957D01*
X0120162Y0076963D01*
X0120068Y0076973D01*
X0119975Y0076987D01*
X0119882Y0077004D01*
X0119790Y0077026D01*
X0119699Y0077051D01*
X0119610Y0077080D01*
X0119521Y0077113D01*
X0119434Y0077150D01*
X0119349Y0077190D01*
X0119265Y0077233D01*
X0119184Y0077280D01*
X0119104Y0077331D01*
X0119026Y0077385D01*
X0118951Y0077442D01*
X0118879Y0077502D01*
X0118809Y0077565D01*
X0118741Y0077631D01*
X0118676Y0077700D01*
X0118615Y0077771D01*
X0118556Y0077845D01*
X0118501Y0077921D01*
X0118448Y0078000D01*
X0118400Y0078080D01*
X0118354Y0078163D01*
X0118312Y0078247D01*
X0118274Y0078333D01*
X0118239Y0078421D01*
X0118208Y0078510D01*
X0118180Y0078600D01*
X0118157Y0078692D01*
X0118137Y0078784D01*
X0118121Y0078877D01*
X0118110Y0078970D01*
X0118102Y0079064D01*
X0118098Y0079159D01*
X0118097Y0079253D01*
X0118101Y0079347D01*
X0118109Y0079441D01*
X0118121Y0079535D01*
X0118136Y0079628D01*
X0118156Y0079720D01*
X0118179Y0079811D01*
X0118206Y0079902D01*
X0118237Y0079991D01*
X0118272Y0080078D01*
X0118310Y0080165D01*
X0118352Y0080249D01*
X0118397Y0080332D01*
X0118446Y0080413D01*
X0118498Y0080491D01*
X0118554Y0080568D01*
X0118612Y0080642D01*
X0118673Y0080713D01*
X0118738Y0080782D01*
X0118805Y0080848D01*
X0118875Y0080911D01*
X0118948Y0080971D01*
X0119023Y0081029D01*
X0119100Y0081083D01*
X0111600Y0081083D01*
X0111600Y0101083D01*
X0109100Y0101083D01*
X0114100Y0096083D02*
X0114100Y0109833D01*
X0115350Y0111083D01*
X0114100Y0109833D02*
X0110350Y0109833D01*
X0114100Y0109833D02*
X0135350Y0109833D01*
X0135350Y0064833D01*
X0131600Y0064833D01*
X0134100Y0073583D02*
X0136600Y0073583D01*
X0134100Y0073583D02*
X0134100Y0096083D01*
X0126600Y0096083D01*
X0126677Y0096029D01*
X0126752Y0095971D01*
X0126825Y0095911D01*
X0126895Y0095848D01*
X0126962Y0095782D01*
X0127027Y0095713D01*
X0127088Y0095642D01*
X0127146Y0095568D01*
X0127202Y0095491D01*
X0127254Y0095413D01*
X0127303Y0095332D01*
X0127348Y0095249D01*
X0127390Y0095165D01*
X0127428Y0095078D01*
X0127463Y0094991D01*
X0127494Y0094902D01*
X0127521Y0094811D01*
X0127544Y0094720D01*
X0127564Y0094628D01*
X0127579Y0094535D01*
X0127591Y0094441D01*
X0127599Y0094347D01*
X0127603Y0094253D01*
X0127602Y0094159D01*
X0127598Y0094064D01*
X0127590Y0093970D01*
X0127579Y0093877D01*
X0127563Y0093784D01*
X0127543Y0093692D01*
X0127520Y0093600D01*
X0127492Y0093510D01*
X0127461Y0093421D01*
X0127426Y0093333D01*
X0127388Y0093247D01*
X0127346Y0093163D01*
X0127300Y0093080D01*
X0127252Y0093000D01*
X0127199Y0092921D01*
X0127144Y0092845D01*
X0127085Y0092771D01*
X0127024Y0092700D01*
X0126959Y0092631D01*
X0126891Y0092565D01*
X0126821Y0092502D01*
X0126749Y0092442D01*
X0126674Y0092385D01*
X0126596Y0092331D01*
X0126516Y0092280D01*
X0126435Y0092233D01*
X0126351Y0092190D01*
X0126266Y0092150D01*
X0126179Y0092113D01*
X0126090Y0092080D01*
X0126001Y0092051D01*
X0125910Y0092026D01*
X0125818Y0092004D01*
X0125725Y0091987D01*
X0125632Y0091973D01*
X0125538Y0091963D01*
X0125444Y0091957D01*
X0125350Y0091955D01*
X0125256Y0091957D01*
X0125162Y0091963D01*
X0125068Y0091973D01*
X0124975Y0091987D01*
X0124882Y0092004D01*
X0124790Y0092026D01*
X0124699Y0092051D01*
X0124610Y0092080D01*
X0124521Y0092113D01*
X0124434Y0092150D01*
X0124349Y0092190D01*
X0124265Y0092233D01*
X0124184Y0092280D01*
X0124104Y0092331D01*
X0124026Y0092385D01*
X0123951Y0092442D01*
X0123879Y0092502D01*
X0123809Y0092565D01*
X0123741Y0092631D01*
X0123676Y0092700D01*
X0123615Y0092771D01*
X0123556Y0092845D01*
X0123501Y0092921D01*
X0123448Y0093000D01*
X0123400Y0093080D01*
X0123354Y0093163D01*
X0123312Y0093247D01*
X0123274Y0093333D01*
X0123239Y0093421D01*
X0123208Y0093510D01*
X0123180Y0093600D01*
X0123157Y0093692D01*
X0123137Y0093784D01*
X0123121Y0093877D01*
X0123110Y0093970D01*
X0123102Y0094064D01*
X0123098Y0094159D01*
X0123097Y0094253D01*
X0123101Y0094347D01*
X0123109Y0094441D01*
X0123121Y0094535D01*
X0123136Y0094628D01*
X0123156Y0094720D01*
X0123179Y0094811D01*
X0123206Y0094902D01*
X0123237Y0094991D01*
X0123272Y0095078D01*
X0123310Y0095165D01*
X0123352Y0095249D01*
X0123397Y0095332D01*
X0123446Y0095413D01*
X0123498Y0095491D01*
X0123554Y0095568D01*
X0123612Y0095642D01*
X0123673Y0095713D01*
X0123738Y0095782D01*
X0123805Y0095848D01*
X0123875Y0095911D01*
X0123948Y0095971D01*
X0124023Y0096029D01*
X0124100Y0096083D01*
X0124177Y0096029D01*
X0124252Y0095971D01*
X0124325Y0095911D01*
X0124395Y0095848D01*
X0124462Y0095782D01*
X0124527Y0095713D01*
X0124588Y0095642D01*
X0124646Y0095568D01*
X0124702Y0095491D01*
X0124754Y0095413D01*
X0124803Y0095332D01*
X0124848Y0095249D01*
X0124890Y0095165D01*
X0124928Y0095078D01*
X0124963Y0094991D01*
X0124994Y0094902D01*
X0125021Y0094811D01*
X0125044Y0094720D01*
X0125064Y0094628D01*
X0125079Y0094535D01*
X0125091Y0094441D01*
X0125099Y0094347D01*
X0125103Y0094253D01*
X0125102Y0094159D01*
X0125098Y0094064D01*
X0125090Y0093970D01*
X0125079Y0093877D01*
X0125063Y0093784D01*
X0125043Y0093692D01*
X0125020Y0093600D01*
X0124992Y0093510D01*
X0124961Y0093421D01*
X0124926Y0093333D01*
X0124888Y0093247D01*
X0124846Y0093163D01*
X0124800Y0093080D01*
X0124752Y0093000D01*
X0124699Y0092921D01*
X0124644Y0092845D01*
X0124585Y0092771D01*
X0124524Y0092700D01*
X0124459Y0092631D01*
X0124391Y0092565D01*
X0124321Y0092502D01*
X0124249Y0092442D01*
X0124174Y0092385D01*
X0124096Y0092331D01*
X0124016Y0092280D01*
X0123935Y0092233D01*
X0123851Y0092190D01*
X0123766Y0092150D01*
X0123679Y0092113D01*
X0123590Y0092080D01*
X0123501Y0092051D01*
X0123410Y0092026D01*
X0123318Y0092004D01*
X0123225Y0091987D01*
X0123132Y0091973D01*
X0123038Y0091963D01*
X0122944Y0091957D01*
X0122850Y0091955D01*
X0122756Y0091957D01*
X0122662Y0091963D01*
X0122568Y0091973D01*
X0122475Y0091987D01*
X0122382Y0092004D01*
X0122290Y0092026D01*
X0122199Y0092051D01*
X0122110Y0092080D01*
X0122021Y0092113D01*
X0121934Y0092150D01*
X0121849Y0092190D01*
X0121765Y0092233D01*
X0121684Y0092280D01*
X0121604Y0092331D01*
X0121526Y0092385D01*
X0121451Y0092442D01*
X0121379Y0092502D01*
X0121309Y0092565D01*
X0121241Y0092631D01*
X0121176Y0092700D01*
X0121115Y0092771D01*
X0121056Y0092845D01*
X0121001Y0092921D01*
X0120948Y0093000D01*
X0120900Y0093080D01*
X0120854Y0093163D01*
X0120812Y0093247D01*
X0120774Y0093333D01*
X0120739Y0093421D01*
X0120708Y0093510D01*
X0120680Y0093600D01*
X0120657Y0093692D01*
X0120637Y0093784D01*
X0120621Y0093877D01*
X0120610Y0093970D01*
X0120602Y0094064D01*
X0120598Y0094159D01*
X0120597Y0094253D01*
X0120601Y0094347D01*
X0120609Y0094441D01*
X0120621Y0094535D01*
X0120636Y0094628D01*
X0120656Y0094720D01*
X0120679Y0094811D01*
X0120706Y0094902D01*
X0120737Y0094991D01*
X0120772Y0095078D01*
X0120810Y0095165D01*
X0120852Y0095249D01*
X0120897Y0095332D01*
X0120946Y0095413D01*
X0120998Y0095491D01*
X0121054Y0095568D01*
X0121112Y0095642D01*
X0121173Y0095713D01*
X0121238Y0095782D01*
X0121305Y0095848D01*
X0121375Y0095911D01*
X0121448Y0095971D01*
X0121523Y0096029D01*
X0121600Y0096083D01*
X0121677Y0096029D01*
X0121752Y0095971D01*
X0121825Y0095911D01*
X0121895Y0095848D01*
X0121962Y0095782D01*
X0122027Y0095713D01*
X0122088Y0095642D01*
X0122146Y0095568D01*
X0122202Y0095491D01*
X0122254Y0095413D01*
X0122303Y0095332D01*
X0122348Y0095249D01*
X0122390Y0095165D01*
X0122428Y0095078D01*
X0122463Y0094991D01*
X0122494Y0094902D01*
X0122521Y0094811D01*
X0122544Y0094720D01*
X0122564Y0094628D01*
X0122579Y0094535D01*
X0122591Y0094441D01*
X0122599Y0094347D01*
X0122603Y0094253D01*
X0122602Y0094159D01*
X0122598Y0094064D01*
X0122590Y0093970D01*
X0122579Y0093877D01*
X0122563Y0093784D01*
X0122543Y0093692D01*
X0122520Y0093600D01*
X0122492Y0093510D01*
X0122461Y0093421D01*
X0122426Y0093333D01*
X0122388Y0093247D01*
X0122346Y0093163D01*
X0122300Y0093080D01*
X0122252Y0093000D01*
X0122199Y0092921D01*
X0122144Y0092845D01*
X0122085Y0092771D01*
X0122024Y0092700D01*
X0121959Y0092631D01*
X0121891Y0092565D01*
X0121821Y0092502D01*
X0121749Y0092442D01*
X0121674Y0092385D01*
X0121596Y0092331D01*
X0121516Y0092280D01*
X0121435Y0092233D01*
X0121351Y0092190D01*
X0121266Y0092150D01*
X0121179Y0092113D01*
X0121090Y0092080D01*
X0121001Y0092051D01*
X0120910Y0092026D01*
X0120818Y0092004D01*
X0120725Y0091987D01*
X0120632Y0091973D01*
X0120538Y0091963D01*
X0120444Y0091957D01*
X0120350Y0091955D01*
X0120256Y0091957D01*
X0120162Y0091963D01*
X0120068Y0091973D01*
X0119975Y0091987D01*
X0119882Y0092004D01*
X0119790Y0092026D01*
X0119699Y0092051D01*
X0119610Y0092080D01*
X0119521Y0092113D01*
X0119434Y0092150D01*
X0119349Y0092190D01*
X0119265Y0092233D01*
X0119184Y0092280D01*
X0119104Y0092331D01*
X0119026Y0092385D01*
X0118951Y0092442D01*
X0118879Y0092502D01*
X0118809Y0092565D01*
X0118741Y0092631D01*
X0118676Y0092700D01*
X0118615Y0092771D01*
X0118556Y0092845D01*
X0118501Y0092921D01*
X0118448Y0093000D01*
X0118400Y0093080D01*
X0118354Y0093163D01*
X0118312Y0093247D01*
X0118274Y0093333D01*
X0118239Y0093421D01*
X0118208Y0093510D01*
X0118180Y0093600D01*
X0118157Y0093692D01*
X0118137Y0093784D01*
X0118121Y0093877D01*
X0118110Y0093970D01*
X0118102Y0094064D01*
X0118098Y0094159D01*
X0118097Y0094253D01*
X0118101Y0094347D01*
X0118109Y0094441D01*
X0118121Y0094535D01*
X0118136Y0094628D01*
X0118156Y0094720D01*
X0118179Y0094811D01*
X0118206Y0094902D01*
X0118237Y0094991D01*
X0118272Y0095078D01*
X0118310Y0095165D01*
X0118352Y0095249D01*
X0118397Y0095332D01*
X0118446Y0095413D01*
X0118498Y0095491D01*
X0118554Y0095568D01*
X0118612Y0095642D01*
X0118673Y0095713D01*
X0118738Y0095782D01*
X0118805Y0095848D01*
X0118875Y0095911D01*
X0118948Y0095971D01*
X0119023Y0096029D01*
X0119100Y0096083D01*
X0114100Y0096083D01*
X0100242Y0098918D02*
X0100242Y0110749D01*
X0092958Y0110749D01*
X0092958Y0098918D01*
X0100242Y0098918D01*
X0092614Y0122609D02*
X0092614Y0132058D01*
X0113086Y0132058D01*
X0113086Y0122766D01*
X0113086Y0122609D01*
X0092614Y0122609D01*
X0116935Y0123691D02*
X0128765Y0123691D01*
X0128765Y0130975D01*
X0116935Y0130975D01*
X0116935Y0123691D01*
X0120291Y0133928D02*
X0123834Y0133928D01*
X0120291Y0133928D02*
X0120291Y0137077D01*
X0125409Y0138652D02*
X0125409Y0141014D01*
X0120291Y0142589D02*
X0120291Y0145739D01*
X0123834Y0145739D01*
X0129149Y0148790D02*
X0129149Y0155877D01*
X0116551Y0155877D01*
X0116551Y0148790D01*
X0129149Y0148790D01*
X0134435Y0148691D02*
X0146265Y0148691D01*
X0146265Y0155975D01*
X0134435Y0155975D01*
X0134435Y0148691D01*
X0137200Y0145542D02*
X0143500Y0145542D01*
X0143500Y0145345D01*
X0143500Y0141802D02*
X0143500Y0137865D01*
X0143500Y0134321D02*
X0143500Y0134125D01*
X0137200Y0134125D01*
X0137200Y0134321D01*
X0132801Y0130877D02*
X0132801Y0123790D01*
X0145399Y0123790D01*
X0145399Y0130877D01*
X0132801Y0130877D01*
X0137200Y0145345D02*
X0137200Y0145542D01*
X0165704Y0146920D02*
X0165704Y0141959D01*
X0165797Y0141960D01*
X0165889Y0141956D01*
X0165982Y0141949D01*
X0166074Y0141938D01*
X0166166Y0141923D01*
X0166256Y0141904D01*
X0166346Y0141881D01*
X0166435Y0141854D01*
X0166523Y0141824D01*
X0166609Y0141790D01*
X0166694Y0141752D01*
X0166777Y0141711D01*
X0166858Y0141666D01*
X0166938Y0141618D01*
X0167015Y0141566D01*
X0167090Y0141511D01*
X0167162Y0141453D01*
X0167232Y0141392D01*
X0167300Y0141329D01*
X0167364Y0141262D01*
X0167426Y0141193D01*
X0167485Y0141121D01*
X0167540Y0141047D01*
X0167593Y0140970D01*
X0167642Y0140891D01*
X0167688Y0140811D01*
X0167730Y0140728D01*
X0167769Y0140644D01*
X0167804Y0140558D01*
X0167835Y0140470D01*
X0167863Y0140382D01*
X0167887Y0140292D01*
X0167907Y0140202D01*
X0167923Y0140110D01*
X0167935Y0140018D01*
X0167944Y0139926D01*
X0167948Y0139833D01*
X0167948Y0139518D01*
X0167946Y0139428D01*
X0167940Y0139338D01*
X0167931Y0139248D01*
X0167917Y0139159D01*
X0167900Y0139070D01*
X0167879Y0138982D01*
X0167855Y0138895D01*
X0167827Y0138810D01*
X0167795Y0138725D01*
X0167759Y0138642D01*
X0167720Y0138561D01*
X0167678Y0138481D01*
X0167632Y0138403D01*
X0167583Y0138327D01*
X0167531Y0138254D01*
X0167476Y0138182D01*
X0167418Y0138113D01*
X0167357Y0138047D01*
X0167293Y0137983D01*
X0167227Y0137922D01*
X0167158Y0137864D01*
X0167086Y0137809D01*
X0167013Y0137757D01*
X0166937Y0137708D01*
X0166859Y0137662D01*
X0166779Y0137620D01*
X0166698Y0137581D01*
X0166615Y0137545D01*
X0166530Y0137513D01*
X0166445Y0137485D01*
X0166358Y0137461D01*
X0166270Y0137440D01*
X0166181Y0137423D01*
X0166092Y0137409D01*
X0166002Y0137400D01*
X0165912Y0137394D01*
X0165822Y0137392D01*
X0165704Y0137392D01*
X0165704Y0132747D01*
X0184996Y0132747D01*
X0184996Y0146920D01*
X0165704Y0146920D01*
X0163185Y0123475D02*
X0163185Y0116191D01*
X0175015Y0116191D01*
X0175015Y0123475D01*
X0163185Y0123475D01*
X0208126Y0118819D02*
X0208126Y0098347D01*
X0217574Y0098347D01*
X0217574Y0118819D01*
X0217417Y0118819D01*
X0208126Y0118819D01*
X0209700Y0126625D02*
X0209700Y0126821D01*
X0209700Y0126625D02*
X0216000Y0126625D01*
X0216000Y0126821D01*
X0216000Y0130365D02*
X0216000Y0134302D01*
X0216000Y0137845D02*
X0216000Y0138042D01*
X0209700Y0138042D01*
X0209700Y0137845D01*
X0206935Y0139941D02*
X0218765Y0139941D01*
X0218765Y0147225D01*
X0206935Y0147225D01*
X0206935Y0139941D01*
X0206935Y0148691D02*
X0218765Y0148691D01*
X0218765Y0155975D01*
X0206935Y0155975D01*
X0206935Y0148691D01*
X0208185Y0077225D02*
X0208185Y0069941D01*
X0220015Y0069941D01*
X0220015Y0077225D01*
X0208185Y0077225D01*
X0208185Y0068475D02*
X0208185Y0061191D01*
X0220015Y0061191D01*
X0220015Y0068475D01*
X0208185Y0068475D01*
X0210950Y0059292D02*
X0217250Y0059292D01*
X0217250Y0059095D01*
X0217250Y0055552D02*
X0217250Y0051615D01*
X0217250Y0048071D02*
X0217250Y0047875D01*
X0210950Y0047875D01*
X0210950Y0048071D01*
X0209376Y0041319D02*
X0218667Y0041319D01*
X0218824Y0041319D01*
X0218824Y0020847D01*
X0209376Y0020847D01*
X0209376Y0041319D01*
X0210950Y0059095D02*
X0210950Y0059292D01*
D13*
X0164326Y0131565D03*
D14*
X0128900Y0117133D02*
X0127367Y0114961D01*
X0127367Y0112533D01*
X0127367Y0114961D02*
X0125833Y0117133D01*
X0114525Y0117133D02*
X0112992Y0117133D01*
X0112930Y0117131D01*
X0112869Y0117126D01*
X0112808Y0117116D01*
X0112747Y0117103D01*
X0112688Y0117087D01*
X0112630Y0117067D01*
X0112573Y0117043D01*
X0112517Y0117016D01*
X0112463Y0116986D01*
X0112411Y0116952D01*
X0112362Y0116915D01*
X0112314Y0116876D01*
X0112269Y0116834D01*
X0112227Y0116789D01*
X0112187Y0116741D01*
X0112151Y0116692D01*
X0112117Y0116640D01*
X0112087Y0116586D01*
X0112060Y0116530D01*
X0112036Y0116473D01*
X0112016Y0116415D01*
X0112000Y0116356D01*
X0111987Y0116295D01*
X0111977Y0116234D01*
X0111972Y0116173D01*
X0111970Y0116111D01*
X0111969Y0116111D02*
X0111969Y0113555D01*
X0111970Y0113555D02*
X0111972Y0113493D01*
X0111977Y0113432D01*
X0111987Y0113371D01*
X0112000Y0113310D01*
X0112016Y0113251D01*
X0112036Y0113193D01*
X0112060Y0113136D01*
X0112087Y0113080D01*
X0112117Y0113026D01*
X0112151Y0112974D01*
X0112187Y0112925D01*
X0112227Y0112877D01*
X0112269Y0112832D01*
X0112314Y0112790D01*
X0112362Y0112750D01*
X0112411Y0112714D01*
X0112463Y0112680D01*
X0112517Y0112650D01*
X0112573Y0112623D01*
X0112630Y0112599D01*
X0112688Y0112579D01*
X0112747Y0112563D01*
X0112808Y0112550D01*
X0112869Y0112540D01*
X0112930Y0112535D01*
X0112992Y0112533D01*
X0114525Y0112533D01*
X0114525Y0115089D01*
X0113758Y0115089D01*
X0106372Y0110258D02*
X0105094Y0110258D01*
X0105094Y0105658D01*
X0105094Y0107703D02*
X0106372Y0107703D01*
X0106628Y0107703D02*
X0107650Y0105658D01*
X0106372Y0107702D02*
X0106442Y0107704D01*
X0106513Y0107710D01*
X0106582Y0107719D01*
X0106651Y0107733D01*
X0106720Y0107750D01*
X0106787Y0107771D01*
X0106853Y0107796D01*
X0106917Y0107824D01*
X0106980Y0107856D01*
X0107041Y0107891D01*
X0107100Y0107930D01*
X0107157Y0107971D01*
X0107211Y0108016D01*
X0107263Y0108064D01*
X0107312Y0108114D01*
X0107359Y0108168D01*
X0107402Y0108223D01*
X0107442Y0108281D01*
X0107479Y0108341D01*
X0107512Y0108403D01*
X0107542Y0108467D01*
X0107569Y0108532D01*
X0107592Y0108598D01*
X0107611Y0108666D01*
X0107626Y0108735D01*
X0107638Y0108804D01*
X0107646Y0108874D01*
X0107650Y0108945D01*
X0107650Y0109015D01*
X0107646Y0109086D01*
X0107638Y0109156D01*
X0107626Y0109225D01*
X0107611Y0109294D01*
X0107592Y0109362D01*
X0107569Y0109428D01*
X0107542Y0109493D01*
X0107512Y0109557D01*
X0107479Y0109619D01*
X0107442Y0109679D01*
X0107402Y0109737D01*
X0107359Y0109792D01*
X0107312Y0109846D01*
X0107263Y0109896D01*
X0107211Y0109944D01*
X0107157Y0109989D01*
X0107100Y0110030D01*
X0107041Y0110069D01*
X0106980Y0110104D01*
X0106917Y0110136D01*
X0106853Y0110164D01*
X0106787Y0110189D01*
X0106720Y0110210D01*
X0106651Y0110227D01*
X0106582Y0110241D01*
X0106513Y0110250D01*
X0106442Y0110256D01*
X0106372Y0110258D01*
X0119136Y0107133D02*
X0119136Y0102533D01*
X0120414Y0102533D01*
X0120484Y0102535D01*
X0120555Y0102541D01*
X0120624Y0102550D01*
X0120693Y0102564D01*
X0120762Y0102581D01*
X0120829Y0102602D01*
X0120895Y0102627D01*
X0120959Y0102655D01*
X0121022Y0102687D01*
X0121083Y0102722D01*
X0121142Y0102761D01*
X0121199Y0102802D01*
X0121253Y0102847D01*
X0121305Y0102895D01*
X0121354Y0102945D01*
X0121401Y0102999D01*
X0121444Y0103054D01*
X0121484Y0103112D01*
X0121521Y0103172D01*
X0121554Y0103234D01*
X0121584Y0103298D01*
X0121611Y0103363D01*
X0121634Y0103429D01*
X0121653Y0103497D01*
X0121668Y0103566D01*
X0121680Y0103635D01*
X0121688Y0103705D01*
X0121692Y0103776D01*
X0121692Y0103846D01*
X0121688Y0103917D01*
X0121680Y0103987D01*
X0121668Y0104056D01*
X0121653Y0104125D01*
X0121634Y0104193D01*
X0121611Y0104259D01*
X0121584Y0104324D01*
X0121554Y0104388D01*
X0121521Y0104450D01*
X0121484Y0104510D01*
X0121444Y0104568D01*
X0121401Y0104623D01*
X0121354Y0104677D01*
X0121305Y0104727D01*
X0121253Y0104775D01*
X0121199Y0104820D01*
X0121142Y0104861D01*
X0121083Y0104900D01*
X0121022Y0104935D01*
X0120959Y0104967D01*
X0120895Y0104995D01*
X0120829Y0105020D01*
X0120762Y0105041D01*
X0120693Y0105058D01*
X0120624Y0105072D01*
X0120555Y0105081D01*
X0120484Y0105087D01*
X0120414Y0105089D01*
X0119136Y0105089D01*
X0120414Y0105089D02*
X0120477Y0105091D01*
X0120540Y0105097D01*
X0120602Y0105106D01*
X0120663Y0105120D01*
X0120724Y0105137D01*
X0120783Y0105158D01*
X0120841Y0105183D01*
X0120898Y0105211D01*
X0120952Y0105242D01*
X0121004Y0105277D01*
X0121055Y0105315D01*
X0121103Y0105356D01*
X0121148Y0105400D01*
X0121190Y0105446D01*
X0121230Y0105495D01*
X0121266Y0105546D01*
X0121299Y0105600D01*
X0121329Y0105655D01*
X0121355Y0105713D01*
X0121378Y0105771D01*
X0121397Y0105831D01*
X0121412Y0105892D01*
X0121424Y0105954D01*
X0121432Y0106017D01*
X0121436Y0106080D01*
X0121436Y0106142D01*
X0121432Y0106205D01*
X0121424Y0106268D01*
X0121412Y0106330D01*
X0121397Y0106391D01*
X0121378Y0106451D01*
X0121355Y0106509D01*
X0121329Y0106567D01*
X0121299Y0106622D01*
X0121266Y0106676D01*
X0121230Y0106727D01*
X0121190Y0106776D01*
X0121148Y0106822D01*
X0121103Y0106866D01*
X0121055Y0106907D01*
X0121004Y0106945D01*
X0120952Y0106980D01*
X0120898Y0107011D01*
X0120841Y0107039D01*
X0120783Y0107064D01*
X0120724Y0107085D01*
X0120663Y0107102D01*
X0120602Y0107116D01*
X0120540Y0107125D01*
X0120477Y0107131D01*
X0120414Y0107133D01*
X0119136Y0107133D01*
X0123579Y0107133D02*
X0123579Y0102533D01*
X0125623Y0102533D01*
X0127064Y0102533D02*
X0128597Y0107133D01*
X0130131Y0102533D01*
X0129747Y0103683D02*
X0127447Y0103683D01*
X0125112Y0105089D02*
X0123579Y0105089D01*
X0123579Y0107133D02*
X0125623Y0107133D01*
X0131970Y0107133D02*
X0131970Y0102533D01*
X0133247Y0102533D01*
X0133316Y0102535D01*
X0133385Y0102540D01*
X0133454Y0102550D01*
X0133522Y0102563D01*
X0133589Y0102580D01*
X0133655Y0102600D01*
X0133720Y0102624D01*
X0133784Y0102651D01*
X0133846Y0102682D01*
X0133906Y0102716D01*
X0133964Y0102753D01*
X0134020Y0102794D01*
X0134074Y0102837D01*
X0134126Y0102883D01*
X0134175Y0102932D01*
X0134221Y0102984D01*
X0134264Y0103038D01*
X0134305Y0103094D01*
X0134342Y0103152D01*
X0134376Y0103212D01*
X0134407Y0103274D01*
X0134434Y0103338D01*
X0134458Y0103403D01*
X0134478Y0103469D01*
X0134495Y0103536D01*
X0134508Y0103604D01*
X0134518Y0103673D01*
X0134523Y0103742D01*
X0134525Y0103811D01*
X0134525Y0105855D01*
X0134523Y0105924D01*
X0134518Y0105993D01*
X0134508Y0106062D01*
X0134495Y0106130D01*
X0134478Y0106197D01*
X0134458Y0106263D01*
X0134434Y0106328D01*
X0134407Y0106392D01*
X0134376Y0106454D01*
X0134342Y0106514D01*
X0134305Y0106572D01*
X0134264Y0106628D01*
X0134221Y0106682D01*
X0134175Y0106734D01*
X0134126Y0106783D01*
X0134074Y0106829D01*
X0134020Y0106872D01*
X0133964Y0106913D01*
X0133906Y0106950D01*
X0133846Y0106984D01*
X0133784Y0107015D01*
X0133720Y0107042D01*
X0133655Y0107066D01*
X0133589Y0107086D01*
X0133522Y0107103D01*
X0133454Y0107116D01*
X0133385Y0107126D01*
X0133316Y0107131D01*
X0133247Y0107133D01*
X0131970Y0107133D01*
X0117742Y0072133D02*
X0116720Y0068555D01*
X0119275Y0068555D01*
X0118509Y0067533D02*
X0118509Y0069578D01*
X0123392Y0068172D02*
X0123440Y0068276D01*
X0123486Y0068381D01*
X0123528Y0068487D01*
X0123567Y0068595D01*
X0123603Y0068704D01*
X0123635Y0068814D01*
X0123665Y0068925D01*
X0123690Y0069037D01*
X0123713Y0069149D01*
X0123732Y0069262D01*
X0123747Y0069376D01*
X0123759Y0069490D01*
X0123768Y0069604D01*
X0123773Y0069718D01*
X0123775Y0069833D01*
X0121219Y0069833D02*
X0121221Y0069948D01*
X0121226Y0070062D01*
X0121235Y0070176D01*
X0121247Y0070290D01*
X0121262Y0070404D01*
X0121281Y0070517D01*
X0121304Y0070629D01*
X0121329Y0070741D01*
X0121359Y0070852D01*
X0121391Y0070962D01*
X0121427Y0071071D01*
X0121466Y0071179D01*
X0121508Y0071285D01*
X0121554Y0071390D01*
X0121602Y0071494D01*
X0122497Y0072134D02*
X0122556Y0072132D01*
X0122614Y0072127D01*
X0122672Y0072118D01*
X0122729Y0072105D01*
X0122786Y0072089D01*
X0122841Y0072069D01*
X0122895Y0072046D01*
X0122947Y0072020D01*
X0122998Y0071990D01*
X0123047Y0071958D01*
X0123094Y0071922D01*
X0123138Y0071884D01*
X0123180Y0071843D01*
X0123219Y0071799D01*
X0123256Y0071753D01*
X0123289Y0071705D01*
X0123320Y0071655D01*
X0123347Y0071603D01*
X0123371Y0071550D01*
X0123392Y0071495D01*
X0123520Y0071111D02*
X0121475Y0068555D01*
X0122497Y0067533D02*
X0122556Y0067535D01*
X0122614Y0067540D01*
X0122672Y0067549D01*
X0122729Y0067562D01*
X0122786Y0067578D01*
X0122841Y0067598D01*
X0122895Y0067621D01*
X0122947Y0067647D01*
X0122998Y0067677D01*
X0123047Y0067709D01*
X0123094Y0067745D01*
X0123138Y0067783D01*
X0123180Y0067824D01*
X0123219Y0067868D01*
X0123256Y0067914D01*
X0123289Y0067962D01*
X0123320Y0068012D01*
X0123347Y0068064D01*
X0123371Y0068117D01*
X0123392Y0068172D01*
X0122497Y0067533D02*
X0122438Y0067535D01*
X0122380Y0067540D01*
X0122322Y0067549D01*
X0122265Y0067562D01*
X0122208Y0067578D01*
X0122153Y0067598D01*
X0122099Y0067621D01*
X0122047Y0067647D01*
X0121996Y0067677D01*
X0121947Y0067709D01*
X0121900Y0067745D01*
X0121856Y0067783D01*
X0121814Y0067824D01*
X0121775Y0067868D01*
X0121738Y0067914D01*
X0121705Y0067962D01*
X0121674Y0068012D01*
X0121647Y0068064D01*
X0121623Y0068117D01*
X0121602Y0068172D01*
X0123775Y0069833D02*
X0123773Y0069948D01*
X0123768Y0070062D01*
X0123759Y0070176D01*
X0123747Y0070290D01*
X0123732Y0070404D01*
X0123713Y0070517D01*
X0123690Y0070629D01*
X0123665Y0070741D01*
X0123635Y0070852D01*
X0123603Y0070962D01*
X0123567Y0071071D01*
X0123528Y0071179D01*
X0123486Y0071285D01*
X0123440Y0071390D01*
X0123392Y0071494D01*
X0122497Y0072134D02*
X0122438Y0072132D01*
X0122380Y0072127D01*
X0122322Y0072118D01*
X0122265Y0072105D01*
X0122208Y0072089D01*
X0122153Y0072069D01*
X0122099Y0072046D01*
X0122047Y0072020D01*
X0121996Y0071990D01*
X0121947Y0071958D01*
X0121900Y0071922D01*
X0121856Y0071884D01*
X0121814Y0071843D01*
X0121775Y0071799D01*
X0121738Y0071753D01*
X0121705Y0071705D01*
X0121674Y0071655D01*
X0121647Y0071603D01*
X0121623Y0071550D01*
X0121602Y0071495D01*
X0121219Y0069833D02*
X0121221Y0069718D01*
X0121226Y0069604D01*
X0121235Y0069490D01*
X0121247Y0069376D01*
X0121262Y0069262D01*
X0121281Y0069149D01*
X0121304Y0069037D01*
X0121329Y0068925D01*
X0121359Y0068814D01*
X0121391Y0068704D01*
X0121427Y0068595D01*
X0121466Y0068487D01*
X0121508Y0068381D01*
X0121554Y0068276D01*
X0121602Y0068172D01*
X0125720Y0067533D02*
X0128275Y0067533D01*
X0125720Y0067533D02*
X0127892Y0070089D01*
X0127125Y0072133D02*
X0127051Y0072131D01*
X0126977Y0072126D01*
X0126903Y0072116D01*
X0126830Y0072103D01*
X0126757Y0072087D01*
X0126686Y0072066D01*
X0126616Y0072042D01*
X0126547Y0072015D01*
X0126479Y0071984D01*
X0126413Y0071950D01*
X0126349Y0071913D01*
X0126287Y0071872D01*
X0126227Y0071828D01*
X0126169Y0071782D01*
X0126113Y0071732D01*
X0126060Y0071680D01*
X0126010Y0071625D01*
X0125963Y0071568D01*
X0125919Y0071508D01*
X0125877Y0071446D01*
X0125839Y0071383D01*
X0125804Y0071317D01*
X0125773Y0071250D01*
X0125745Y0071181D01*
X0125720Y0071111D01*
X0127892Y0070089D02*
X0127939Y0070136D01*
X0127983Y0070186D01*
X0128025Y0070238D01*
X0128064Y0070292D01*
X0128099Y0070348D01*
X0128132Y0070406D01*
X0128162Y0070466D01*
X0128188Y0070527D01*
X0128211Y0070590D01*
X0128230Y0070654D01*
X0128246Y0070718D01*
X0128259Y0070784D01*
X0128268Y0070850D01*
X0128273Y0070916D01*
X0128275Y0070983D01*
X0128273Y0071050D01*
X0128267Y0071117D01*
X0128258Y0071183D01*
X0128244Y0071248D01*
X0128227Y0071313D01*
X0128206Y0071376D01*
X0128181Y0071438D01*
X0128153Y0071499D01*
X0128121Y0071558D01*
X0128086Y0071615D01*
X0128047Y0071670D01*
X0128006Y0071722D01*
X0127961Y0071772D01*
X0127914Y0071819D01*
X0127864Y0071864D01*
X0127812Y0071905D01*
X0127757Y0071944D01*
X0127700Y0071979D01*
X0127641Y0072011D01*
X0127580Y0072039D01*
X0127518Y0072064D01*
X0127455Y0072085D01*
X0127390Y0072102D01*
X0127325Y0072116D01*
X0127259Y0072125D01*
X0127192Y0072131D01*
X0127125Y0072133D01*
X0139583Y0069008D02*
X0141117Y0066836D01*
X0141117Y0064408D01*
X0141117Y0066836D02*
X0142650Y0069008D01*
X0135775Y0062133D02*
X0134242Y0062133D01*
X0134180Y0062131D01*
X0134119Y0062126D01*
X0134058Y0062116D01*
X0133997Y0062103D01*
X0133938Y0062087D01*
X0133880Y0062067D01*
X0133823Y0062043D01*
X0133767Y0062016D01*
X0133713Y0061986D01*
X0133661Y0061952D01*
X0133612Y0061915D01*
X0133564Y0061876D01*
X0133519Y0061834D01*
X0133477Y0061789D01*
X0133437Y0061741D01*
X0133401Y0061692D01*
X0133367Y0061640D01*
X0133337Y0061586D01*
X0133310Y0061530D01*
X0133286Y0061473D01*
X0133266Y0061415D01*
X0133250Y0061356D01*
X0133237Y0061295D01*
X0133227Y0061234D01*
X0133222Y0061173D01*
X0133220Y0061111D01*
X0133219Y0061111D02*
X0133219Y0058555D01*
X0133220Y0058555D02*
X0133222Y0058493D01*
X0133227Y0058432D01*
X0133237Y0058371D01*
X0133250Y0058310D01*
X0133266Y0058251D01*
X0133286Y0058193D01*
X0133310Y0058136D01*
X0133337Y0058080D01*
X0133367Y0058026D01*
X0133401Y0057974D01*
X0133437Y0057925D01*
X0133477Y0057877D01*
X0133519Y0057832D01*
X0133564Y0057790D01*
X0133612Y0057750D01*
X0133661Y0057714D01*
X0133713Y0057680D01*
X0133767Y0057650D01*
X0133823Y0057623D01*
X0133880Y0057599D01*
X0133938Y0057579D01*
X0133997Y0057563D01*
X0134058Y0057550D01*
X0134119Y0057540D01*
X0134180Y0057535D01*
X0134242Y0057533D01*
X0135775Y0057533D01*
X0135775Y0060089D01*
X0135008Y0060089D01*
X0121400Y0057533D02*
X0120378Y0059578D01*
X0120122Y0059578D02*
X0118844Y0059578D01*
X0120122Y0059577D02*
X0120192Y0059579D01*
X0120263Y0059585D01*
X0120332Y0059594D01*
X0120401Y0059608D01*
X0120470Y0059625D01*
X0120537Y0059646D01*
X0120603Y0059671D01*
X0120667Y0059699D01*
X0120730Y0059731D01*
X0120791Y0059766D01*
X0120850Y0059805D01*
X0120907Y0059846D01*
X0120961Y0059891D01*
X0121013Y0059939D01*
X0121062Y0059989D01*
X0121109Y0060043D01*
X0121152Y0060098D01*
X0121192Y0060156D01*
X0121229Y0060216D01*
X0121262Y0060278D01*
X0121292Y0060342D01*
X0121319Y0060407D01*
X0121342Y0060473D01*
X0121361Y0060541D01*
X0121376Y0060610D01*
X0121388Y0060679D01*
X0121396Y0060749D01*
X0121400Y0060820D01*
X0121400Y0060890D01*
X0121396Y0060961D01*
X0121388Y0061031D01*
X0121376Y0061100D01*
X0121361Y0061169D01*
X0121342Y0061237D01*
X0121319Y0061303D01*
X0121292Y0061368D01*
X0121262Y0061432D01*
X0121229Y0061494D01*
X0121192Y0061554D01*
X0121152Y0061612D01*
X0121109Y0061667D01*
X0121062Y0061721D01*
X0121013Y0061771D01*
X0120961Y0061819D01*
X0120907Y0061864D01*
X0120850Y0061905D01*
X0120791Y0061944D01*
X0120730Y0061979D01*
X0120667Y0062011D01*
X0120603Y0062039D01*
X0120537Y0062064D01*
X0120470Y0062085D01*
X0120401Y0062102D01*
X0120332Y0062116D01*
X0120263Y0062125D01*
X0120192Y0062131D01*
X0120122Y0062133D01*
X0118844Y0062133D01*
X0118844Y0057533D01*
X0114775Y0067533D02*
X0112220Y0067533D01*
X0114392Y0070089D01*
X0113625Y0072133D02*
X0113551Y0072131D01*
X0113477Y0072126D01*
X0113403Y0072116D01*
X0113330Y0072103D01*
X0113257Y0072087D01*
X0113186Y0072066D01*
X0113116Y0072042D01*
X0113047Y0072015D01*
X0112979Y0071984D01*
X0112913Y0071950D01*
X0112849Y0071913D01*
X0112787Y0071872D01*
X0112727Y0071828D01*
X0112669Y0071782D01*
X0112613Y0071732D01*
X0112560Y0071680D01*
X0112510Y0071625D01*
X0112463Y0071568D01*
X0112419Y0071508D01*
X0112377Y0071446D01*
X0112339Y0071383D01*
X0112304Y0071317D01*
X0112273Y0071250D01*
X0112245Y0071181D01*
X0112220Y0071111D01*
X0114392Y0070089D02*
X0114439Y0070136D01*
X0114483Y0070186D01*
X0114525Y0070238D01*
X0114564Y0070292D01*
X0114599Y0070348D01*
X0114632Y0070406D01*
X0114662Y0070466D01*
X0114688Y0070527D01*
X0114711Y0070590D01*
X0114730Y0070654D01*
X0114746Y0070718D01*
X0114759Y0070784D01*
X0114768Y0070850D01*
X0114773Y0070916D01*
X0114775Y0070983D01*
X0114773Y0071050D01*
X0114767Y0071117D01*
X0114758Y0071183D01*
X0114744Y0071248D01*
X0114727Y0071313D01*
X0114706Y0071376D01*
X0114681Y0071438D01*
X0114653Y0071499D01*
X0114621Y0071558D01*
X0114586Y0071615D01*
X0114547Y0071670D01*
X0114506Y0071722D01*
X0114461Y0071772D01*
X0114414Y0071819D01*
X0114364Y0071864D01*
X0114312Y0071905D01*
X0114257Y0071944D01*
X0114200Y0071979D01*
X0114141Y0072011D01*
X0114080Y0072039D01*
X0114018Y0072064D01*
X0113955Y0072085D01*
X0113890Y0072102D01*
X0113825Y0072116D01*
X0113759Y0072125D01*
X0113692Y0072131D01*
X0113625Y0072133D01*
D15*
X0117225Y0076708D03*
X0117225Y0084208D03*
X0117225Y0091708D03*
D16*
X0155600Y0090833D02*
X0155600Y0083833D01*
X0165100Y0083833D01*
X0165100Y0090833D01*
X0155600Y0090833D01*
X0155600Y0098833D02*
X0155600Y0105833D01*
X0165100Y0105833D01*
X0165100Y0098833D01*
X0155600Y0098833D01*
X0181850Y0098833D02*
X0181850Y0105833D01*
X0191350Y0105833D01*
X0191350Y0098833D01*
X0181850Y0098833D01*
X0181850Y0090833D02*
X0181850Y0083833D01*
X0191350Y0083833D01*
X0191350Y0090833D01*
X0181850Y0090833D01*
X0188100Y0115083D02*
X0188100Y0122083D01*
X0197600Y0122083D01*
X0197600Y0115083D01*
X0188100Y0115083D01*
X0188100Y0126333D02*
X0188100Y0133333D01*
X0197600Y0133333D01*
X0197600Y0126333D01*
X0188100Y0126333D01*
X0188100Y0137583D02*
X0188100Y0144583D01*
X0197600Y0144583D01*
X0197600Y0137583D01*
X0188100Y0137583D01*
X0188100Y0148833D02*
X0188100Y0155833D01*
X0197600Y0155833D01*
X0197600Y0148833D01*
X0188100Y0148833D01*
X0160100Y0139583D02*
X0160100Y0132583D01*
X0150600Y0132583D01*
X0150600Y0139583D01*
X0160100Y0139583D01*
M02*
