G75*
%MOIN*%
%OFA0B0*%
%FSLAX25Y25*%
%IPPOS*%
%LPD*%
%AMOC8*
5,1,8,0,0,1.08239X$1,22.5*
%
%ADD10R,0.25000X0.60000*%
%ADD11OC8,0.07200*%
%ADD12C,0.13198*%
%ADD13OC8,0.08200*%
%ADD14C,0.04165*%
D10*
X0076600Y0108583D03*
X0239100Y0128583D03*
X0239100Y0042333D03*
D11*
X0140350Y0059833D03*
X0126600Y0059833D03*
X0140350Y0073583D03*
X0105350Y0101083D03*
X0105350Y0114833D03*
X0119100Y0114833D03*
D12*
X0102850Y0087333D03*
X0142850Y0087333D03*
D13*
X0122850Y0044833D03*
X0122850Y0034833D03*
X0122850Y0024833D03*
D14*
X0071600Y0013583D03*
X0082850Y0016083D03*
X0089100Y0012333D03*
X0105350Y0019833D03*
X0109100Y0012333D03*
X0129100Y0012333D03*
X0149100Y0012333D03*
X0169100Y0012333D03*
X0189100Y0012333D03*
X0209100Y0012333D03*
X0231600Y0016083D03*
X0239100Y0016083D03*
X0246600Y0016083D03*
X0246600Y0028583D03*
X0239100Y0028583D03*
X0231600Y0028583D03*
X0204100Y0049833D03*
X0194100Y0046083D03*
X0179100Y0056083D03*
X0174100Y0046083D03*
X0159100Y0042333D03*
X0154100Y0042333D03*
X0111600Y0037333D03*
X0111600Y0032333D03*
X0105350Y0049833D03*
X0082850Y0056083D03*
X0072850Y0058583D03*
X0069100Y0066083D03*
X0069100Y0082333D03*
X0076600Y0082333D03*
X0084100Y0082333D03*
X0084100Y0094833D03*
X0076600Y0094833D03*
X0069100Y0094833D03*
X0069100Y0122333D03*
X0076600Y0122333D03*
X0084100Y0122333D03*
X0084100Y0134833D03*
X0076600Y0134833D03*
X0069100Y0134833D03*
X0069100Y0146083D03*
X0069100Y0161083D03*
X0089100Y0161083D03*
X0109100Y0161083D03*
X0129100Y0161083D03*
X0152850Y0153583D03*
X0162850Y0152333D03*
X0169100Y0144833D03*
X0182850Y0143583D03*
X0204100Y0142333D03*
X0204100Y0152333D03*
X0231600Y0154833D03*
X0239100Y0154833D03*
X0246600Y0154833D03*
X0246600Y0142333D03*
X0239100Y0142333D03*
X0231600Y0142333D03*
X0204100Y0124833D03*
X0180350Y0123583D03*
X0176600Y0113583D03*
X0160350Y0117333D03*
X0160350Y0122333D03*
X0140350Y0133583D03*
X0152850Y0102333D03*
X0170350Y0081083D03*
X0205350Y0073583D03*
X0205350Y0063583D03*
X0231600Y0068583D03*
X0239100Y0068583D03*
X0246600Y0068583D03*
X0246600Y0056083D03*
X0239100Y0056083D03*
X0231600Y0056083D03*
X0245350Y0084833D03*
X0246600Y0102333D03*
X0239100Y0102333D03*
X0231600Y0102333D03*
X0231600Y0114833D03*
X0239100Y0114833D03*
X0246600Y0114833D03*
M02*
