G75*
%MOIN*%
%OFA0B0*%
%FSLAX25Y25*%
%IPPOS*%
%LPD*%
%AMOC8*
5,1,8,0,0,1.08239X$1,22.5*
%
%ADD10R,0.04143X0.05718*%
%ADD11R,0.05718X0.04143*%
%ADD12R,0.04537X0.02962*%
%ADD13R,0.03159X0.06506*%
%ADD14R,0.02765X0.06506*%
%ADD15R,0.04931X0.03356*%
%ADD16R,0.18710X0.03356*%
%ADD17R,0.11427X0.08474*%
%ADD18R,0.25600X0.10600*%
%ADD19R,0.25600X0.18100*%
%ADD20R,0.06899X0.08080*%
%ADD21R,0.04931X0.06112*%
%ADD22R,0.08080X0.06899*%
%ADD23OC8,0.07200*%
%ADD24C,0.13198*%
%ADD25R,0.08080X0.07687*%
%ADD26R,0.08080X0.08080*%
%ADD27R,0.06899X0.08868*%
%ADD28R,0.05915X0.02175*%
%ADD29R,0.08500X0.06000*%
%ADD30R,0.06112X0.04537*%
%ADD31OC8,0.08200*%
%ADD32C,0.04165*%
D10*
X0092860Y0019833D03*
X0100340Y0019833D03*
X0100340Y0049833D03*
X0092860Y0049833D03*
X0165360Y0119833D03*
X0172840Y0119833D03*
X0209110Y0143583D03*
X0216590Y0143583D03*
X0216590Y0152333D03*
X0209110Y0152333D03*
X0144090Y0152333D03*
X0136610Y0152333D03*
X0126590Y0127333D03*
X0119110Y0127333D03*
X0210360Y0073583D03*
X0217840Y0073583D03*
X0217840Y0064833D03*
X0210360Y0064833D03*
D11*
X0156600Y0054823D03*
X0156600Y0047343D03*
X0096600Y0101093D03*
X0096600Y0108573D03*
D12*
X0135626Y0136093D03*
X0135626Y0139833D03*
X0135626Y0143573D03*
X0145074Y0143573D03*
X0145074Y0136093D03*
X0208126Y0136073D03*
X0208126Y0132333D03*
X0208126Y0128593D03*
X0217574Y0128593D03*
X0217574Y0136073D03*
X0218824Y0057323D03*
X0209376Y0057323D03*
X0209376Y0053583D03*
X0209376Y0049843D03*
X0218824Y0049843D03*
D13*
X0194100Y0040060D03*
X0189100Y0040060D03*
X0184100Y0040060D03*
X0179100Y0040060D03*
X0174100Y0040060D03*
X0169100Y0040060D03*
X0164100Y0040060D03*
X0164100Y0062107D03*
X0169100Y0062107D03*
X0174100Y0062107D03*
X0179100Y0062107D03*
X0184100Y0062107D03*
X0189100Y0062107D03*
X0194100Y0062107D03*
D14*
X0182850Y0129203D03*
X0177850Y0129203D03*
X0172850Y0129203D03*
X0167850Y0129203D03*
X0167850Y0150463D03*
X0172850Y0150463D03*
X0177850Y0150463D03*
X0182850Y0150463D03*
D15*
X0092850Y0040739D03*
X0092850Y0034833D03*
X0092850Y0028928D03*
D16*
X0099740Y0034833D03*
D17*
X0103283Y0034833D03*
D18*
X0076600Y0108583D03*
X0239100Y0128583D03*
X0239100Y0042333D03*
D19*
X0239100Y0022333D03*
X0239100Y0062333D03*
X0239100Y0108583D03*
X0239100Y0148583D03*
X0076600Y0128583D03*
X0076600Y0088583D03*
D20*
X0096748Y0127333D03*
X0108952Y0127333D03*
D21*
X0135655Y0127333D03*
X0142545Y0127333D03*
X0126295Y0152333D03*
X0119405Y0152333D03*
D22*
X0212850Y0114686D03*
X0212850Y0102481D03*
X0214100Y0037186D03*
X0214100Y0024981D03*
D23*
X0140350Y0059833D03*
X0126600Y0059833D03*
X0140350Y0073583D03*
X0105350Y0101083D03*
X0105350Y0114833D03*
X0119100Y0114833D03*
D24*
X0102850Y0087333D03*
X0142850Y0087333D03*
D25*
X0072309Y0051044D03*
X0072309Y0021123D03*
D26*
X0072309Y0031359D03*
X0072309Y0040808D03*
D27*
X0083135Y0048288D03*
X0083135Y0023878D03*
D28*
X0083628Y0030965D03*
X0083628Y0033524D03*
X0083628Y0036083D03*
X0083628Y0038642D03*
X0083628Y0041201D03*
D29*
X0160350Y0087333D03*
X0160350Y0102333D03*
X0186600Y0102333D03*
X0186600Y0087333D03*
X0192850Y0118583D03*
X0192850Y0129833D03*
X0192850Y0141083D03*
X0192850Y0152333D03*
X0155350Y0136083D03*
D30*
X0127181Y0136093D03*
X0118519Y0139833D03*
X0127181Y0143573D03*
D31*
X0122850Y0044833D03*
X0122850Y0034833D03*
X0122850Y0024833D03*
D32*
X0071600Y0013583D03*
X0082850Y0016083D03*
X0089100Y0012333D03*
X0105350Y0019833D03*
X0109100Y0012333D03*
X0129100Y0012333D03*
X0149100Y0012333D03*
X0169100Y0012333D03*
X0189100Y0012333D03*
X0209100Y0012333D03*
X0231600Y0016083D03*
X0239100Y0016083D03*
X0246600Y0016083D03*
X0246600Y0028583D03*
X0239100Y0028583D03*
X0231600Y0028583D03*
X0204100Y0049833D03*
X0194100Y0046083D03*
X0179100Y0056083D03*
X0174100Y0046083D03*
X0159100Y0042333D03*
X0154100Y0042333D03*
X0111600Y0037333D03*
X0111600Y0032333D03*
X0105350Y0049833D03*
X0082850Y0056083D03*
X0072850Y0058583D03*
X0069100Y0066083D03*
X0069100Y0082333D03*
X0076600Y0082333D03*
X0084100Y0082333D03*
X0084100Y0094833D03*
X0076600Y0094833D03*
X0069100Y0094833D03*
X0069100Y0122333D03*
X0076600Y0122333D03*
X0084100Y0122333D03*
X0084100Y0134833D03*
X0076600Y0134833D03*
X0069100Y0134833D03*
X0069100Y0146083D03*
X0069100Y0161083D03*
X0089100Y0161083D03*
X0109100Y0161083D03*
X0129100Y0161083D03*
X0152850Y0153583D03*
X0162850Y0152333D03*
X0169100Y0144833D03*
X0182850Y0143583D03*
X0204100Y0142333D03*
X0204100Y0152333D03*
X0231600Y0154833D03*
X0239100Y0154833D03*
X0246600Y0154833D03*
X0246600Y0142333D03*
X0239100Y0142333D03*
X0231600Y0142333D03*
X0204100Y0124833D03*
X0180350Y0123583D03*
X0176600Y0113583D03*
X0160350Y0117333D03*
X0160350Y0122333D03*
X0140350Y0133583D03*
X0152850Y0102333D03*
X0170350Y0081083D03*
X0205350Y0073583D03*
X0205350Y0063583D03*
X0231600Y0068583D03*
X0239100Y0068583D03*
X0246600Y0068583D03*
X0246600Y0056083D03*
X0239100Y0056083D03*
X0231600Y0056083D03*
X0245350Y0084833D03*
X0246600Y0102333D03*
X0239100Y0102333D03*
X0231600Y0102333D03*
X0231600Y0114833D03*
X0239100Y0114833D03*
X0246600Y0114833D03*
M02*
